<svg width="71" height="75" viewBox="0 0 71 75" fill="none" xmlns="http://www.w3.org/2000/svg">
<path d="M29.32 52.1388L24.5311 72.3208H20.4263" stroke="#CB886A" stroke-width="4" stroke-linecap="round"/>
<path d="M14 33.6628L3 44.6628" stroke="#CB886A" stroke-width="4" stroke-linecap="round"/>
<circle cx="38.2138" cy="28.8781" r="27.3654" fill="#726AE4"/>
<path d="M65.3271 29.7095L65.8056 29.8546L65.3271 29.7095ZM65.2691 29.9007L64.7906 29.7555L65.2691 29.9007ZM65.2772 31.2102L65.7559 31.0656L65.2772 31.2102ZM65.3377 31.4102L64.859 31.5548L65.3377 31.4102ZM65.3981 31.6101L65.8767 31.4655L65.3981 31.6101ZM65.5697 32.9407L66.0691 32.9639L65.5697 32.9407ZM65.5605 33.1382L65.061 33.115L65.5605 33.1382ZM65.5513 33.3357L66.0508 33.3589L65.5513 33.3357ZM65.2062 34.5983L65.6493 34.8299L65.2062 34.5983ZM65.1123 34.7779L64.6692 34.5462L65.1123 34.7779ZM65.0184 34.9575L65.4615 35.1892L65.0184 34.9575ZM64.2983 36.1107L64.7012 36.4069L64.2983 36.1107ZM64.1771 36.2756L63.7743 35.9794L64.1771 36.2756ZM64.0559 36.4404L64.4588 36.7366L64.0559 36.4404ZM64.023 37.8178L63.5673 38.0236L64.023 37.8178ZM64.1344 38.0644L63.6787 38.2702L64.1344 38.0644ZM64.2458 38.3109L64.7014 38.1051L64.2458 38.3109ZM63.9023 39.5468L63.6537 39.113L63.9023 39.5468ZM63.6883 39.6694L63.9369 40.1033L63.6883 39.6694ZM63.4744 39.792L63.2258 39.3582L63.4744 39.792ZM62.838 40.9751L63.3353 40.9236L62.838 40.9751ZM62.8857 41.4366L62.3884 41.4881L62.8857 41.4366ZM62.1976 42.5181L62.011 42.0542L62.1976 42.5181ZM61.7388 42.7026L61.9253 43.1665L61.7388 42.7026ZM60.6364 43.5547L61.0622 43.8168L60.6364 43.5547ZM60.4366 43.8793L60.0108 43.6172L60.4366 43.8793ZM59.9498 45.1196L59.4613 45.0128L59.9498 45.1196ZM59.9042 45.3279L60.3927 45.4347L59.9042 45.3279ZM59.8587 45.5361L59.3702 45.4292L59.8587 45.5361ZM59.4283 46.8686L58.9702 46.6682L59.4283 46.8686ZM59.3453 47.0584L59.8033 47.2587L59.3453 47.0584ZM58.6625 48.5132L59.1077 48.7408L58.6625 48.5132ZM58.5664 48.7013L58.1211 48.4738L58.5664 48.7013ZM58.4702 48.8894L58.9155 49.1169L58.4702 48.8894ZM57.5855 49.9095L57.8705 50.3203L57.5855 49.9095ZM57.4173 50.0261L57.1323 49.6153L57.4173 50.0261ZM57.2492 50.1428L57.5341 50.5536L57.2492 50.1428ZM55.8443 50.5393L55.8479 51.0393L55.8443 50.5393ZM55.5928 50.5412L55.5892 50.0412L55.5928 50.5412ZM55.3414 50.543L55.345 51.0429L55.3414 50.543ZM54.1296 51.1578L53.7023 50.8982L54.1296 51.1578ZM54.0191 51.3396L54.4465 51.5992L54.0191 51.3396ZM53.9087 51.5215L54.336 51.7811L53.9087 51.5215ZM52.9762 52.479L52.7127 52.054L52.9762 52.479ZM52.8081 52.5832L53.0715 53.0082L52.8081 52.5832ZM52.64 52.6874L52.3766 52.2624L52.64 52.6874ZM50.9224 53.0862L50.9007 52.5867L50.9224 53.0862ZM49.7031 53.5952L49.3563 53.2351L49.7031 53.5952ZM49.5549 53.7379L49.9017 54.0981L49.5549 53.7379ZM49.4067 53.8806L49.0599 53.5205L49.4067 53.8806ZM48.101 54.0303L47.9132 54.4937L48.101 54.0303ZM47.8592 53.9323L48.0469 53.4689L47.8592 53.9323ZM47.6174 53.8343L47.4296 54.2978L47.6174 53.8343ZM46.2618 53.8532L45.9937 53.4312L46.2618 53.8532ZM46.0988 53.9568L46.3669 54.3788L46.0988 53.9568ZM45.9357 54.0604L45.6675 53.6384L45.9357 54.0604ZM44.9511 55.3664L45.4058 55.5744L44.9511 55.3664ZM44.6891 55.9394L44.2344 55.7315L44.6891 55.9394ZM43.5108 56.5615L43.3035 57.0165L43.5108 56.5615ZM43.2899 56.4608L43.4972 56.0058L43.2899 56.4608ZM43.069 56.3601L42.8617 56.8151L43.069 56.3601ZM41.6636 55.8944L41.7585 55.4035L41.6636 55.8944ZM41.4647 55.8559L41.3698 56.3469L41.4647 55.8559ZM41.2659 55.8175L41.3608 55.3266L41.2659 55.8175ZM39.9749 56.2345L40.3037 56.6112L39.9749 56.2345ZM39.7881 56.3976L39.4593 56.0209L39.7881 56.3976ZM39.6014 56.5606L39.9302 56.9373L39.6014 56.5606ZM38.3241 56.5089L38.6618 56.1402L38.3241 56.5089ZM38.1293 56.3304L37.7915 56.6991L38.1293 56.3304ZM37.9345 56.152L38.2723 55.7833L37.9345 56.152ZM36.6451 55.5587L36.6418 55.0587L36.6451 55.5587ZM36.2643 55.5612L36.2675 56.0612L36.2643 55.5612ZM35.0185 55.3342L34.841 55.8017L35.0185 55.3342ZM34.6551 55.1962L34.4775 55.6636L34.6551 55.1962ZM33.4036 54.9648L33.4038 54.4648L33.4036 54.9648ZM33.2115 54.9647L33.2112 55.4647L33.2115 54.9647ZM33.0194 54.9646L33.0196 54.4646L33.0194 54.9646ZM31.7586 54.8148L31.8762 54.3288L31.7586 54.8148ZM31.574 54.7701L31.4564 55.256L31.574 54.7701ZM31.3895 54.7254L31.5072 54.2394L31.3895 54.7254ZM30.0365 54.7452L29.9243 54.258L30.0365 54.7452ZM29.5972 54.8464L29.485 54.3591L29.5972 54.8464ZM28.3012 54.6501L28.0281 55.069L28.3012 54.6501ZM28.1337 54.5409L28.4068 54.1221L28.1337 54.5409ZM27.9662 54.4317L27.6931 54.8506L27.9662 54.4317ZM26.6491 54.119L26.6142 53.6203L26.6491 54.119ZM26.4231 54.1348L26.458 54.6336L26.4231 54.1348ZM26.1972 54.1506L26.1623 53.6519L26.1972 54.1506ZM25.2083 53.267L25.6936 53.1465L25.2083 53.267ZM25.0694 52.7075L24.5842 52.8279L25.0694 52.7075ZM23.9256 51.9981L24.0465 52.4833L23.9256 51.9981ZM23.6533 52.066L23.5324 51.5808L23.6533 52.066ZM23.3811 52.1338L23.502 52.619L23.3811 52.1338ZM22.244 51.5506L22.7256 51.4164L22.244 51.5506ZM22.1765 51.3085L21.6949 51.4426L22.1765 51.3085ZM22.1091 51.0664L22.5908 50.9322L22.1091 51.0664ZM21.0925 50.192L21.1328 49.6936L21.0925 50.192ZM20.8563 50.1729L20.816 50.6713L20.8563 50.1729ZM20.62 50.1539L20.5798 50.6522L20.62 50.1539ZM19.5045 49.4686L19.9476 49.2371L19.5045 49.4686ZM19.4075 49.2831L18.9643 49.5146L19.4075 49.2831ZM19.3105 49.0975L19.7537 48.8659L19.3105 49.0975ZM18.9105 47.6658L19.4083 47.6195L18.9105 47.6658ZM18.8879 47.4238L18.3901 47.4701L18.8879 47.4238ZM18.8654 47.1817L19.3633 47.1354L18.8654 47.1817ZM18.3072 45.9617L17.9836 46.3429L18.3072 45.9617ZM18.0187 45.7168L18.3423 45.3356L18.0187 45.7168ZM17.1401 44.818L16.7514 45.1325L17.1401 44.818ZM16.9036 44.5258L17.2923 44.2113L16.9036 44.5258ZM15.9955 43.6125L15.6766 43.9977L15.9955 43.6125ZM15.8425 43.4858L16.1614 43.1007L15.8425 43.4858ZM15.6895 43.3591L15.3706 43.7442L15.6895 43.3591ZM15.0526 42.2755L14.5613 42.3683L15.0526 42.2755ZM15.0154 42.0785L15.5067 41.9857L15.0154 42.0785ZM14.9782 41.8815L14.4869 41.9743L14.9782 41.8815ZM14.0754 40.8854L14.2739 40.4265V40.4265L14.0754 40.8854ZM13.843 40.7849L13.6445 41.2438V41.2438L13.843 40.7849ZM13.6105 40.6843L13.8091 40.2254L13.6105 40.6843ZM13.1394 39.5232L12.6708 39.3487L13.1394 39.5232ZM13.2311 39.277L13.6997 39.4515L13.2311 39.277ZM13.3228 39.0307L12.8543 38.8562L13.3228 39.0307ZM12.7817 37.8152L12.9911 37.3611L12.7817 37.8152ZM12.2751 37.5815L12.4844 37.1275L12.2751 37.5815ZM10.9743 36.615L11.3672 36.3059L10.9743 36.615ZM10.7038 36.2712L11.0968 35.9621L10.7038 36.2712ZM10.3714 34.9797L10.8645 35.0625L10.3714 34.9797ZM10.4433 34.5519L9.9502 34.4691L10.4433 34.5519ZM10.7501 32.7412L10.2572 32.6572L10.7501 32.7412ZM10.9132 31.3979L10.4144 31.3628L10.9132 31.3979ZM10.9408 31.0049L10.4421 30.9698L10.9408 31.0049ZM11.4188 28.044L11.0135 27.7512L11.4188 28.044ZM11.6857 27.6745L12.091 27.9673L11.6857 27.6745ZM11.5768 26.3566L11.1853 26.6676L11.5768 26.3566ZM11.4109 26.1477L11.8024 25.8367L11.4109 26.1477ZM11.2449 25.9388L10.8534 26.2498L11.2449 25.9388ZM10.5301 24.5366L10.0424 24.6471L10.5301 24.5366ZM10.4825 24.3267L10.9701 24.2162L10.4825 24.3267ZM10.4349 24.1168L9.94727 24.2273L10.4349 24.1168ZM10.7564 22.8402L10.3732 22.519L10.7564 22.8402ZM10.9001 22.6688L11.2833 22.9899L10.9001 22.6688ZM11.0437 22.4974L10.6604 22.1762L11.0437 22.4974ZM11.43 21.2029L11.9257 21.1379L11.43 21.2029ZM11.4018 20.9876L10.906 21.0526L11.4018 20.9876ZM11.9462 19.5922L12.2298 20.004L11.9462 19.5922ZM12.3448 19.3177L12.0613 18.9059L12.3448 19.3177ZM13.7656 16.4487L13.9957 16.8926L13.7656 16.4487ZM13.9783 16.3385L13.7483 15.8945L13.9783 16.3385ZM15.0487 15.4419L14.6351 15.161L15.0487 15.4419ZM15.1557 15.2843L15.5693 15.5653L15.1557 15.2843ZM15.2628 15.1267L14.8492 14.8458L15.2628 15.1267ZM15.6887 13.8641L16.1866 13.9098L15.6887 13.8641ZM15.8618 11.8935L16.3601 11.9343L15.8618 11.8935ZM15.8813 11.6555L15.3829 11.6147L15.8813 11.6555ZM15.9007 11.4176L16.3991 11.4583L15.9007 11.4176ZM16.5133 10.1963L16.8198 10.5914L16.5133 10.1963ZM16.6768 10.0695L16.3704 9.67442L16.6768 10.0695ZM16.8404 9.94267L17.1468 10.3378L16.8404 9.94267ZM18.3363 9.53528L18.3454 9.03536L18.3363 9.53528ZM18.903 9.54556L18.8939 10.0455L18.903 9.54556ZM19.8747 8.60577L19.3749 8.59368L19.8747 8.60577ZM19.8816 8.31991L20.3815 8.33201L19.8816 8.31991ZM19.8886 8.03406L19.3887 8.02197L19.8886 8.03406ZM21.2465 7.40375L21.1276 7.88941L21.2465 7.40375ZM21.5535 7.47888L21.4346 7.96455L21.5535 7.47888ZM23.0212 7.26052L22.6562 6.91879L23.0212 7.26052ZM23.1526 7.12016L22.7876 6.77843L23.1526 7.12016ZM23.284 6.97979L23.649 7.32152L23.284 6.97979ZM24.0116 5.73143L23.5426 5.55813L24.0116 5.73143ZM24.0976 5.4989L23.6286 5.3256V5.3256L24.0976 5.4989ZM25.6494 4.48137L25.6466 3.98138L25.6494 4.48137ZM26.9774 4.21956L27.1774 4.6778L26.9774 4.21956ZM27.3301 4.0656L27.1301 3.60735L27.3301 4.0656ZM28.3202 2.98397L27.8703 2.76574L28.3202 2.98397ZM28.4396 2.73787L28.8894 2.9561L28.4396 2.73787ZM28.559 2.49177L28.1091 2.27354L28.559 2.49177ZM29.6326 1.54324L29.5417 1.05157L29.6326 1.54324ZM29.834 1.50601L29.9249 1.99768L29.834 1.50601ZM30.0353 1.46878L29.9444 0.977119L30.0353 1.46878ZM31.3634 1.15664L31.5012 1.63728L31.3634 1.15664ZM31.7541 1.04462L31.8919 1.52525L31.7541 1.04462ZM33.2154 1.70509L33.5776 1.36036L33.2154 1.70509ZM33.4565 1.95839L33.0943 2.30312L33.4565 1.95839ZM33.6976 2.21168L34.0598 1.86695L33.6976 2.21168ZM35.0688 2.34019L34.6753 2.03172L35.0688 2.34019ZM35.2373 2.12528L34.8438 1.81681L35.2373 2.12528ZM35.4058 1.91037L35.7993 2.21885L35.4058 1.91037ZM36.6329 1.35395L36.7523 0.868419L36.6329 1.35395ZM36.8309 1.40266L36.7116 1.8882L36.8309 1.40266ZM37.029 1.45137L37.1484 0.965833L37.029 1.45137ZM38.3558 1.28219L38.5796 1.72931L38.3558 1.28219ZM38.7524 1.08371L38.5285 0.636599L38.7524 1.08371ZM40.1017 0.620522L40.008 0.129399L40.1017 0.620522ZM40.5114 0.542291L40.6052 1.03341L40.5114 0.542291ZM41.8411 0.686226L42.0374 0.226361L41.8411 0.686226ZM42.0335 0.768336L41.8372 1.2282L42.0335 0.768336ZM42.2258 0.850445L42.4221 0.39058L42.2258 0.850445ZM43.4506 1.58248L43.7599 1.1896L43.4506 1.58248ZM43.7975 1.85558L43.4883 2.24846L43.7975 1.85558ZM45.0635 2.28131L45.0406 1.78184L45.0635 2.28131ZM46.8845 2.16808L46.8413 1.66995L46.8845 2.16808ZM48.5444 2.61867L48.915 2.28303L48.5444 2.61867ZM48.6935 2.78334L48.3229 3.11898L48.6935 2.78334ZM48.8426 2.94802L49.2132 2.61238L48.8426 2.94802ZM49.951 3.75476L50.1443 3.29368L49.951 3.75476ZM50.1329 3.83106L49.9395 4.29215L50.1329 3.83106ZM50.3148 3.90737L50.5082 3.44628L50.3148 3.90737ZM51.2365 4.92761L50.7736 5.1168L51.2365 4.92761ZM51.3299 5.15605L51.7927 4.96685L51.3299 5.15605ZM51.4232 5.3845L50.9604 5.5737L51.4232 5.3845ZM52.3957 6.29746L52.2861 6.78531L52.3957 6.29746ZM52.7898 6.38597L52.8993 5.89812L52.7898 6.38597ZM53.9919 6.8836L54.2627 6.4633L53.9919 6.8836ZM54.1539 6.98798L53.8831 7.40828L54.1539 6.98798ZM54.3159 7.09237L54.0451 7.51267L54.3159 7.09237ZM55.1205 8.11962L55.5868 7.93918L55.1205 8.11962ZM55.1989 8.32208L54.7325 8.50252L55.1989 8.32208ZM55.2772 8.52453L55.7435 8.34409L55.2772 8.52453ZM56.4121 9.47322L56.5603 8.9957L56.4121 9.47322ZM56.6128 9.53552L56.4645 10.013L56.6128 9.53552ZM57.4444 10.4606L56.9563 10.5694L57.4444 10.4606ZM57.4921 10.6747L57.9801 10.5659L57.4921 10.6747ZM57.5398 10.8887L57.0518 10.9975L57.5398 10.8887ZM58.3377 11.8916L58.1329 12.3478L58.3377 11.8916ZM58.5283 11.9772L58.733 11.521L58.5283 11.9772ZM58.7189 12.0627L58.5142 12.5189L58.7189 12.0627ZM60.3045 12.4714L60.3685 11.9755L60.3045 12.4714ZM60.8706 12.5444L60.9345 12.0485L60.8706 12.5444ZM61.6777 13.5447L61.1839 13.4657L61.6777 13.5447ZM61.6357 13.8069L62.1295 13.8859L61.6357 13.8069ZM61.5938 14.0692L62.0875 14.1482L61.5938 14.0692ZM61.9015 15.4398L62.2714 15.1034L61.9015 15.4398ZM62.1692 15.7341L61.7993 16.0705L62.1692 15.7341ZM62.8467 16.8392L62.3784 17.0146L62.8467 16.8392ZM62.9152 17.0222L63.3834 16.8468L62.9152 17.0222ZM62.9837 17.2052L62.5155 17.3806L62.9837 17.2052ZM63.2391 18.501L62.7394 18.5199L63.2391 18.501ZM63.2546 18.9091L62.7549 18.928L63.2546 18.9091ZM64.0531 20.0224L63.8099 20.4593L64.0531 20.0224ZM64.5147 20.2794L64.2715 20.7163L64.5147 20.2794ZM65.2137 21.4169L64.7164 21.3651L65.2137 21.4169ZM65.1917 21.6282L65.689 21.68L65.1917 21.6282ZM65.1696 21.8394L64.6723 21.7876L65.1696 21.8394ZM64.8536 23.2535L64.3806 23.0913L64.8536 23.2535ZM64.7812 23.4646L65.2541 23.6268L64.7812 23.4646ZM64.7088 23.6757L64.2358 23.5135L64.7088 23.6757ZM65.2586 24.9344L64.9728 25.3447L65.2586 24.9344ZM65.4953 25.0993L65.7811 24.689L65.4953 25.0993ZM65.7319 25.2642L65.4461 25.6744L65.7319 25.2642ZM66.3622 26.5005L65.8756 26.3853L66.3622 26.5005ZM66.3138 26.7049L66.8004 26.8201L66.3138 26.7049ZM66.2654 26.9094L65.7789 26.7942L66.2654 26.9094ZM65.5201 28.0883L65.8434 28.4697L65.5201 28.0883ZM65.1717 28.3836L64.8483 28.0022L65.1717 28.3836ZM65.3851 29.5182L64.9066 29.3731L65.3851 29.5182ZM65.3271 29.7095L64.8486 29.5643L64.7906 29.7555L65.2691 29.9007L65.7476 30.0458L65.8056 29.8546L65.3271 29.7095ZM65.2691 29.9007L64.7906 29.7555C64.6312 30.2812 64.6366 30.8186 64.7986 31.3548L65.2772 31.2102L65.7559 31.0656C65.6482 30.7092 65.6481 30.3737 65.7476 30.0458L65.2691 29.9007ZM65.2772 31.2102L64.7986 31.3548L64.859 31.5548L65.3377 31.4102L65.8163 31.2655L65.7559 31.0656L65.2772 31.2102ZM65.3377 31.4102L64.859 31.5548L64.9195 31.7548L65.3981 31.6101L65.8767 31.4655L65.8163 31.2655L65.3377 31.4102ZM65.3981 31.6101L64.9195 31.7548C65.0388 32.1498 65.0879 32.5366 65.0702 32.9175L65.5697 32.9407L66.0691 32.9639C66.0924 32.4632 66.0271 31.963 65.8767 31.4655L65.3981 31.6101ZM65.5697 32.9407L65.0702 32.9175L65.061 33.115L65.5605 33.1382L66.06 33.1614L66.0691 32.9639L65.5697 32.9407ZM65.5605 33.1382L65.061 33.115L65.0519 33.3125L65.5513 33.3357L66.0508 33.3589L66.06 33.1614L65.5605 33.1382ZM65.5513 33.3357L65.0519 33.3125C65.0349 33.6787 64.9398 34.0286 64.7631 34.3666L65.2062 34.5983L65.6493 34.8299C65.8918 34.3661 66.0268 33.8743 66.0508 33.3589L65.5513 33.3357ZM65.2062 34.5983L64.7631 34.3666L64.6692 34.5462L65.1123 34.7779L65.5554 35.0095L65.6493 34.8299L65.2062 34.5983ZM65.1123 34.7779L64.6692 34.5462L64.5753 34.7259L65.0184 34.9575L65.4615 35.1892L65.5554 35.0095L65.1123 34.7779ZM65.0184 34.9575L64.5753 34.7259C64.3776 35.1041 64.1511 35.4669 63.8955 35.8146L64.2983 36.1107L64.7012 36.4069C64.9866 36.0187 65.2401 35.6128 65.4615 35.1892L65.0184 34.9575ZM64.2983 36.1107L63.8955 35.8146L63.7743 35.9794L64.1771 36.2756L64.58 36.5718L64.7012 36.4069L64.2983 36.1107ZM64.1771 36.2756L63.7743 35.9794L63.6531 36.1443L64.0559 36.4404L64.4588 36.7366L64.58 36.5718L64.1771 36.2756ZM64.0559 36.4404L63.6531 36.1443C63.2412 36.7045 63.2719 37.3696 63.5673 38.0236L64.023 37.8178L64.4787 37.612C64.277 37.1654 64.3297 36.9122 64.4588 36.7366L64.0559 36.4404ZM64.023 37.8178L63.5673 38.0236L63.6787 38.2702L64.1344 38.0644L64.5901 37.8586L64.4787 37.612L64.023 37.8178ZM64.1344 38.0644L63.6787 38.2702L63.7901 38.5168L64.2458 38.3109L64.7014 38.1051L64.5901 37.8586L64.1344 38.0644ZM64.2458 38.3109L63.7901 38.5168C63.8858 38.7286 63.8797 38.8442 63.8646 38.8988C63.8519 38.9445 63.8126 39.022 63.6537 39.113L63.9023 39.5468L64.1509 39.9807C64.4696 39.7981 64.7263 39.5328 64.8281 39.1665C64.9274 38.8091 64.8543 38.4436 64.7014 38.1051L64.2458 38.3109ZM63.9023 39.5468L63.6537 39.113L63.4398 39.2356L63.6883 39.6694L63.9369 40.1033L64.1509 39.9807L63.9023 39.5468ZM63.6883 39.6694L63.4398 39.2356L63.2258 39.3582L63.4744 39.792L63.723 40.2258L63.9369 40.1033L63.6883 39.6694ZM63.4744 39.792L63.2258 39.3582C62.9246 39.5308 62.6763 39.7596 62.5168 40.0561C62.3562 40.3547 62.3054 40.6853 62.3406 41.0265L62.838 40.9751L63.3353 40.9236C63.3173 40.7497 63.346 40.6256 63.3975 40.5299C63.4501 40.432 63.5467 40.3268 63.723 40.2258L63.4744 39.792ZM62.838 40.9751L62.3406 41.0265L62.3645 41.2573L62.8618 41.2058L63.3592 41.1544L63.3353 40.9236L62.838 40.9751ZM62.8618 41.2058L62.3645 41.2573L62.3884 41.4881L62.8857 41.4366L63.3831 41.3852L63.3592 41.1544L62.8618 41.2058ZM62.8857 41.4366L62.3884 41.4881C62.4059 41.6581 62.374 41.7586 62.3318 41.8249C62.2876 41.8944 62.1983 41.9789 62.011 42.0542L62.1976 42.5181L62.3841 42.982C62.7088 42.8514 62.9903 42.6527 63.1755 42.3617C63.3627 42.0675 63.4187 41.7303 63.3831 41.3852L62.8857 41.4366ZM62.1976 42.5181L62.011 42.0542L61.7816 42.1465L61.9682 42.6103L62.1547 43.0742L62.3841 42.982L62.1976 42.5181ZM61.9682 42.6103L61.7816 42.1465L61.5522 42.2387L61.7388 42.7026L61.9253 43.1665L62.1547 43.0742L61.9682 42.6103ZM61.7388 42.7026L61.5522 42.2387C60.9705 42.4726 60.5042 42.8154 60.2106 43.2926L60.6364 43.5547L61.0622 43.8168C61.2143 43.5696 61.483 43.3443 61.9253 43.1665L61.7388 42.7026ZM60.6364 43.5547L60.2106 43.2926L60.1107 43.4549L60.5365 43.717L60.9623 43.9791L61.0622 43.8168L60.6364 43.5547ZM60.5365 43.717L60.1107 43.4549L60.0108 43.6172L60.4366 43.8793L60.8624 44.1414L60.9623 43.9791L60.5365 43.717ZM60.4366 43.8793L60.0108 43.6172C59.7551 44.0326 59.5735 44.4996 59.4613 45.0128L59.9498 45.1196L60.4382 45.2265C60.5293 44.8102 60.6722 44.4504 60.8624 44.1414L60.4366 43.8793ZM59.9498 45.1196L59.4613 45.0128L59.4158 45.221L59.9042 45.3279L60.3927 45.4347L60.4382 45.2265L59.9498 45.1196ZM59.9042 45.3279L59.4158 45.221L59.3702 45.4292L59.8587 45.5361L60.3471 45.6429L60.3927 45.4347L59.9042 45.3279ZM59.8587 45.5361L59.3702 45.4292C59.2754 45.8628 59.1419 46.2755 58.9702 46.6682L59.4283 46.8686L59.8864 47.0689C60.0852 46.6144 60.2387 46.1388 60.3471 45.6429L59.8587 45.5361ZM59.4283 46.8686L58.9702 46.6682L58.8872 46.858L59.3453 47.0584L59.8033 47.2587L59.8864 47.0689L59.4283 46.8686ZM59.3453 47.0584L58.8872 46.858L58.8041 47.0478L59.2622 47.2482L59.7203 47.4486L59.8033 47.2587L59.3453 47.0584ZM59.2622 47.2482L58.8041 47.0478C58.6229 47.4621 58.4273 47.8747 58.2173 48.2857L58.6625 48.5132L59.1077 48.7408C59.3267 48.3123 59.5309 47.8815 59.7203 47.4486L59.2622 47.2482ZM58.6625 48.5132L58.2173 48.2857L58.1211 48.4738L58.5664 48.7013L59.0116 48.9289L59.1077 48.7408L58.6625 48.5132ZM58.5664 48.7013L58.1211 48.4738L58.025 48.6618L58.4702 48.8894L58.9155 49.1169L59.0116 48.9289L58.5664 48.7013ZM58.4702 48.8894L58.025 48.6618C57.8467 49.0107 57.6059 49.2868 57.3005 49.4987L57.5855 49.9095L57.8705 50.3203C58.3157 50.0115 58.6647 49.6076 58.9155 49.1169L58.4702 48.8894ZM57.5855 49.9095L57.3005 49.4987L57.1323 49.6153L57.4173 50.0261L57.7023 50.437L57.8705 50.3203L57.5855 49.9095ZM57.4173 50.0261L57.1323 49.6153L56.9642 49.7319L57.2492 50.1428L57.5341 50.5536L57.7023 50.437L57.4173 50.0261ZM57.2492 50.1428L56.9642 49.7319C56.6888 49.923 56.3246 50.0359 55.8407 50.0394L55.8443 50.5393L55.8479 51.0393C56.4865 51.0347 57.0589 50.8833 57.5341 50.5536L57.2492 50.1428ZM55.8443 50.5393L55.8407 50.0394L55.5892 50.0412L55.5928 50.5412L55.5964 51.0411L55.8479 51.0393L55.8443 50.5393ZM55.5928 50.5412L55.5892 50.0412L55.3378 50.043L55.3414 50.543L55.345 51.0429L55.5964 51.0411L55.5928 50.5412ZM55.3414 50.543L55.3378 50.043C54.6401 50.048 54.0565 50.3151 53.7023 50.8982L54.1296 51.1578L54.5569 51.4174C54.6958 51.1888 54.9201 51.046 55.345 51.0429L55.3414 50.543ZM54.1296 51.1578L53.7023 50.8982L53.5918 51.08L54.0191 51.3396L54.4465 51.5992L54.5569 51.4174L54.1296 51.1578ZM54.0191 51.3396L53.5918 51.08L53.4813 51.2619L53.9087 51.5215L54.336 51.7811L54.4465 51.5992L54.0191 51.3396ZM53.9087 51.5215L53.4813 51.2619C53.2725 51.6057 53.0159 51.8661 52.7127 52.054L52.9762 52.479L53.2396 52.904C53.6866 52.6269 54.0517 52.2489 54.336 51.7811L53.9087 51.5215ZM52.9762 52.479L52.7127 52.054L52.5447 52.1582L52.8081 52.5832L53.0715 53.0082L53.2396 52.904L52.9762 52.479ZM52.8081 52.5832L52.5447 52.1582L52.3766 52.2624L52.64 52.6874L52.9035 53.1123L53.0715 53.0082L52.8081 52.5832ZM52.64 52.6874L52.3766 52.2624C52.0811 52.4456 51.7373 52.5504 51.3327 52.5679L51.3543 53.0675L51.376 53.567C51.9355 53.5427 52.4488 53.3941 52.9035 53.1123L52.64 52.6874ZM51.3543 53.0675L51.3327 52.5679L51.1167 52.5773L51.1383 53.0768L51.16 53.5764L51.376 53.567L51.3543 53.0675ZM51.1383 53.0768L51.1167 52.5773L50.9007 52.5867L50.9224 53.0862L50.944 53.5857L51.16 53.5764L51.1383 53.0768ZM50.9224 53.0862L50.9007 52.5867C50.3037 52.6125 49.7796 52.8275 49.3563 53.2351L49.7031 53.5952L50.0499 53.9554C50.2882 53.7261 50.5769 53.6016 50.944 53.5857L50.9224 53.0862ZM49.7031 53.5952L49.3563 53.2351L49.2081 53.3778L49.5549 53.7379L49.9017 54.0981L50.0499 53.9554L49.7031 53.5952ZM49.5549 53.7379L49.2081 53.3778L49.0599 53.5205L49.4067 53.8806L49.7535 54.2408L49.9017 54.0981L49.5549 53.7379ZM49.4067 53.8806L49.0599 53.5205C48.9695 53.6075 48.8784 53.6483 48.7753 53.6602C48.6636 53.673 48.5057 53.6548 48.2888 53.5669L48.101 54.0303L47.9132 54.4937C48.236 54.6245 48.5656 54.6907 48.8892 54.6537C49.2213 54.6156 49.5132 54.4722 49.7535 54.2408L49.4067 53.8806ZM48.101 54.0303L48.2888 53.5669L48.0469 53.4689L47.8592 53.9323L47.6714 54.3957L47.9132 54.4937L48.101 54.0303ZM47.8592 53.9323L48.0469 53.4689L47.8051 53.3709L47.6174 53.8343L47.4296 54.2978L47.6714 54.3957L47.8592 53.9323ZM47.6174 53.8343L47.8051 53.3709C47.1728 53.1147 46.5388 53.0848 45.9937 53.4312L46.2618 53.8532L46.53 54.2752C46.7127 54.1591 46.9824 54.1166 47.4296 54.2978L47.6174 53.8343ZM46.2618 53.8532L45.9937 53.4312L45.8306 53.5348L46.0988 53.9568L46.3669 54.3788L46.53 54.2752L46.2618 53.8532ZM46.0988 53.9568L45.8306 53.5348L45.6675 53.6384L45.9357 54.0604L46.2038 54.4824L46.3669 54.3788L46.0988 53.9568ZM45.9357 54.0604L45.6675 53.6384C45.1854 53.9447 44.8061 54.4813 44.4964 55.1585L44.9511 55.3664L45.4058 55.5744C45.681 54.9727 45.958 54.6386 46.2038 54.4824L45.9357 54.0604ZM44.9511 55.3664L44.4964 55.1585L44.3654 55.445L44.8201 55.6529L45.2748 55.8609L45.4058 55.5744L44.9511 55.3664ZM44.8201 55.6529L44.3654 55.445L44.2344 55.7315L44.6891 55.9394L45.1438 56.1473L45.2748 55.8609L44.8201 55.6529ZM44.6891 55.9394L44.2344 55.7315C44.1091 56.0054 43.9983 56.1025 43.9418 56.1323C43.9128 56.1476 43.8583 56.1703 43.7182 56.1065L43.5108 56.5615L43.3035 57.0165C43.6565 57.1773 44.0449 57.2087 44.4087 57.0166C44.745 56.8391 44.9767 56.5128 45.1438 56.1473L44.6891 55.9394ZM43.5108 56.5615L43.7182 56.1065L43.4972 56.0058L43.2899 56.4608L43.0826 56.9158L43.3035 57.0165L43.5108 56.5615ZM43.2899 56.4608L43.4972 56.0058L43.2763 55.9051L43.069 56.3601L42.8617 56.8151L43.0826 56.9158L43.2899 56.4608ZM43.069 56.3601L43.2763 55.9051C42.7541 55.6672 42.2478 55.4981 41.7585 55.4035L41.6636 55.8944L41.5687 56.3853C41.967 56.4623 42.3976 56.6037 42.8617 56.8151L43.069 56.3601ZM41.6636 55.8944L41.7585 55.4035L41.5596 55.365L41.4647 55.8559L41.3698 56.3469L41.5687 56.3853L41.6636 55.8944ZM41.4647 55.8559L41.5596 55.365L41.3608 55.3266L41.2659 55.8175L41.171 56.3084L41.3698 56.3469L41.4647 55.8559ZM41.2659 55.8175L41.3608 55.3266C40.7317 55.205 40.1502 55.4179 39.6461 55.8578L39.9749 56.2345L40.3037 56.6112C40.6333 56.3236 40.9124 56.2584 41.171 56.3084L41.2659 55.8175ZM39.9749 56.2345L39.6461 55.8578L39.4593 56.0209L39.7881 56.3976L40.1169 56.7742L40.3037 56.6112L39.9749 56.2345ZM39.7881 56.3976L39.4593 56.0209L39.2726 56.1839L39.6014 56.5606L39.9302 56.9373L40.1169 56.7742L39.7881 56.3976ZM39.6014 56.5606L39.2726 56.1839C39.1308 56.3076 39.0401 56.323 38.9896 56.3209C38.9331 56.3186 38.8253 56.29 38.6618 56.1402L38.3241 56.5089L37.9863 56.8775C38.2575 57.126 38.58 57.3052 38.9492 57.3201C39.3245 57.3353 39.6551 57.1773 39.9302 56.9373L39.6014 56.5606ZM38.3241 56.5089L38.6618 56.1402L38.467 55.9618L38.1293 56.3304L37.7915 56.6991L37.9863 56.8775L38.3241 56.5089ZM38.1293 56.3304L38.467 55.9618L38.2723 55.7833L37.9345 56.152L37.5967 56.5207L37.7915 56.6991L38.1293 56.3304ZM37.9345 56.152L38.2723 55.7833C37.7808 55.3331 37.2347 55.0549 36.6418 55.0587L36.6451 55.5587L36.6483 56.0587C36.9052 56.057 37.2188 56.1744 37.5967 56.5207L37.9345 56.152ZM36.6451 55.5587L36.6418 55.0587L36.4514 55.06L36.4547 55.56L36.4579 56.0599L36.6483 56.0587L36.6451 55.5587ZM36.4547 55.56L36.4514 55.06L36.261 55.0612L36.2643 55.5612L36.2675 56.0612L36.4579 56.0599L36.4547 55.56ZM36.2643 55.5612L36.261 55.0612C35.8992 55.0636 35.5452 54.9994 35.1961 54.8668L35.0185 55.3342L34.841 55.8017C35.3031 55.9772 35.7796 56.0644 36.2675 56.0612L36.2643 55.5612ZM35.0185 55.3342L35.1961 54.8668L35.0143 54.7978L34.8368 55.2652L34.6592 55.7326L34.841 55.8017L35.0185 55.3342ZM34.8368 55.2652L35.0143 54.7978L34.8326 54.7288L34.6551 55.1962L34.4775 55.6636L34.6592 55.7326L34.8368 55.2652ZM34.6551 55.1962L34.8326 54.7288C34.3711 54.5535 33.8939 54.465 33.4038 54.4648L33.4036 54.9648L33.4033 55.4648C33.7707 55.465 34.1279 55.5308 34.4775 55.6636L34.6551 55.1962ZM33.4036 54.9648L33.4038 54.4648L33.2117 54.4647L33.2115 54.9647L33.2112 55.4647L33.4033 55.4648L33.4036 54.9648ZM33.2115 54.9647L33.2117 54.4647L33.0196 54.4646L33.0194 54.9646L33.0191 55.4646L33.2112 55.4647L33.2115 54.9647ZM33.0194 54.9646L33.0196 54.4646C32.6299 54.4644 32.2491 54.4191 31.8762 54.3288L31.7586 54.8148L31.6409 55.3007C32.0916 55.4098 32.5513 55.4644 33.0191 55.4646L33.0194 54.9646ZM31.7586 54.8148L31.8762 54.3288L31.6917 54.2841L31.574 54.7701L31.4564 55.256L31.6409 55.3007L31.7586 54.8148ZM31.574 54.7701L31.6917 54.2841L31.5072 54.2394L31.3895 54.7254L31.2719 55.2114L31.4564 55.256L31.574 54.7701ZM31.3895 54.7254L31.5072 54.2394C31.007 54.1184 30.4761 54.1309 29.9243 54.258L30.0365 54.7452L30.1487 55.2324C30.5773 55.1337 30.9484 55.1331 31.2719 55.2114L31.3895 54.7254ZM30.0365 54.7452L29.9243 54.258L29.7047 54.3085L29.8169 54.7958L29.9291 55.283L30.1487 55.2324L30.0365 54.7452ZM29.8169 54.7958L29.7047 54.3085L29.485 54.3591L29.5972 54.8464L29.7094 55.3336L29.9291 55.283L29.8169 54.7958ZM29.5972 54.8464L29.485 54.3591C29.1087 54.4458 28.8193 54.391 28.5743 54.2313L28.3012 54.6501L28.0281 55.069C28.5307 55.3967 29.1053 55.4727 29.7094 55.3336L29.5972 54.8464ZM28.3012 54.6501L28.5743 54.2313L28.4068 54.1221L28.1337 54.5409L27.8606 54.9598L28.0281 55.069L28.3012 54.6501ZM28.1337 54.5409L28.4068 54.1221L28.2393 54.0129L27.9662 54.4317L27.6931 54.8506L27.8606 54.9598L28.1337 54.5409ZM27.9662 54.4317L28.2393 54.0129C27.7624 53.7019 27.212 53.5785 26.6142 53.6203L26.6491 54.119L26.684 54.6178C27.0947 54.5891 27.4225 54.6741 27.6931 54.8506L27.9662 54.4317ZM26.6491 54.119L26.6142 53.6203L26.3883 53.6361L26.4231 54.1348L26.458 54.6336L26.684 54.6178L26.6491 54.119ZM26.4231 54.1348L26.3883 53.6361L26.1623 53.6519L26.1972 54.1506L26.2321 54.6494L26.458 54.6336L26.4231 54.1348ZM26.1972 54.1506L26.1623 53.6519C26.0238 53.6615 25.9544 53.6275 25.9049 53.5833C25.842 53.5271 25.7574 53.4034 25.6936 53.1465L25.2083 53.267L24.723 53.3874C24.8143 53.7549 24.972 54.0907 25.2386 54.329C25.5188 54.5794 25.8664 54.675 26.2321 54.6494L26.1972 54.1506ZM25.2083 53.267L25.6936 53.1465L25.6241 52.8668L25.1389 52.9872L24.6536 53.1077L24.723 53.3874L25.2083 53.267ZM25.1389 52.9872L25.6241 52.8668L25.5547 52.587L25.0694 52.7075L24.5842 52.8279L24.6536 53.1077L25.1389 52.9872ZM25.0694 52.7075L25.5547 52.587C25.4595 52.2033 25.2724 51.8488 24.9307 51.6369C24.586 51.4232 24.1865 51.4178 23.8046 51.513L23.9256 51.9981L24.0465 52.4833C24.2722 52.427 24.3671 52.4641 24.4037 52.4868C24.4433 52.5113 24.5244 52.5873 24.5842 52.8279L25.0694 52.7075ZM23.9256 51.9981L23.8046 51.513L23.5324 51.5808L23.6533 52.066L23.7743 52.5511L24.0465 52.4833L23.9256 51.9981ZM23.6533 52.066L23.5324 51.5808L23.2601 51.6487L23.3811 52.1338L23.502 52.619L23.7743 52.5511L23.6533 52.066ZM23.3811 52.1338L23.2601 51.6487C23.0198 51.7086 22.9103 51.6778 22.8693 51.6567C22.84 51.6417 22.7759 51.5969 22.7256 51.4164L22.244 51.5506L21.7623 51.6847C21.8625 52.0445 22.0632 52.3671 22.4129 52.5465C22.7509 52.7199 23.1347 52.7106 23.502 52.619L23.3811 52.1338ZM22.244 51.5506L22.7256 51.4164L22.6582 51.1743L22.1765 51.3085L21.6949 51.4426L21.7623 51.6847L22.244 51.5506ZM22.1765 51.3085L22.6582 51.1743L22.5908 50.9322L22.1091 51.0664L21.6275 51.2005L21.6949 51.4426L22.1765 51.3085ZM22.1091 51.0664L22.5908 50.9322C22.4958 50.5911 22.3296 50.2883 22.0682 50.0634C21.8046 49.8367 21.482 49.7218 21.1328 49.6936L21.0925 50.192L21.0523 50.6904C21.2303 50.7048 21.3408 50.7569 21.4161 50.8216C21.4935 50.8882 21.572 51.0013 21.6275 51.2005L22.1091 51.0664ZM21.0925 50.192L21.1328 49.6936L20.8965 49.6745L20.8563 50.1729L20.816 50.6713L21.0523 50.6904L21.0925 50.192ZM20.8563 50.1729L20.8965 49.6745L20.6603 49.6555L20.62 50.1539L20.5798 50.6522L20.816 50.6713L20.8563 50.1729ZM20.62 50.1539L20.6603 49.6555C20.2775 49.6246 20.0729 49.4768 19.9476 49.2371L19.5045 49.4686L19.0613 49.7002C19.369 50.289 19.908 50.598 20.5798 50.6522L20.62 50.1539ZM19.5045 49.4686L19.9476 49.2371L19.8506 49.0515L19.4075 49.2831L18.9643 49.5146L19.0613 49.7002L19.5045 49.4686ZM19.4075 49.2831L19.8506 49.0515L19.7537 48.8659L19.3105 49.0975L18.8674 49.329L18.9643 49.5146L19.4075 49.2831ZM19.3105 49.0975L19.7537 48.8659C19.5718 48.5178 19.4535 48.1053 19.4083 47.6195L18.9105 47.6658L18.4126 47.7121C18.4679 48.3068 18.6164 48.8487 18.8674 49.329L19.3105 49.0975ZM18.9105 47.6658L19.4083 47.6195L19.3858 47.3774L18.8879 47.4238L18.3901 47.4701L18.4126 47.7121L18.9105 47.6658ZM18.8879 47.4238L19.3858 47.3774L19.3633 47.1354L18.8654 47.1817L18.3676 47.2281L18.3901 47.4701L18.8879 47.4238ZM18.8654 47.1817L19.3633 47.1354C19.3045 46.5038 19.0784 45.9604 18.6307 45.5804L18.3072 45.9617L17.9836 46.3429C18.1797 46.5093 18.3258 46.7793 18.3676 47.2281L18.8654 47.1817ZM18.3072 45.9617L18.6307 45.5804L18.4865 45.458L18.163 45.8392L17.8394 46.2205L17.9836 46.3429L18.3072 45.9617ZM18.163 45.8392L18.4865 45.458L18.3423 45.3356L18.0187 45.7168L17.6952 46.0981L17.8394 46.2205L18.163 45.8392ZM18.0187 45.7168L18.3423 45.3356C18.044 45.0825 17.7729 44.8051 17.5288 44.5034L17.1401 44.818L16.7514 45.1325C17.035 45.4829 17.3497 45.8049 17.6952 46.0981L18.0187 45.7168ZM17.1401 44.818L17.5288 44.5034L17.4105 44.3574L17.0219 44.6719L16.6332 44.9865L16.7514 45.1325L17.1401 44.818ZM17.0219 44.6719L17.4105 44.3574L17.2923 44.2113L16.9036 44.5258L16.515 44.8404L16.6332 44.9865L17.0219 44.6719ZM16.9036 44.5258L17.2923 44.2113C17.0064 43.858 16.68 43.5302 16.3144 43.2274L15.9955 43.6125L15.6766 43.9977C15.9941 44.2605 16.2731 44.5415 16.515 44.8404L16.9036 44.5258ZM15.9955 43.6125L16.3144 43.2274L16.1614 43.1007L15.8425 43.4858L15.5236 43.871L15.6766 43.9977L15.9955 43.6125ZM15.8425 43.4858L16.1614 43.1007L16.0084 42.974L15.6895 43.3591L15.3706 43.7442L15.5236 43.871L15.8425 43.4858ZM15.6895 43.3591L16.0084 42.974C15.7575 42.7663 15.6055 42.5089 15.5439 42.1827L15.0526 42.2755L14.5613 42.3683C14.6658 42.9213 14.9384 43.3864 15.3706 43.7442L15.6895 43.3591ZM15.0526 42.2755L15.5439 42.1827L15.5067 41.9857L15.0154 42.0785L14.5241 42.1713L14.5613 42.3683L15.0526 42.2755ZM15.0154 42.0785L15.5067 41.9857L15.4695 41.7887L14.9782 41.8815L14.4869 41.9743L14.5241 42.1713L15.0154 42.0785ZM14.9782 41.8815L15.4695 41.7887C15.3475 41.1429 14.8998 40.6973 14.2739 40.4265L14.0754 40.8854L13.8769 41.3443C14.2885 41.5224 14.4427 41.7408 14.4869 41.9743L14.9782 41.8815ZM14.0754 40.8854L14.2739 40.4265L14.0415 40.326L13.843 40.7849L13.6445 41.2438L13.8769 41.3443L14.0754 40.8854ZM13.843 40.7849L14.0415 40.326L13.8091 40.2254L13.6105 40.6843L13.412 41.1432L13.6445 41.2438L13.843 40.7849ZM13.6105 40.6843L13.8091 40.2254C13.6265 40.1464 13.5808 40.0719 13.567 40.0377C13.5516 39.9998 13.5316 39.9027 13.608 39.6977L13.1394 39.5232L12.6708 39.3487C12.5425 39.6934 12.4987 40.0647 12.6404 40.4137C12.7836 40.7667 13.0759 40.9978 13.412 41.1432L13.6105 40.6843ZM13.1394 39.5232L13.608 39.6977L13.6997 39.4515L13.2311 39.277L12.7626 39.1025L12.6708 39.3487L13.1394 39.5232ZM13.2311 39.277L13.6997 39.4515L13.7914 39.2052L13.3228 39.0307L12.8543 38.8562L12.7626 39.1025L13.2311 39.277ZM13.3228 39.0307L13.7914 39.2052C13.9242 38.8486 13.9567 38.468 13.7979 38.1112C13.6416 37.7602 13.3397 37.5218 12.9911 37.3611L12.7817 37.8152L12.5724 38.2692C12.7892 38.3692 12.8602 38.4638 12.8843 38.5179C12.9058 38.5663 12.9261 38.6632 12.8543 38.8562L13.3228 39.0307ZM12.7817 37.8152L12.9911 37.3611L12.7378 37.2443L12.5284 37.6983L12.319 38.1524L12.5724 38.2692L12.7817 37.8152ZM12.5284 37.6983L12.7378 37.2443L12.4844 37.1275L12.2751 37.5815L12.0657 38.0356L12.319 38.1524L12.5284 37.6983ZM12.2751 37.5815L12.4844 37.1275C11.9716 36.891 11.6085 36.6126 11.3672 36.3059L10.9743 36.615L10.5813 36.9241C10.9435 37.3847 11.4477 37.7506 12.0657 38.0356L12.2751 37.5815ZM10.9743 36.615L11.3672 36.3059L11.232 36.1339L10.839 36.4431L10.446 36.7522L10.5813 36.9241L10.9743 36.615ZM10.839 36.4431L11.232 36.1339L11.0968 35.9621L10.7038 36.2712L10.3108 36.5803L10.446 36.7522L10.839 36.4431ZM10.7038 36.2712L11.0968 35.9621C10.8813 35.688 10.8079 35.3996 10.8645 35.0625L10.3714 34.9797L9.87834 34.8968C9.77458 35.5144 9.92279 36.087 10.3108 36.5803L10.7038 36.2712ZM10.3714 34.9797L10.8645 35.0625L10.9005 34.8486L10.4074 34.7658L9.91427 34.683L9.87834 34.8968L10.3714 34.9797ZM10.4074 34.7658L10.9005 34.8486L10.9364 34.6348L10.4433 34.5519L9.9502 34.4691L9.91427 34.683L10.4074 34.7658ZM10.4433 34.5519L10.9364 34.6348C11.0165 34.1578 11.0955 33.691 11.1732 33.2345L10.6803 33.1506L10.1874 33.0666C10.1095 33.5239 10.0305 33.9914 9.9502 34.4691L10.4433 34.5519ZM10.6803 33.1506L11.1732 33.2345L11.2081 33.0298L10.7152 32.9459L10.2223 32.8619L10.1874 33.0666L10.6803 33.1506ZM10.7152 32.9459L11.2081 33.0298L11.243 32.8251L10.7501 32.7412L10.2572 32.6572L10.2223 32.8619L10.7152 32.9459ZM10.7501 32.7412L11.243 32.8251C11.3234 32.3529 11.3798 31.8889 11.4119 31.4331L10.9132 31.3979L10.4144 31.3628C10.3847 31.7842 10.3324 32.2156 10.2572 32.6572L10.7501 32.7412ZM10.9132 31.3979L11.4119 31.4331L11.4258 31.2366L10.927 31.2014L10.4282 31.1663L10.4144 31.3628L10.9132 31.3979ZM10.927 31.2014L11.4258 31.2366L11.4396 31.04L10.9408 31.0049L10.4421 30.9698L10.4282 31.1663L10.927 31.2014ZM10.9408 31.0049L11.4396 31.04C11.4714 30.5885 11.4853 30.1398 11.4813 29.694L10.9814 29.6985L10.4814 29.7029C10.4851 30.1219 10.472 30.5442 10.4421 30.9698L10.9408 31.0049ZM10.9814 29.6985L11.4813 29.694L11.4796 29.5003L10.9796 29.5047L10.4796 29.5092L10.4814 29.7029L10.9814 29.6985ZM10.9796 29.5047L11.4796 29.5003L11.4779 29.3065L10.9779 29.311L10.4779 29.3155L10.4796 29.5092L10.9796 29.5047ZM10.9779 29.311L11.4779 29.3065C11.4751 28.9987 11.5774 28.6783 11.8241 28.3367L11.4188 28.044L11.0135 27.7512C10.6646 28.2342 10.4729 28.7586 10.4779 29.3155L10.9779 29.311ZM11.4188 28.044L11.8241 28.3367L11.9576 28.152L11.5522 27.8592L11.1469 27.5665L11.0135 27.7512L11.4188 28.044ZM11.5522 27.8592L11.9576 28.152L12.091 27.9673L11.6857 27.6745L11.2804 27.3817L11.1469 27.5665L11.5522 27.8592ZM11.6857 27.6745L12.091 27.9673C12.2984 27.6802 12.4096 27.3512 12.3801 26.9946C12.3514 26.6474 12.194 26.3297 11.9683 26.0456L11.5768 26.3566L11.1853 26.6676C11.3301 26.8499 11.3759 26.9849 11.3835 27.077C11.3904 27.1597 11.3708 27.2565 11.2804 27.3817L11.6857 27.6745ZM11.5768 26.3566L11.9683 26.0456L11.8024 25.8367L11.4109 26.1477L11.0194 26.4587L11.1853 26.6676L11.5768 26.3566ZM11.4109 26.1477L11.8024 25.8367L11.6364 25.6278L11.2449 25.9388L10.8534 26.2498L11.0194 26.4587L11.4109 26.1477ZM11.2449 25.9388L11.6364 25.6278C11.3018 25.2066 11.1038 24.806 11.0177 24.4261L10.5301 24.5366L10.0424 24.6471C10.1687 25.2042 10.4473 25.7385 10.8534 26.2498L11.2449 25.9388ZM10.5301 24.5366L11.0177 24.4261L10.9701 24.2162L10.4825 24.3267L9.99484 24.4372L10.0424 24.6471L10.5301 24.5366ZM10.4825 24.3267L10.9701 24.2162L10.9225 24.0062L10.4349 24.1168L9.94727 24.2273L9.99484 24.4372L10.4825 24.3267ZM10.4349 24.1168L10.9225 24.0062C10.8524 23.6968 10.9149 23.4296 11.1397 23.1613L10.7564 22.8402L10.3732 22.519C9.95692 23.0158 9.80503 23.5997 9.94727 24.2273L10.4349 24.1168ZM10.7564 22.8402L11.1397 23.1613L11.2833 22.9899L10.9001 22.6688L10.5168 22.3476L10.3732 22.519L10.7564 22.8402ZM10.9001 22.6688L11.2833 22.9899L11.4269 22.8185L11.0437 22.4974L10.6604 22.1762L10.5168 22.3476L10.9001 22.6688ZM11.0437 22.4974L11.4269 22.8185C11.8343 22.3323 12.0075 21.7618 11.9257 21.1379L11.43 21.2029L10.9342 21.2679C10.9784 21.6049 10.8941 21.8974 10.6604 22.1762L11.0437 22.4974ZM11.43 21.2029L11.9257 21.1379L11.8975 20.9226L11.4018 20.9876L10.906 21.0526L10.9342 21.2679L11.43 21.2029ZM11.4018 20.9876L11.8975 20.9226L11.8693 20.7073L11.3735 20.7723L10.8778 20.8373L10.906 21.0526L11.4018 20.9876ZM11.3735 20.7723L11.8693 20.7073C11.8491 20.5531 11.871 20.4346 11.9193 20.3352C11.9691 20.2326 12.062 20.1195 12.2298 20.004L11.9462 19.5922L11.6627 19.1804C11.3856 19.3711 11.1607 19.6078 11.0196 19.8986C10.877 20.1926 10.835 20.5111 10.8778 20.8373L11.3735 20.7723ZM11.9462 19.5922L12.2298 20.004L12.4291 19.8668L12.1455 19.455L11.862 19.0431L11.6627 19.1804L11.9462 19.5922ZM12.1455 19.455L12.4291 19.8668L12.6284 19.7296L12.3448 19.3177L12.0613 18.9059L11.862 19.0431L12.1455 19.455ZM12.3448 19.3177L12.6284 19.7296C13.2061 19.3318 13.5056 18.764 13.4443 18.0709L12.9462 18.1151L12.4482 18.1592C12.4745 18.4571 12.3732 18.6912 12.0613 18.9059L12.3448 19.3177ZM12.9462 18.1151L13.4443 18.0709L13.4246 17.8489L12.9265 17.893L12.4285 17.9372L12.4482 18.1592L12.9462 18.1151ZM12.9265 17.893L13.4246 17.8489L13.4049 17.6269L12.9069 17.671L12.4088 17.7151L12.4285 17.9372L12.9265 17.893ZM12.9069 17.671L13.4049 17.6269C13.3906 17.465 13.42 17.3549 13.4678 17.2725C13.5172 17.1875 13.6093 17.0928 13.783 17.0028L13.553 16.5589L13.323 16.1149C13.022 16.2708 12.7691 16.4845 12.6032 16.7702C12.4356 17.0585 12.3793 17.3815 12.4088 17.7151L12.9069 17.671ZM13.553 16.5589L13.783 17.0028L13.9957 16.8926L13.7656 16.4487L13.5356 16.0047L13.323 16.1149L13.553 16.5589ZM13.7656 16.4487L13.9957 16.8926L14.2083 16.7824L13.9783 16.3385L13.7483 15.8945L13.5356 16.0047L13.7656 16.4487ZM13.9783 16.3385L14.2083 16.7824C14.7382 16.5079 15.1661 16.1589 15.4623 15.7229L15.0487 15.4419L14.6351 15.161C14.4533 15.4286 14.1677 15.6772 13.7483 15.8945L13.9783 16.3385ZM15.0487 15.4419L15.4623 15.7229L15.5693 15.5653L15.1557 15.2843L14.7421 15.0034L14.6351 15.161L15.0487 15.4419ZM15.1557 15.2843L15.5693 15.5653L15.6764 15.4076L15.2628 15.1267L14.8492 14.8458L14.7421 15.0034L15.1557 15.2843ZM15.2628 15.1267L15.6764 15.4076C15.9699 14.9755 16.1351 14.4707 16.1866 13.9098L15.6887 13.8641L15.1908 13.8184C15.1523 14.2374 15.0336 14.5743 14.8492 14.8458L15.2628 15.1267ZM15.6887 13.8641L16.1866 13.9098L16.2068 13.6903L15.7089 13.6446L15.211 13.5988L15.1908 13.8184L15.6887 13.8641ZM15.7089 13.6446L16.2068 13.6903L16.227 13.4708L15.7291 13.425L15.2312 13.3793L15.211 13.5988L15.7089 13.6446ZM15.7291 13.425L16.227 13.4708C16.2721 12.9791 16.3165 12.4669 16.3601 11.9343L15.8618 11.8935L15.3634 11.8527C15.3201 12.3823 15.276 12.8911 15.2312 13.3793L15.7291 13.425ZM15.8618 11.8935L16.3601 11.9343L16.3796 11.6963L15.8813 11.6555L15.3829 11.6147L15.3634 11.8527L15.8618 11.8935ZM15.8813 11.6555L16.3796 11.6963L16.3991 11.4583L15.9007 11.4176L15.4024 11.3768L15.3829 11.6147L15.8813 11.6555ZM15.9007 11.4176L16.3991 11.4583C16.433 11.0434 16.5831 10.775 16.8198 10.5914L16.5133 10.1963L16.2069 9.80124C15.7137 10.1838 15.4554 10.7295 15.4024 11.3768L15.9007 11.4176ZM16.5133 10.1963L16.8198 10.5914L16.9833 10.4646L16.6768 10.0695L16.3704 9.67442L16.2069 9.80124L16.5133 10.1963ZM16.6768 10.0695L16.9833 10.4646L17.1468 10.3378L16.8404 9.94267L16.5339 9.54759L16.3704 9.67442L16.6768 10.0695ZM16.8404 9.94267L17.1468 10.3378C17.3933 10.1465 17.7671 10.025 18.3273 10.0352L18.3363 9.53528L18.3454 9.03536C17.6408 9.02259 17.0173 9.17269 16.5339 9.54759L16.8404 9.94267ZM18.3363 9.53528L18.3273 10.0352L18.6106 10.0403L18.6197 9.54042L18.6287 9.0405L18.3454 9.03536L18.3363 9.53528ZM18.6197 9.54042L18.6106 10.0403L18.8939 10.0455L18.903 9.54556L18.9121 9.04564L18.6287 9.0405L18.6197 9.54042ZM18.903 9.54556L18.8939 10.0455C19.2886 10.0526 19.6773 9.95957 19.9678 9.67862C20.2575 9.39846 20.365 9.01304 20.3746 8.61786L19.8747 8.60577L19.3749 8.59368C19.369 8.83649 19.3069 8.9267 19.2726 8.9598C19.2392 8.99211 19.1498 9.04995 18.9121 9.04564L18.903 9.54556ZM19.8747 8.60577L20.3746 8.61786L20.3815 8.33201L19.8816 8.31991L19.3818 8.30782L19.3749 8.59368L19.8747 8.60577ZM19.8816 8.31991L20.3815 8.33201L20.3884 8.04615L19.8886 8.03406L19.3887 8.02197L19.3818 8.30782L19.8816 8.31991ZM19.8886 8.03406L20.3884 8.04615C20.3913 7.92855 20.4092 7.85981 20.4241 7.82428C20.4311 7.8076 20.4367 7.79975 20.4388 7.79712C20.4406 7.79485 20.4413 7.79454 20.4415 7.79435C20.4416 7.79429 20.5267 7.74234 20.8206 7.81428L20.9395 7.32861L21.0584 6.84295C20.6671 6.74719 20.2344 6.72896 19.8842 6.96406C19.5155 7.21159 19.3983 7.62753 19.3887 8.02197L19.8886 8.03406ZM20.9395 7.32861L20.8206 7.81428L21.1276 7.88941L21.2465 7.40375L21.3654 6.91808L21.0584 6.84295L20.9395 7.32861ZM21.2465 7.40375L21.1276 7.88941L21.4346 7.96455L21.5535 7.47888L21.6723 6.99322L21.3654 6.91808L21.2465 7.40375ZM21.5535 7.47888L21.4346 7.96455C22.1767 8.14616 22.9041 8.11722 23.3862 7.60225L23.0212 7.26052L22.6562 6.91879C22.5518 7.03036 22.3007 7.14699 21.6723 6.99322L21.5535 7.47888ZM23.0212 7.26052L23.3862 7.60225L23.5176 7.46189L23.1526 7.12016L22.7876 6.77843L22.6562 6.91879L23.0212 7.26052ZM23.1526 7.12016L23.5176 7.46189L23.649 7.32152L23.284 6.97979L22.9191 6.63806L22.7876 6.77843L23.1526 7.12016ZM23.284 6.97979L23.649 7.32152C23.999 6.94774 24.2722 6.46891 24.4807 5.90473L24.0116 5.73143L23.5426 5.55813C23.3676 6.03189 23.1557 6.38531 22.9191 6.63806L23.284 6.97979ZM24.0116 5.73143L24.4807 5.90473L24.5666 5.6722L24.0976 5.4989L23.6286 5.3256L23.5426 5.55813L24.0116 5.73143ZM24.0976 5.4989L24.5666 5.6722L24.6525 5.43967L24.1835 5.26637L23.7145 5.09307L23.6286 5.3256L24.0976 5.4989ZM24.1835 5.26637L24.6525 5.43967C24.7248 5.24392 24.8103 5.13751 24.887 5.07895C24.9593 5.02373 25.058 4.98466 25.2115 4.98381L25.2087 4.48382L25.206 3.98382C24.8677 3.9857 24.5496 4.07843 24.2803 4.28405C24.0152 4.48635 23.8339 4.76986 23.7145 5.09307L24.1835 5.26637ZM25.2087 4.48382L25.2115 4.98381L25.4318 4.98258L25.4291 4.48259L25.4263 3.9826L25.206 3.98382L25.2087 4.48382ZM25.4291 4.48259L25.4318 4.98258L25.6522 4.98136L25.6494 4.48137L25.6466 3.98138L25.4263 3.9826L25.4291 4.48259ZM25.6494 4.48137L25.6522 4.98136C26.202 4.97831 26.7132 4.88044 27.1774 4.6778L26.9774 4.21956L26.7774 3.76131C26.4544 3.9023 26.0802 3.97897 25.6466 3.98138L25.6494 4.48137ZM26.9774 4.21956L27.1774 4.6778L27.3538 4.60082L27.1537 4.14258L26.9537 3.68433L26.7774 3.76131L26.9774 4.21956ZM27.1537 4.14258L27.3538 4.60082L27.5301 4.52384L27.3301 4.0656L27.1301 3.60735L26.9537 3.68433L27.1537 4.14258ZM27.3301 4.0656L27.5301 4.52384C28.0711 4.2877 28.4732 3.81411 28.77 3.2022L28.3202 2.98397L27.8703 2.76574C27.6342 3.25238 27.3763 3.49987 27.1301 3.60735L27.3301 4.0656ZM28.3202 2.98397L28.77 3.2022L28.8894 2.9561L28.4396 2.73787L27.9897 2.51964L27.8703 2.76574L28.3202 2.98397ZM28.4396 2.73787L28.8894 2.9561L29.0088 2.71L28.559 2.49177L28.1091 2.27354L27.9897 2.51964L28.4396 2.73787ZM28.559 2.49177L29.0088 2.71C29.2312 2.25149 29.48 2.07994 29.7235 2.0349L29.6326 1.54324L29.5417 1.05157C28.8866 1.1727 28.4196 1.6335 28.1091 2.27354L28.559 2.49177ZM29.6326 1.54324L29.7235 2.0349L29.9249 1.99768L29.834 1.50601L29.7431 1.01434L29.5417 1.05157L29.6326 1.54324ZM29.834 1.50601L29.9249 1.99768L30.1262 1.96045L30.0353 1.46878L29.9444 0.977119L29.7431 1.01434L29.834 1.50601ZM30.0353 1.46878L30.1262 1.96045C30.5912 1.87447 31.0496 1.76675 31.5012 1.63728L31.3634 1.15664L31.2256 0.676003C30.8051 0.796556 30.378 0.896935 29.9444 0.977119L30.0353 1.46878ZM31.3634 1.15664L31.5012 1.63728L31.6965 1.58127L31.5588 1.10063L31.421 0.61999L31.2256 0.676003L31.3634 1.15664ZM31.5588 1.10063L31.6965 1.58127L31.8919 1.52525L31.7541 1.04462L31.6163 0.563978L31.421 0.61999L31.5588 1.10063ZM31.7541 1.04462L31.8919 1.52525C32.0459 1.4811 32.3471 1.51813 32.8532 2.04982L33.2154 1.70509L33.5776 1.36036C33.0074 0.761388 32.3344 0.35811 31.6163 0.563978L31.7541 1.04462ZM33.2154 1.70509L32.8532 2.04982L33.0943 2.30312L33.4565 1.95839L33.8187 1.61366L33.5776 1.36036L33.2154 1.70509ZM33.4565 1.95839L33.0943 2.30312L33.3354 2.55641L33.6976 2.21168L34.0598 1.86695L33.8187 1.61366L33.4565 1.95839ZM33.6976 2.21168L33.3354 2.55641C33.6342 2.87025 33.989 3.12735 34.3973 3.16563C34.8491 3.20797 35.2078 2.97337 35.4623 2.64867L35.0688 2.34019L34.6753 2.03172C34.5538 2.18667 34.496 2.17049 34.4907 2.16999C34.442 2.16543 34.2992 2.11845 34.0598 1.86695L33.6976 2.21168ZM35.0688 2.34019L35.4623 2.64867L35.6308 2.43376L35.2373 2.12528L34.8438 1.81681L34.6753 2.03172L35.0688 2.34019ZM35.2373 2.12528L35.6308 2.43376L35.7993 2.21885L35.4058 1.91037L35.0123 1.6019L34.8438 1.81681L35.2373 2.12528ZM35.4058 1.91037L35.7993 2.21885C36.1029 1.83151 36.329 1.79411 36.5135 1.83949L36.6329 1.35395L36.7523 0.868419C36.0527 0.696383 35.4607 1.02992 35.0123 1.6019L35.4058 1.91037ZM36.6329 1.35395L36.5135 1.83949L36.7116 1.8882L36.8309 1.40266L36.9503 0.917126L36.7523 0.868419L36.6329 1.35395ZM36.8309 1.40266L36.7116 1.8882L36.9096 1.9369L37.029 1.45137L37.1484 0.965833L36.9503 0.917126L36.8309 1.40266ZM37.029 1.45137L36.9096 1.9369C37.4774 2.07652 38.0409 1.99898 38.5796 1.72931L38.3558 1.28219L38.132 0.835079C37.7858 1.00839 37.4648 1.04363 37.1484 0.965833L37.029 1.45137ZM38.3558 1.28219L38.5796 1.72931L38.7779 1.63007L38.5541 1.18295L38.3303 0.735839L38.132 0.835079L38.3558 1.28219ZM38.5541 1.18295L38.7779 1.63007L38.9762 1.53083L38.7524 1.08371L38.5285 0.636599L38.3303 0.735839L38.5541 1.18295ZM38.7524 1.08371L38.9762 1.53083C39.3801 1.32861 39.7864 1.18979 40.1955 1.11165L40.1017 0.620522L40.008 0.129399C39.5029 0.225853 39.0095 0.395831 38.5285 0.636599L38.7524 1.08371ZM40.1017 0.620522L40.1955 1.11165L40.4004 1.07253L40.3066 0.581406L40.2128 0.0902834L40.008 0.129399L40.1017 0.620522ZM40.3066 0.581406L40.4004 1.07253L40.6052 1.03341L40.5114 0.542291L40.4176 0.0511676L40.2128 0.0902834L40.3066 0.581406ZM40.5114 0.542291L40.6052 1.03341C40.9643 0.964825 41.3066 1.00173 41.6448 1.14609L41.8411 0.686226L42.0374 0.226361C41.5169 0.00420928 40.9727 -0.0548466 40.4176 0.0511676L40.5114 0.542291ZM41.8411 0.686226L41.6448 1.14609L41.8372 1.2282L42.0335 0.768336L42.2297 0.308471L42.0374 0.226361L41.8411 0.686226ZM42.0335 0.768336L41.8372 1.2282L42.0296 1.31031L42.2258 0.850445L42.4221 0.39058L42.2297 0.308471L42.0335 0.768336ZM42.2258 0.850445L42.0296 1.31031C42.4163 1.47538 42.7868 1.69629 43.1413 1.97536L43.4506 1.58248L43.7599 1.1896C43.3401 0.859144 42.8941 0.592033 42.4221 0.39058L42.2258 0.850445ZM43.4506 1.58248L43.1413 1.97536L43.3148 2.11191L43.6241 1.71903L43.9334 1.32615L43.7599 1.1896L43.4506 1.58248ZM43.6241 1.71903L43.3148 2.11191L43.4883 2.24846L43.7975 1.85558L44.1068 1.4627L43.9334 1.32615L43.6241 1.71903ZM43.7975 1.85558L43.4883 2.24846C43.9619 2.62126 44.5 2.80767 45.0864 2.78079L45.0635 2.28131L45.0406 1.78184C44.7134 1.79684 44.4075 1.69943 44.1068 1.4627L43.7975 1.85558ZM45.0635 2.28131L45.0864 2.78079L45.291 2.7714L45.2681 2.27193L45.2452 1.77245L45.0406 1.78184L45.0635 2.28131ZM45.2681 2.27193L45.291 2.7714L45.4957 2.76202L45.4728 2.26254L45.4499 1.76307L45.2452 1.77245L45.2681 2.27193ZM45.4728 2.26254L45.4957 2.76202C45.9597 2.74074 46.437 2.70879 46.9277 2.66621L46.8845 2.16808L46.8413 1.66995C46.3633 1.71143 45.8995 1.74245 45.4499 1.76307L45.4728 2.26254ZM46.8845 2.16808L46.9277 2.66621L47.1447 2.64737L47.1015 2.14925L47.0583 1.65112L46.8413 1.66995L46.8845 2.16808ZM47.1015 2.14925L47.1447 2.64737L47.3618 2.62854L47.3185 2.13041L47.2753 1.63228L47.0583 1.65112L47.1015 2.14925ZM47.3185 2.13041L47.3618 2.62854C47.6868 2.60034 47.9434 2.69995 48.1738 2.9543L48.5444 2.61867L48.915 2.28303C48.4796 1.80232 47.919 1.57642 47.2753 1.63228L47.3185 2.13041ZM48.5444 2.61867L48.1738 2.9543L48.3229 3.11898L48.6935 2.78334L49.0641 2.44771L48.915 2.28303L48.5444 2.61867ZM48.6935 2.78334L48.3229 3.11898L48.472 3.28365L48.8426 2.94802L49.2132 2.61238L49.0641 2.44771L48.6935 2.78334ZM48.8426 2.94802L48.472 3.28365C48.8478 3.6986 49.2759 4.01384 49.7576 4.21585L49.951 3.75476L50.1443 3.29368C49.8139 3.1551 49.5032 2.93251 49.2132 2.61238L48.8426 2.94802ZM49.951 3.75476L49.7576 4.21585L49.9395 4.29215L50.1329 3.83106L50.3263 3.36998L50.1443 3.29368L49.951 3.75476ZM50.1329 3.83106L49.9395 4.29215L50.1214 4.36845L50.3148 3.90737L50.5082 3.44628L50.3263 3.36998L50.1329 3.83106ZM50.3148 3.90737L50.1214 4.36845C50.3761 4.47528 50.6021 4.69717 50.7736 5.1168L51.2365 4.92761L51.6993 4.73841C51.454 4.13831 51.0655 3.68004 50.5082 3.44628L50.3148 3.90737ZM51.2365 4.92761L50.7736 5.1168L50.867 5.34525L51.3299 5.15605L51.7927 4.96685L51.6993 4.73841L51.2365 4.92761ZM51.3299 5.15605L50.867 5.34525L50.9604 5.5737L51.4232 5.3845L51.8861 5.1953L51.7927 4.96685L51.3299 5.15605ZM51.4232 5.3845L50.9604 5.5737C51.2152 6.19685 51.6505 6.64257 52.2861 6.78531L52.3957 6.29746L52.5052 5.80961C52.2611 5.75479 52.0482 5.59188 51.8861 5.1953L51.4232 5.3845ZM52.3957 6.29746L52.2861 6.78531L52.4832 6.82956L52.5927 6.34171L52.7023 5.85386L52.5052 5.80961L52.3957 6.29746ZM52.5927 6.34171L52.4832 6.82956L52.6802 6.87382L52.7898 6.38597L52.8993 5.89812L52.7023 5.85386L52.5927 6.34171ZM52.7898 6.38597L52.6802 6.87382C53.0656 6.96035 53.4112 7.10424 53.7211 7.30389L53.9919 6.8836L54.2627 6.4633C53.8495 6.19699 53.3937 6.00913 52.8993 5.89812L52.7898 6.38597ZM53.9919 6.8836L53.7211 7.30389L53.8831 7.40828L54.1539 6.98798L54.4247 6.56769L54.2627 6.4633L53.9919 6.8836ZM54.1539 6.98798L53.8831 7.40828L54.0451 7.51267L54.3159 7.09237L54.5867 6.67207L54.4247 6.56769L54.1539 6.98798ZM54.3159 7.09237L54.0451 7.51267C54.3067 7.68125 54.5125 7.9338 54.6542 8.30007L55.1205 8.11962L55.5868 7.93918C55.3788 7.40174 55.0482 6.96945 54.5867 6.67207L54.3159 7.09237ZM55.1205 8.11962L54.6542 8.30007L54.7325 8.50252L55.1989 8.32208L55.6652 8.14164L55.5868 7.93918L55.1205 8.11962ZM55.1989 8.32208L54.7325 8.50252L54.8109 8.70498L55.2772 8.52453L55.7435 8.34409L55.6652 8.14164L55.1989 8.32208ZM55.2772 8.52453L54.8109 8.70498C55.0387 9.29376 55.4639 9.70239 56.0631 9.88843L56.2114 9.41091L56.3596 8.93339C56.063 8.84131 55.8654 8.65902 55.7435 8.34409L55.2772 8.52453ZM56.2114 9.41091L56.0631 9.88843L56.2638 9.95073L56.4121 9.47322L56.5603 8.9957L56.3596 8.93339L56.2114 9.41091ZM56.4121 9.47322L56.2638 9.95073L56.4645 10.013L56.6128 9.53552L56.761 9.05801L56.5603 8.9957L56.4121 9.47322ZM56.6128 9.53552L56.4645 10.013C56.7323 10.0962 56.8868 10.2573 56.9563 10.5694L57.4444 10.4606L57.9324 10.3518C57.789 9.70861 57.3891 9.25299 56.761 9.05801L56.6128 9.53552ZM57.4444 10.4606L56.9563 10.5694L57.0041 10.7834L57.4921 10.6747L57.9801 10.5659L57.9324 10.3518L57.4444 10.4606ZM57.4921 10.6747L57.0041 10.7834L57.0518 10.9975L57.5398 10.8887L58.0278 10.7799L57.9801 10.5659L57.4921 10.6747ZM57.5398 10.8887L57.0518 10.9975C57.1906 11.6202 57.5554 12.0886 58.1329 12.3478L58.3377 11.8916L58.5424 11.4354C58.269 11.3128 58.1019 11.1125 58.0278 10.7799L57.5398 10.8887ZM58.3377 11.8916L58.1329 12.3478L58.3236 12.4333L58.5283 11.9772L58.733 11.521L58.5424 11.4354L58.3377 11.8916ZM58.5283 11.9772L58.3236 12.4333L58.5142 12.5189L58.7189 12.0627L58.9236 11.6065L58.733 11.521L58.5283 11.9772ZM58.7189 12.0627L58.5142 12.5189C58.9973 12.7357 59.5767 12.8816 60.2406 12.9672L60.3045 12.4714L60.3685 11.9755C59.769 11.8981 59.2914 11.7716 58.9236 11.6065L58.7189 12.0627ZM60.3045 12.4714L60.2406 12.9672L60.5236 13.0038L60.5875 12.5079L60.6515 12.012L60.3685 11.9755L60.3045 12.4714ZM60.5875 12.5079L60.5236 13.0038L60.8066 13.0403L60.8706 12.5444L60.9345 12.0485L60.6515 12.012L60.5875 12.5079ZM60.8706 12.5444L60.8066 13.0403C61.0559 13.0724 61.1352 13.1426 61.1569 13.1696C61.1724 13.1887 61.2173 13.2573 61.1839 13.4657L61.6777 13.5447L62.1714 13.6236C62.2317 13.2467 62.1888 12.8559 61.9352 12.5416C61.6879 12.2351 61.3169 12.0978 60.9345 12.0485L60.8706 12.5444ZM61.6777 13.5447L61.1839 13.4657L61.142 13.728L61.6357 13.8069L62.1295 13.8859L62.1714 13.6236L61.6777 13.5447ZM61.6357 13.8069L61.142 13.728L61.1001 13.9903L61.5938 14.0692L62.0875 14.1482L62.1295 13.8859L61.6357 13.8069ZM61.5938 14.0692L61.1001 13.9903C60.9911 14.6718 61.0988 15.3005 61.5316 15.7763L61.9015 15.4398L62.2714 15.1034C62.1068 14.9224 62.0093 14.6374 62.0875 14.1482L61.5938 14.0692ZM61.9015 15.4398L61.5316 15.7763L61.6655 15.9234L62.0353 15.5869L62.4052 15.2505L62.2714 15.1034L61.9015 15.4398ZM62.0353 15.5869L61.6655 15.9234L61.7993 16.0705L62.1692 15.7341L62.539 15.3976L62.4052 15.2505L62.0353 15.5869ZM62.1692 15.7341L61.7993 16.0705C62.0561 16.3528 62.2481 16.6667 62.3784 17.0146L62.8467 16.8392L63.3149 16.6639C63.1393 16.1949 62.8797 15.7721 62.539 15.3976L62.1692 15.7341ZM62.8467 16.8392L62.3784 17.0146L62.447 17.1976L62.9152 17.0222L63.3834 16.8468L63.3149 16.6639L62.8467 16.8392ZM62.9152 17.0222L62.447 17.1976L62.5155 17.3806L62.9837 17.2052L63.452 17.0298L63.3834 16.8468L62.9152 17.0222ZM62.9837 17.2052L62.5155 17.3806C62.6489 17.7366 62.7241 18.1155 62.7394 18.5199L63.2391 18.501L63.7387 18.482C63.7195 17.9755 63.6246 17.4906 63.452 17.0298L62.9837 17.2052ZM63.2391 18.501L62.7394 18.5199L62.7472 18.724L63.2468 18.705L63.7465 18.6861L63.7387 18.482L63.2391 18.501ZM63.2468 18.705L62.7472 18.724L62.7549 18.928L63.2546 18.9091L63.7542 18.8902L63.7465 18.6861L63.2468 18.705ZM63.2546 18.9091L62.7549 18.928C62.7807 19.6094 63.1933 20.116 63.8099 20.4593L64.0531 20.0224L64.2963 19.5856C63.8828 19.3553 63.7629 19.1197 63.7542 18.8902L63.2546 18.9091ZM64.0531 20.0224L63.8099 20.4593L64.0407 20.5878L64.2839 20.1509L64.5271 19.7141L64.2963 19.5856L64.0531 20.0224ZM64.2839 20.1509L64.0407 20.5878L64.2715 20.7163L64.5147 20.2794L64.7579 19.8425L64.5271 19.7141L64.2839 20.1509ZM64.5147 20.2794L64.2715 20.7163C64.4777 20.831 64.5905 20.9441 64.6498 21.0406C64.7047 21.13 64.7303 21.2312 64.7164 21.3651L65.2137 21.4169L65.711 21.4687C65.7462 21.1311 65.6798 20.8068 65.5018 20.5171C65.3281 20.2345 65.0669 20.0146 64.7579 19.8425L64.5147 20.2794ZM65.2137 21.4169L64.7164 21.3651L64.6944 21.5763L65.1917 21.6282L65.689 21.68L65.711 21.4687L65.2137 21.4169ZM65.1917 21.6282L64.6944 21.5763L64.6723 21.7876L65.1696 21.8394L65.6669 21.8913L65.689 21.68L65.1917 21.6282ZM65.1696 21.8394L64.6723 21.7876C64.6273 22.2197 64.5305 22.6541 64.3806 23.0913L64.8536 23.2535L65.3265 23.4157C65.4997 22.9106 65.6137 22.4023 65.6669 21.8913L65.1696 21.8394ZM64.8536 23.2535L64.3806 23.0913L64.3082 23.3024L64.7812 23.4646L65.2541 23.6268L65.3265 23.4157L64.8536 23.2535ZM64.7812 23.4646L64.3082 23.3024L64.2358 23.5135L64.7088 23.6757L65.1817 23.8379L65.2541 23.6268L64.7812 23.4646ZM64.7088 23.6757L64.2358 23.5135C64.1183 23.8562 64.1205 24.209 64.2669 24.544C64.4076 24.866 64.6623 25.1284 64.9728 25.3447L65.2586 24.9344L65.5445 24.5242C65.3268 24.3725 65.2258 24.2411 65.1832 24.1436C65.1463 24.059 65.1376 23.9665 65.1817 23.8379L64.7088 23.6757ZM65.2586 24.9344L64.9728 25.3447L65.2095 25.5096L65.4953 25.0993L65.7811 24.689L65.5445 24.5242L65.2586 24.9344ZM65.4953 25.0993L65.2095 25.5096L65.4461 25.6744L65.7319 25.2642L66.0177 24.8539L65.7811 24.689L65.4953 25.0993ZM65.7319 25.2642L65.4461 25.6744C65.6677 25.8288 65.7842 25.9665 65.8402 26.0763C65.8906 26.1752 65.9027 26.2708 65.8756 26.3853L66.3622 26.5005L66.8488 26.6157C66.9296 26.2739 66.8908 25.9353 66.7311 25.6221C66.577 25.3198 66.3243 25.0675 66.0177 24.8539L65.7319 25.2642ZM66.3622 26.5005L65.8756 26.3853L65.8273 26.5898L66.3138 26.7049L66.8004 26.8201L66.8488 26.6157L66.3622 26.5005ZM66.3138 26.7049L65.8273 26.5898L65.7789 26.7942L66.2654 26.9094L66.752 27.0245L66.8004 26.8201L66.3138 26.7049ZM66.2654 26.9094L65.7789 26.7942C65.6977 27.1374 65.5118 27.4399 65.1968 27.7068L65.5201 28.0883L65.8434 28.4697C66.3063 28.0773 66.6172 27.5939 66.752 27.0245L66.2654 26.9094ZM65.5201 28.0883L65.1968 27.7068L65.0226 27.8545L65.3459 28.236L65.6692 28.6174L65.8434 28.4697L65.5201 28.0883ZM65.3459 28.236L65.0226 27.8545L64.8483 28.0022L65.1717 28.3836L65.495 28.7651L65.6692 28.6174L65.3459 28.236ZM65.1717 28.3836L64.8483 28.0022C64.7426 28.0919 64.6488 28.1786 64.5728 28.2609C64.5047 28.3348 64.418 28.4395 64.3666 28.5655C64.3396 28.6317 64.3089 28.7359 64.3222 28.8614C64.3371 29.0017 64.4035 29.1295 64.5088 29.2224C64.6804 29.3735 64.8914 29.3781 64.9698 29.3781V28.8781V28.3781C64.962 28.3781 64.9766 28.3772 65.0048 28.3839C65.0305 28.3899 65.0992 28.4097 65.1699 28.4721C65.2519 28.5443 65.305 28.6463 65.3166 28.7558C65.3266 28.8503 65.3026 28.9185 65.2925 28.9434C65.2747 28.9871 65.2619 28.9888 65.3078 28.939C65.3459 28.8978 65.4063 28.8402 65.495 28.7651L65.1717 28.3836ZM64.9698 28.8781V29.3781H65.0838V28.8781V28.3781H64.9698V28.8781ZM65.0838 28.8781V29.3781H65.1977V28.8781V28.3781H65.0838V28.8781ZM65.1977 28.8781V29.3781C65.1942 29.3781 65.1394 29.3774 65.0732 29.3328C65.0005 29.2838 64.9669 29.2179 64.9554 29.1786C64.9465 29.1482 64.9533 29.1443 64.9489 29.1861C64.9448 29.2252 64.933 29.2861 64.9066 29.3731L65.3851 29.5182L65.8635 29.6634C65.9331 29.434 65.9899 29.1529 65.9152 28.8977C65.8724 28.7517 65.7837 28.6057 65.6318 28.5034C65.4864 28.4054 65.3284 28.3781 65.1977 28.3781V28.8781ZM65.3851 29.5182L64.9066 29.3731L64.8486 29.5643L65.3271 29.7095L65.8056 29.8546L65.8635 29.6634L65.3851 29.5182Z" fill="#726AE4"/>
<path d="M58.738 35.0354L66.9477 44.6133" stroke="#CB886A" stroke-width="4" stroke-linecap="round"/>
<path d="M46.4236 52.1388L51.8967 72.6629L46.4236 72.6629" stroke="#CB886A" stroke-width="4" stroke-linecap="round"/>
<circle cx="68" cy="45.6628" r="2.5" fill="#CB886A" stroke="#CB886A"/>
<circle cx="3" cy="44.6628" r="2.5" fill="#CB886A" stroke="#CB886A"/>
<circle cx="28.5" cy="31.1628" r="2.5" fill="white"/>
<circle cx="37.5" cy="31.1628" r="2.5" fill="white"/>
<circle cx="38.5" cy="31.1628" r="1.5" fill="black"/>
<circle cx="29.5" cy="31.1628" r="1.5" fill="black"/>
</svg>
