<svg width="96" height="107" viewBox="0 0 96 107" fill="none" xmlns="http://www.w3.org/2000/svg">
<path d="M38 74.7163L31 104.216H25" stroke="#CB886A" stroke-width="3" stroke-linecap="round"/>
<path d="M16 49.7163L4 61.7163" stroke="#CB886A" stroke-width="3" stroke-linecap="round"/>
<circle cx="51" cy="40.7163" r="40" fill="#FFB3B3"/>
<path d="M90.7557 41.5526L90.2758 41.4124L90.7557 41.5526ZM90.6996 41.7449L91.1795 41.8851L90.6996 41.7449ZM90.7332 43.0531L91.2075 42.8948L90.7332 43.0531ZM90.7994 43.2515L90.3251 43.4098L90.7994 43.2515ZM90.8656 43.4499L90.3913 43.6082L90.8656 43.4499ZM91.0891 44.7738L91.5891 44.7724L91.0891 44.7738ZM91.0896 44.9708L90.5896 44.9722L91.0896 44.9708ZM91.0901 45.1678L90.5901 45.1692L91.0901 45.1678ZM90.8196 46.4477L91.2774 46.6487L90.8196 46.4477ZM90.6569 46.8183L90.1991 46.6173L90.6569 46.8183ZM90.0286 48.0265L89.6009 47.7676L90.0286 48.0265ZM89.9223 48.2022L89.4946 47.9432L89.9223 48.2022ZM89.8159 48.3778L90.2437 48.6368L89.8159 48.3778ZM89.9202 49.7449L90.3507 49.4906L89.9202 49.7449ZM90.0576 49.9776L90.4881 49.7233L90.0576 49.9776ZM90.1951 50.2103L89.7646 50.4646L90.1951 50.2103ZM89.9976 51.4857L90.2988 51.8848L89.9976 51.4857ZM89.8011 51.634L89.4999 51.2349L89.8011 51.634ZM89.6047 51.7823L89.3035 51.3832L89.6047 51.7823ZM89.1397 53.0302L88.6554 53.1544L89.1397 53.0302ZM89.2549 53.4791L89.7392 53.3549L89.2549 53.4791ZM88.5307 54.7908L88.7913 55.2175L88.5307 54.7908ZM88.3198 54.9196L88.0592 54.4929L88.3198 54.9196ZM87.3838 55.9503L86.917 55.7713L87.3838 55.9503ZM87.2465 56.3084L87.7133 56.4875L87.2465 56.3084ZM87.0088 57.6223L86.5088 57.6168L87.0088 57.6223ZM87.0064 57.8357L87.5064 57.8412L87.0064 57.8357ZM87.0041 58.0491L86.5041 58.0436L87.0041 58.0491ZM86.8682 59.4414L87.3595 59.5343L86.8682 59.4414ZM86.8299 59.6439L86.3386 59.5511L86.8299 59.6439ZM86.7917 59.8464L86.3004 59.7536L86.7917 59.8464ZM86.5067 61.2062L86.994 61.3183L86.5067 61.2062ZM86.413 61.6135L85.9257 61.5014L86.413 61.6135ZM85.8184 62.8109L85.4373 62.4872L85.8184 62.8109ZM85.5569 63.1188L85.938 63.4425L85.5569 63.1188ZM84.3137 63.8714L84.4549 64.3511L84.3137 63.8714ZM84.0731 63.9422L83.9319 63.4625L84.0731 63.9422ZM83.8325 64.013L83.9737 64.4927L83.8325 64.013ZM82.8546 64.9406L83.3398 65.0617L82.8546 64.9406ZM82.7517 65.3531L82.2665 65.2319L82.7517 65.3531ZM82.1574 66.5491L81.7735 66.2287L82.1574 66.5491ZM82.0313 66.7001L82.4152 67.0204L82.0313 66.7001ZM81.9053 66.8511L81.5215 66.5307L81.9053 66.8511ZM80.8126 67.6269L80.6257 67.1632L80.8126 67.6269ZM80.4118 67.7884L80.5987 68.2522L80.4118 67.7884ZM79.445 68.6809L79.8965 68.8957L79.445 68.6809ZM79.2682 69.0525L79.7197 69.2673L79.2682 69.0525ZM78.0954 69.6734L78.0947 70.1734L78.0954 69.6734ZM77.5717 69.6727L77.5724 69.1727L77.5717 69.6727ZM76.321 70.2093L75.9105 69.9239L76.321 70.2093ZM76.2094 70.37L76.6199 70.6554L76.2094 70.37ZM76.0977 70.5306L75.6871 70.2452L76.0977 70.5306ZM75.7167 72.1222L75.2167 72.1188L75.7167 72.1222ZM75.7146 72.437L76.2146 72.4403L75.7146 72.437ZM75.7124 72.7517L75.2125 72.7483L75.7124 72.7517ZM74.897 73.8129L74.8924 73.3129L74.897 73.8129ZM74.4141 73.8174L74.4187 74.3174L74.4141 73.8174ZM72.9506 74.0063L72.8172 73.5245V73.5245L72.9506 74.0063ZM72.755 74.0605L72.8885 74.5424L72.755 74.0605ZM72.5593 74.1148L72.4258 73.6329L72.5593 74.1148ZM71.6026 75.0683L72.0683 75.2503L71.6026 75.0683ZM71.5124 75.299L71.0467 75.117L71.5124 75.299ZM71.4223 75.5296L71.888 75.7116L71.4223 75.5296ZM70.2642 76.0874L70.1428 76.5724L70.2642 76.0874ZM70.0084 76.0234L70.1298 75.5383L70.0084 76.0234ZM69.7525 75.9593L69.6312 76.4444L69.7525 75.9593ZM68.3396 76.0656L68.5893 76.4988L68.3396 76.0656ZM68.1734 76.1614L67.9238 75.7281L68.1734 76.1614ZM68.0072 76.2571L67.7576 75.8239L68.0072 76.2571ZM66.8044 76.6918L66.7175 76.1994L66.8044 76.6918ZM66.6113 76.7259L66.6982 77.2183L66.6113 76.7259ZM66.4183 76.76L66.5052 77.2524L66.4183 76.76ZM65.2196 77.2149L65.4822 77.6404L65.2196 77.2149ZM64.8897 77.4185L64.6271 76.993L64.8897 77.4185ZM63.733 77.9711L63.8983 78.443L63.733 77.9711ZM63.3719 78.0976L63.2065 77.6258L63.3719 78.0976ZM62.2522 78.8618L62.6178 79.2029L62.2522 78.8618ZM62.0983 79.0268L61.7326 78.6858L62.0983 79.0268ZM61.9444 79.1918L62.31 79.5329L61.9444 79.1918ZM60.7619 79.7679L60.7441 79.2683L60.7619 79.7679ZM60.5626 79.775L60.5804 80.2747L60.5626 79.775ZM60.3633 79.7822L60.3811 80.2818L60.3633 79.7822ZM59.1217 80.2957L59.4462 80.6761L59.1217 80.2957ZM58.9502 80.4419L58.6258 80.0615L58.9502 80.4419ZM58.7787 80.5882L59.1031 80.9687L58.7787 80.5882ZM57.4511 80.4752L57.1387 80.8656L57.4511 80.4752ZM57.226 80.2952L57.5384 79.9048L57.226 80.2952ZM57.001 80.1151L56.6886 80.5056L57.001 80.1151ZM55.6762 80.2582L56.0731 80.5623L55.6762 80.2582ZM55.3349 80.7037L54.938 80.3996L55.3349 80.7037ZM54.0735 80.9695L53.7879 81.3799L54.0735 80.9695ZM53.8674 80.8261L54.1529 80.4157L53.8674 80.8261ZM53.6613 80.6827L53.3757 81.0932L53.6613 80.6827ZM52.3321 80.6712L52.6277 81.0744L52.3321 80.6712ZM51.9503 80.9511L51.6547 80.5478L51.9503 80.9511ZM50.6558 81.1743L50.831 80.706L50.6558 81.1743ZM50.46 81.1011L50.2848 81.5693L50.46 81.1011ZM50.2642 81.0278L50.4395 80.5595L50.2642 81.0278ZM48.9961 80.2417L48.6652 80.6165L48.9961 80.2417ZM48.6301 79.9186L48.961 79.5437L48.6301 79.9186ZM47.3775 79.4196L47.3448 78.9207L47.3775 79.4196ZM47.1863 79.4321L47.219 79.931L47.1863 79.4321ZM46.9952 79.4446L46.9626 78.9457L46.9952 79.4446ZM45.7228 79.4228L45.6727 79.9203L45.7228 79.4228ZM45.3449 79.3847L45.395 78.8872L45.3449 79.3847ZM44.0476 79.3987L44.1056 79.8953V79.8953L44.0476 79.3987ZM43.6504 79.445L43.5924 78.9484V78.9484L43.6504 79.445ZM42.4101 79.1677L42.6725 78.7421L42.4101 79.1677ZM42.2381 79.0617L41.9757 79.4873L42.2381 79.0617ZM42.0662 78.9557L42.3287 78.5301L42.0662 78.9557ZM40.7215 78.9615L40.5092 78.5088L40.7215 78.9615ZM40.4918 79.0692L40.2795 78.6166L40.4918 79.0692ZM40.2621 79.177L40.4744 79.6297L40.2621 79.177ZM39.0603 78.7697L38.6247 79.015L39.0603 78.7697ZM38.9311 78.5402L39.3667 78.2948L38.9311 78.5402ZM38.8018 78.3108L39.2375 78.0654L38.8018 78.3108ZM37.5291 77.9532L37.3096 77.5039L37.5291 77.9532ZM37.0272 78.1984L37.2467 78.6476L37.0272 78.1984ZM35.462 78.614L35.4655 79.114L35.462 78.614ZM35.0287 78.617L35.0323 79.117L35.0287 78.617ZM33.8104 78.0993L34.1741 77.7563L33.8104 78.0993ZM33.6631 77.9432L33.2994 78.2863L33.6631 77.9432ZM33.5158 77.787L33.8795 77.444L33.5158 77.787ZM32.538 76.7705L32.1812 77.1207L32.538 76.7705ZM32.2485 76.4754L32.6053 76.1252L32.2485 76.4754ZM31.2495 75.5695L30.9368 75.9597L31.2495 75.5695ZM31.0959 75.4464L30.7832 75.8366L31.0959 75.4464ZM30.9423 75.3233L31.255 74.9331L30.9423 75.3233ZM29.8842 74.557L30.1571 74.1381L29.8842 74.557ZM29.7218 74.4512L29.4489 74.8702L29.7218 74.4512ZM29.5594 74.3454L29.8323 73.9265L29.5594 74.3454ZM28.7305 73.2793L28.2663 73.4651L28.7305 73.2793ZM28.6454 73.0666L29.1096 72.8808L28.6454 73.0666ZM28.5602 72.854L28.096 73.0398L28.5602 72.854ZM27.3861 72.2496L27.326 71.7532L27.3861 72.2496ZM27.1205 72.2817L27.0604 71.7853L27.1205 72.2817ZM26.8549 72.3138L26.915 72.8102L26.8549 72.3138ZM25.2829 72.2078L25.1336 72.685L25.2829 72.2078ZM25.0789 72.144L24.9296 72.6212L25.0789 72.144ZM24.8749 72.0802L25.0241 71.603L24.8749 72.0802ZM23.9287 71.1703L24.3964 70.9935L23.9287 71.1703ZM23.8501 70.9623L23.3824 71.1391L23.8501 70.9623ZM23.7715 70.7543L24.2392 70.5775L23.7715 70.7543ZM22.8309 69.8065L23.005 69.3378L22.8309 69.8065ZM22.6286 69.7314L22.8026 69.2626L22.6286 69.7314ZM22.4263 69.6562L22.2522 70.125L22.4263 69.6562ZM21.6422 68.6039L21.1466 68.6699L21.6422 68.6039ZM21.6104 68.3647L22.106 68.2986L21.6104 68.3647ZM21.5785 68.1255L21.0829 68.1915L21.5785 68.1255ZM20.7743 67.0629L20.5986 67.5311L20.7743 67.0629ZM20.5659 66.9848L20.7415 66.5166L20.5659 66.9848ZM20.3576 66.9066L20.1819 67.3748L20.3576 66.9066ZM19.6205 65.8444L19.1211 65.869L19.6205 65.8444ZM19.6087 65.6053L19.1093 65.6299L19.6087 65.6053ZM19.5969 65.3661L20.0963 65.3415L19.5969 65.3661ZM19.2129 64.0235L18.7909 64.2916L19.2129 64.0235ZM19.11 63.8615L19.532 63.5934L19.11 63.8615ZM19.0071 63.6996L18.5851 63.9678L19.0071 63.6996ZM18.0073 62.8153L17.7759 63.2585L18.0073 62.8153ZM17.6158 62.6109L17.8473 62.1677L17.6158 62.6109ZM16.2444 61.9255L16.0283 62.3764L16.2444 61.9255ZM16.0304 61.823L16.2465 61.3721L16.0304 61.823ZM15.8165 61.7205L15.6004 62.1714L15.8165 61.7205ZM14.8938 60.7253L14.4171 60.8763L14.8938 60.7253ZM14.8321 60.5306L14.3555 60.6816L14.8321 60.5306ZM14.7704 60.3359L15.2471 60.1849L14.7704 60.3359ZM14.8895 58.7935L15.3591 58.9653L14.8895 58.7935ZM14.9868 58.5276L14.5172 58.3559L14.9868 58.5276ZM15.084 58.2616L15.5536 58.4333L15.084 58.2616ZM14.5064 57.0563L14.671 56.5841L14.5064 57.0563ZM13.9668 56.8681L13.8021 57.3402L13.9668 56.8681ZM13.6019 55.6419L14.0324 55.8963L13.6019 55.6419ZM13.7627 55.3698L13.3323 55.1154L13.7627 55.3698ZM13.9235 55.0976L14.354 55.352L13.9235 55.0976ZM14.1267 53.6295L14.5551 53.3717L14.1267 53.6295ZM14.0266 53.4632L13.5982 53.721L14.0266 53.4632ZM13.9265 53.2968L13.4981 53.5546L13.9265 53.2968ZM12.9106 52.2646L12.6244 52.6746L12.9106 52.2646ZM12.504 51.9808L12.7902 51.5708L12.504 51.9808ZM11.9923 50.789L11.5057 50.6742L11.9923 50.789ZM12.0428 50.5749L11.5562 50.4601L12.0428 50.5749ZM12.0933 50.3609L12.58 50.4757L12.0933 50.3609ZM12.1372 49.0102L11.6467 49.1071L12.1372 49.0102ZM12.0998 48.8208L11.6093 48.9177L12.0998 48.8208ZM12.0624 48.6314L12.5529 48.5345L12.0624 48.6314ZM11.2079 47.448L10.907 47.8473L11.2079 47.448ZM10.7722 47.1198L11.073 46.7204L10.7722 47.1198ZM10.0392 45.6923L9.53916 45.6945L10.0392 45.6923ZM9.95315 44.1487L9.45693 44.21L9.95315 44.1487ZM9.90399 43.7511L9.40777 43.8125L9.90399 43.7511ZM10.7719 42.4013L11.0641 42.807L10.7719 42.4013ZM11.3396 41.9925L11.0474 41.5868L11.3396 41.9925ZM11.6406 40.6587L11.9942 40.3052L11.6406 40.6587ZM11.4466 40.4647L11.093 40.8182L11.4466 40.4647ZM11.2527 40.2707L10.8991 40.6242L11.2527 40.2707ZM10.8297 38.9782L11.3013 39.1442L10.8297 38.9782ZM10.9649 38.5941L10.4932 38.4281L10.9649 38.5941ZM10.911 37.2675L11.3737 37.0779L10.911 37.2675ZM10.8273 37.0634L10.3647 37.2529L10.8273 37.0634ZM10.7437 36.8592L11.2063 36.6696L10.7437 36.8592ZM10.3721 35.4909L10.8677 35.4247L10.3721 35.4909ZM10.3448 35.2864L9.84919 35.3526L10.3448 35.2864ZM10.3175 35.0819L10.8131 35.0157L10.3175 35.0819ZM10.525 33.7719L10.9761 33.9876L10.525 33.7719ZM10.6143 33.5852L10.1632 33.3695L10.6143 33.5852ZM10.7036 33.3984L10.2525 33.1827L10.7036 33.3984ZM11.4709 32.2041L11.8569 32.5218L11.4709 32.2041ZM11.6108 32.0341L11.2247 31.7163L11.6108 32.0341ZM11.7507 31.8641L12.1367 32.1818L11.7507 31.8641ZM12.1783 30.4064L12.6778 30.3835L12.1783 30.4064ZM12.169 30.202L11.6695 30.2249L12.169 30.202ZM12.0589 28.7981L11.5619 28.8525L12.0589 28.7981ZM12.0119 28.3682L11.5149 28.4226L12.0119 28.3682ZM12.4628 27.134L12.1144 26.7754L12.4628 27.134ZM12.7792 26.8266L13.1276 27.1852L12.7792 26.8266ZM13.5272 25.6919L13.0556 25.5258L13.5272 25.6919ZM13.5925 25.5067L14.0641 25.6728L13.5925 25.5067ZM13.6577 25.3214L13.1861 25.1553L13.6577 25.3214ZM14.6152 24.3286L14.8404 24.775L14.6152 24.3286ZM15.0568 24.1059L14.8316 23.6594L15.0568 24.1059ZM15.8815 23.0578L16.3775 23.1207L15.8815 23.0578ZM15.9071 22.8561L15.411 22.7932L15.9071 22.8561ZM15.9327 22.6543L15.4366 22.5914L15.9327 22.6543ZM16.3035 21.3979L16.7523 21.6182L16.3035 21.3979ZM16.4738 21.0507L16.025 20.8305L16.4738 21.0507ZM17.3979 20.1138L17.1546 19.677L17.3979 20.1138ZM17.5888 20.0075L17.8321 20.4443L17.5888 20.0075ZM17.7796 19.9012L17.5363 19.4644L17.7796 19.9012ZM18.5241 18.8447L18.0297 18.7702L18.5241 18.8447ZM18.5557 18.6354L19.0501 18.7099L18.5557 18.6354ZM18.5872 18.4261L18.0928 18.3516L18.5872 18.4261ZM19.3747 17.4391L19.1811 16.9781L19.3747 17.4391ZM19.5784 17.3535L19.3848 16.8925L19.5784 17.3535ZM19.782 17.268L19.9756 17.729L19.782 17.268ZM20.6266 16.2949L21.1132 16.4102L20.6266 16.2949ZM20.6753 16.0897L21.1618 16.205L20.6753 16.0897ZM20.804 14.2479L20.3059 14.2912L20.804 14.2479ZM20.7547 13.6804L21.2528 13.637L20.7547 13.6804ZM21.5563 12.6675L21.5918 13.1663L21.5563 12.6675ZM21.8205 12.6487L21.785 12.15L21.8205 12.6487ZM22.0846 12.6299L22.0491 12.1312L22.0846 12.6299ZM23.3345 12.0096L22.9165 11.7354L23.3345 12.0096ZM23.4438 11.8432L23.8618 12.1174L23.4438 11.8432ZM23.553 11.6767L23.1349 11.4024L23.553 11.6767ZM24.4469 10.7338L24.7416 11.1376L24.4469 10.7338ZM24.7624 10.5034L24.4676 10.0996L24.7624 10.5034ZM25.9393 9.89477L25.7766 9.42196L25.9393 9.89477ZM26.1331 9.82811L26.2957 10.3009L26.1331 9.82811ZM26.3268 9.76145L26.1642 9.28865L26.3268 9.76145ZM27.1466 8.6712L26.656 8.57444L27.1466 8.6712ZM27.1977 8.4122L27.6882 8.50897L27.1977 8.4122ZM27.2488 8.1532L27.7393 8.24997L27.2488 8.1532ZM28.109 7.12732L27.9967 6.64009L28.109 7.12732ZM28.3148 7.07989L28.4271 7.56713L28.3148 7.07989ZM28.5207 7.03246L28.4084 6.54523L28.5207 7.03246ZM29.9585 6.85623L29.9469 6.35637L29.9585 6.85623ZM30.1821 6.85102L30.1938 7.35089L30.1821 6.85102ZM30.4058 6.84581L30.3941 6.34595L30.4058 6.84581ZM31.3791 5.89025L31.8653 6.00669L31.3791 5.89025ZM31.4462 5.61003L31.9324 5.72648L31.4462 5.61003ZM31.5133 5.32982L31.027 5.21338L31.5133 5.32982ZM32.4272 4.28306L32.5051 4.77696L32.4272 4.28306ZM32.6331 4.25061L32.5552 3.75671L32.6331 4.25061ZM32.839 4.21816L32.9168 4.71206L32.839 4.21816ZM34.3627 4.3844L34.2063 4.8593L34.3627 4.3844ZM36.1605 4.25911L35.7745 3.94128L36.1605 4.25911ZM36.2993 4.09053L36.6853 4.40835L36.2993 4.09053ZM36.4381 3.92194L36.0522 3.60411L36.4381 3.92194ZM37.5173 2.52903L37.1156 2.23121L37.5173 2.52903ZM39.1975 1.54834L39.1268 1.05336L39.1975 1.54834ZM40.5254 1.36277L40.4577 0.867376L40.5254 1.36277ZM40.7227 1.33579L40.7904 1.83118L40.7227 1.33579ZM40.92 1.30882L40.8523 0.813423L40.92 1.30882ZM42.3187 1.55773L42.5276 1.10342L42.3187 1.55773ZM42.5392 1.65906L42.3304 2.11337L42.5392 1.65906ZM42.7597 1.76038L42.9685 1.30607L42.7597 1.76038ZM44.1102 1.86805L43.9333 1.40036L44.1102 1.86805ZM44.476 1.72971L44.6529 2.19739L44.476 1.72971ZM45.7514 1.63411L45.8519 1.1443L45.7514 1.63411ZM45.9495 1.67472L45.849 2.16452L45.9495 1.67472ZM46.1475 1.71533L46.2479 1.22552L46.1475 1.71533ZM47.4291 1.57188L47.6349 2.02757L47.4291 1.57188ZM47.7987 1.40497L47.5929 0.949284L47.7987 1.40497ZM49.0618 1.09579L49.0849 1.59525L49.0618 1.09579ZM52.4075 1.24189L52.2536 1.71759L52.4075 1.24189ZM52.7862 1.36445L52.9402 0.88875L52.7862 1.36445ZM54.1112 1.08026L54.4001 1.48834L54.1112 1.08026ZM54.5242 0.787918L54.2353 0.379831L54.5242 0.787918ZM55.8335 0.640837L56.0757 0.203412L55.8335 0.640837ZM56.2028 0.845309L55.9606 1.28273L56.2028 0.845309ZM57.4075 1.5833L57.6871 1.16882L57.4075 1.5833ZM57.5827 1.7015L57.303 2.11597L57.5827 1.7015ZM57.7579 1.8197L58.0375 1.40522L57.7579 1.8197ZM59.1083 1.74754L59.3694 2.17393L59.1083 1.74754ZM59.5647 1.46802L59.8258 1.89441L59.5647 1.46802ZM60.8271 1.68133L60.4236 1.97659L60.8271 1.68133ZM60.976 1.8848L61.3795 1.58955L60.976 1.8848ZM61.1249 2.08828L60.7214 2.38353L61.1249 2.08828ZM62.1465 3.23112L61.8156 3.60603L62.1465 3.23112ZM62.3027 3.36902L62.6336 2.99412L62.3027 3.36902ZM62.459 3.50692L62.7898 3.13202L62.459 3.50692ZM63.8468 3.44895L63.5892 3.0204L63.8468 3.44895ZM64.3633 3.13853L64.6209 3.56709L64.3633 3.13853ZM65.6456 3.32832L66.0765 3.07462L65.6456 3.32832ZM65.8952 3.75213L66.3261 3.49842L65.8952 3.75213ZM67.1259 4.24055L66.9947 3.75806L67.1259 4.24055ZM67.3687 4.17453L67.4999 4.65702L67.3687 4.17453ZM67.6116 4.10852L67.4804 3.62603L67.6116 4.10852ZM68.6952 4.79495L69.1744 4.65201L68.6952 4.79495ZM68.7761 5.066L68.297 5.20895L68.7761 5.066ZM68.857 5.33705L69.3361 5.19411L68.857 5.33705ZM69.935 6.11646L69.8567 5.62263L69.935 6.11646ZM70.1762 6.07821L70.2545 6.57204L70.1762 6.07821ZM70.4174 6.03997L70.339 5.54614L70.4174 6.03997ZM71.8124 6.20788L72.0373 5.7613L71.8124 6.20788ZM72.1635 6.38467L71.9386 6.83125L72.1635 6.38467ZM73.4559 6.8197L73.5527 6.32917L73.4559 6.8197ZM73.6663 6.86125L73.5695 7.35179L73.6663 6.86125ZM73.8768 6.9028L73.9737 6.41226L73.8768 6.9028ZM74.9909 7.60655L74.5861 7.90003L74.9909 7.60655ZM75.1132 7.77521L75.518 7.48172L75.1132 7.77521ZM75.2355 7.94387L74.8306 8.23736L75.2355 7.94387ZM76.1438 8.93986L75.8167 9.3181L76.1438 8.93986ZM76.2928 9.06869L75.9658 9.44694L76.2928 9.06869ZM76.4418 9.19753L76.1148 9.57578L76.4418 9.19753ZM77.2252 10.2947L77.685 10.0982L77.2252 10.2947ZM77.3951 10.6924L76.9353 10.8888L77.3951 10.6924ZM78.1704 11.7795L77.8447 12.1589L78.1704 11.7795ZM78.4636 12.0311L78.7892 11.6517L78.4636 12.0311ZM79.6485 12.6899L79.8104 12.2168L79.6485 12.6899ZM79.8558 12.7608L79.6939 13.2339L79.8558 12.7608ZM80.0631 12.8318L79.9012 13.3049L80.0631 12.8318ZM81.2065 13.5541L81.5732 13.2142L81.2065 13.5541ZM81.3408 13.6989L81.7075 13.359L81.3408 13.6989ZM81.475 13.8437L81.1083 14.1836L81.475 13.8437ZM82.3395 14.843L82.7286 14.529L82.3395 14.843ZM82.5875 15.1503L82.1984 15.4643L82.5875 15.1503ZM83.1854 16.3472L83.6684 16.2178L83.1854 16.3472ZM83.24 16.551L82.757 16.6803L83.24 16.551ZM83.2946 16.7548L83.7775 16.6255L83.2946 16.7548ZM84.2857 17.684L84.1397 18.1622L84.2857 17.684ZM84.5271 17.7577L84.3811 18.2359L84.5271 17.7577ZM84.7686 17.8315L84.9146 17.3533L84.7686 17.8315ZM85.8509 18.6975L86.3081 18.4953L85.8509 18.6975ZM85.9327 18.8825L86.39 18.6802L85.9327 18.8825ZM86.0145 19.0674L85.5572 19.2697L86.0145 19.0674ZM85.8009 20.7101L85.3495 20.4951L85.8009 20.7101ZM85.5097 21.3215L85.9611 21.5365L85.5097 21.3215ZM85.3708 22.8743L85.7883 22.5993L85.3708 22.8743ZM85.4749 23.0324L85.0573 23.3074L85.4749 23.0324ZM85.579 23.1905L85.1614 23.4655L85.579 23.1905ZM86.8671 23.9989L87.0095 23.5196V23.5196L86.8671 23.9989ZM87.4284 24.1656L87.5707 23.6863L87.4284 24.1656ZM88.8528 24.9677L88.4861 25.3076L88.8528 24.9677ZM89.1424 25.2801L89.5091 24.9402L89.1424 25.2801ZM88.8967 26.7609L88.4992 26.4577L88.8967 26.7609ZM88.6785 27.047L89.076 27.3503L88.6785 27.047ZM88.4603 27.3331L88.8578 27.6364L88.4603 27.3331ZM88.1671 28.8199L87.7818 29.1385L88.1671 28.8199ZM88.2978 28.9779L88.6831 28.6593L88.2978 28.9779ZM88.4284 29.1359L88.0431 29.4545L88.4284 29.1359ZM88.8216 30.3362L89.3205 30.3691L88.8216 30.3362ZM88.8084 30.5367L89.3073 30.5696L88.8084 30.5367ZM88.7951 30.7372L88.2962 30.7043L88.7951 30.7372ZM89.4619 31.9105L89.1734 32.319L89.4619 31.9105ZM89.8866 32.2105L90.175 31.802L89.8866 32.2105ZM90.5823 33.3798L91.0822 33.3912L90.5823 33.3798ZM90.5778 33.5791L90.0779 33.5677L90.5778 33.5791ZM90.5733 33.7785L91.0731 33.7898L90.5733 33.7785ZM90.7133 35.0831L90.2275 35.2015L90.7133 35.0831ZM90.7597 35.2735L91.2455 35.1552L90.7597 35.2735ZM90.8061 35.4639L90.3203 35.5822L90.8061 35.4639ZM90.9269 36.7592L90.4276 36.7331L90.9269 36.7592ZM90.9167 36.9558L90.4173 36.9297L90.9167 36.9558ZM90.9064 37.1523L91.4057 37.1784L90.9064 37.1523ZM91.2968 38.4479L90.8807 38.7251L91.2968 38.4479ZM91.4237 38.6384L91.8398 38.3611L91.4237 38.6384ZM91.5506 38.8288L91.9667 38.5516L91.5506 38.8288ZM91.1463 39.9476L91.3973 40.3801L91.1463 39.9476ZM90.6511 40.2351L90.4001 39.8027L90.6511 40.2351ZM90.8119 41.3602L91.2919 41.5004L90.8119 41.3602ZM90.7557 41.5526L90.2758 41.4124L90.2196 41.6047L90.6996 41.7449L91.1795 41.8851L91.2357 41.6927L90.7557 41.5526ZM90.6996 41.7449L90.2196 41.6047C90.0644 42.1362 90.0804 42.6764 90.2589 43.2114L90.7332 43.0531L91.2075 42.8948C91.0904 42.5441 91.084 42.2122 91.1795 41.8851L90.6996 41.7449ZM90.7332 43.0531L90.2589 43.2114L90.3251 43.4098L90.7994 43.2515L91.2737 43.0932L91.2075 42.8948L90.7332 43.0531ZM90.7994 43.2515L90.3251 43.4098L90.3913 43.6082L90.8656 43.4499L91.3399 43.2916L91.2737 43.0932L90.7994 43.2515ZM90.8656 43.4499L90.3913 43.6082C90.5233 44.0035 90.588 44.3919 90.5891 44.7751L91.0891 44.7738L91.5891 44.7724C91.5877 44.2761 91.5035 43.7819 91.3399 43.2916L90.8656 43.4499ZM91.0891 44.7738L90.5891 44.7751L90.5896 44.9722L91.0896 44.9708L91.5896 44.9695L91.5891 44.7724L91.0891 44.7738ZM91.0896 44.9708L90.5896 44.9722L90.5901 45.1692L91.0901 45.1678L91.5901 45.1665L91.5896 44.9695L91.0896 44.9708ZM91.0901 45.1678L90.5901 45.1692C90.5911 45.5374 90.5161 45.8952 90.3618 46.2467L90.8196 46.4477L91.2774 46.6487C91.4862 46.1732 91.5915 45.6778 91.5901 45.1665L91.0901 45.1678ZM90.8196 46.4477L90.3618 46.2467L90.2805 46.432L90.7383 46.633L91.1961 46.834L91.2774 46.6487L90.8196 46.4477ZM90.7383 46.633L90.2805 46.432L90.1991 46.6173L90.6569 46.8183L91.1148 47.0193L91.1961 46.834L90.7383 46.633ZM90.6569 46.8183L90.1991 46.6173C90.0265 47.0105 89.8271 47.3939 89.6009 47.7676L90.0286 48.0265L90.4563 48.2855C90.7048 47.8751 90.9243 47.453 91.1148 47.0193L90.6569 46.8183ZM90.0286 48.0265L89.6009 47.7676L89.4946 47.9432L89.9223 48.2022L90.35 48.4611L90.4563 48.2855L90.0286 48.0265ZM89.9223 48.2022L89.4946 47.9432L89.3882 48.1189L89.8159 48.3778L90.2437 48.6368L90.35 48.4611L89.9223 48.2022ZM89.8159 48.3778L89.3882 48.1189C89.025 48.7188 89.1235 49.3795 89.4897 49.9992L89.9202 49.7449L90.3507 49.4906C90.1031 49.0716 90.1322 48.8209 90.2437 48.6368L89.8159 48.3778ZM89.9202 49.7449L89.4897 49.9992L89.6272 50.2319L90.0576 49.9776L90.4881 49.7233L90.3507 49.4906L89.9202 49.7449ZM90.0576 49.9776L89.6272 50.2319L89.7646 50.4646L90.1951 50.2103L90.6256 49.956L90.4881 49.7233L90.0576 49.9776ZM90.1951 50.2103L89.7646 50.4646C89.8825 50.6642 89.891 50.7822 89.8818 50.8422C89.8738 50.8933 89.8419 50.9768 89.6964 51.0866L89.9976 51.4857L90.2988 51.8848C90.5919 51.6637 90.8121 51.3692 90.87 50.9952C90.9265 50.63 90.8145 50.2757 90.6256 49.956L90.1951 50.2103ZM89.9976 51.4857L89.6964 51.0866L89.4999 51.2349L89.8011 51.634L90.1023 52.0331L90.2988 51.8848L89.9976 51.4857ZM89.8011 51.634L89.4999 51.2349L89.3035 51.3832L89.6047 51.7823L89.9059 52.1814L90.1023 52.0331L89.8011 51.634ZM89.6047 51.7823L89.3035 51.3832C89.0263 51.5924 88.8089 51.8516 88.691 52.1679C88.5723 52.4866 88.5701 52.8219 88.6554 53.1544L89.1397 53.0302L89.624 52.9059C89.5808 52.7375 89.5919 52.6143 89.6281 52.517C89.6652 52.4174 89.7446 52.3031 89.9059 52.1814L89.6047 51.7823ZM89.1397 53.0302L88.6554 53.1544L88.713 53.3789L89.1973 53.2547L89.6816 53.1304L89.624 52.9059L89.1397 53.0302ZM89.1973 53.2547L88.713 53.3789L88.7706 53.6034L89.2549 53.4791L89.7392 53.3549L89.6816 53.1304L89.1973 53.2547ZM89.2549 53.4791L88.7706 53.6034C88.8131 53.7689 88.7972 53.8759 88.7643 53.9515C88.73 54.0306 88.6534 54.13 88.481 54.2352L88.7416 54.6619L89.0023 55.0886C89.3006 54.9064 89.5449 54.6649 89.6817 54.3496C89.8199 54.0311 89.8253 53.6904 89.7392 53.3549L89.2549 53.4791ZM88.7416 54.6619L88.481 54.2352L88.2701 54.3641L88.5307 54.7908L88.7913 55.2175L89.0023 55.0886L88.7416 54.6619ZM88.5307 54.7908L88.2701 54.3641L88.0592 54.4929L88.3198 54.9196L88.5804 55.3463L88.7913 55.2175L88.5307 54.7908ZM88.3198 54.9196L88.0592 54.4929C87.5217 54.8212 87.1199 55.2422 86.917 55.7713L87.3838 55.9503L87.8507 56.1293C87.9542 55.8592 88.1765 55.593 88.5804 55.3463L88.3198 54.9196ZM87.3838 55.9503L86.917 55.7713L86.8483 55.9503L87.3151 56.1294L87.782 56.3084L87.8507 56.1293L87.3838 55.9503ZM87.3151 56.1294L86.8483 55.9503L86.7796 56.1294L87.2465 56.3084L87.7133 56.4875L87.782 56.3084L87.3151 56.1294ZM87.2465 56.3084L86.7796 56.1294C86.6029 56.5904 86.5146 57.0878 86.5088 57.6168L87.0088 57.6223L87.5087 57.6278C87.5134 57.2042 87.5836 56.8258 87.7133 56.4875L87.2465 56.3084ZM87.0088 57.6223L86.5088 57.6168L86.5065 57.8302L87.0064 57.8357L87.5064 57.8412L87.5087 57.6278L87.0088 57.6223ZM87.0064 57.8357L86.5065 57.8302L86.5041 58.0436L87.0041 58.0491L87.5041 58.0546L87.5064 57.8412L87.0064 57.8357ZM87.0041 58.0491L86.5041 58.0436C86.4992 58.4916 86.4566 58.9265 86.3769 59.3486L86.8682 59.4414L87.3595 59.5343C87.4505 59.0525 87.4985 58.5591 87.5041 58.0546L87.0041 58.0491ZM86.8682 59.4414L86.3769 59.3486L86.3386 59.5511L86.8299 59.6439L87.3212 59.7367L87.3595 59.5343L86.8682 59.4414ZM86.8299 59.6439L86.3386 59.5511L86.3004 59.7536L86.7917 59.8464L87.283 59.9392L87.3212 59.7367L86.8299 59.6439ZM86.7917 59.8464L86.3004 59.7536C86.2162 60.199 86.1226 60.6458 86.0195 61.0941L86.5067 61.2062L86.994 61.3183C87.1 60.8574 87.1964 60.3977 87.283 59.9392L86.7917 59.8464ZM86.5067 61.2062L86.0195 61.0941L85.9726 61.2977L86.4599 61.4098L86.9471 61.5219L86.994 61.3183L86.5067 61.2062ZM86.4599 61.4098L85.9726 61.2977L85.9257 61.5014L86.413 61.6135L86.9003 61.7256L86.9471 61.5219L86.4599 61.4098ZM86.413 61.6135L85.9257 61.5014C85.8385 61.8808 85.6755 62.2067 85.4373 62.4872L85.8184 62.8109L86.1995 63.1345C86.545 62.7277 86.7784 62.2554 86.9003 61.7256L86.413 61.6135ZM85.8184 62.8109L85.4373 62.4872L85.3065 62.6412L85.6877 62.9648L86.0688 63.2885L86.1995 63.1345L85.8184 62.8109ZM85.6877 62.9648L85.3065 62.6412L85.1758 62.7952L85.5569 63.1188L85.938 63.4425L86.0688 63.2885L85.6877 62.9648ZM85.5569 63.1188L85.1758 62.7952C84.9607 63.0485 84.6387 63.2546 84.1725 63.3917L84.3137 63.8714L84.4549 64.3511C85.0627 64.1722 85.5694 63.8766 85.938 63.4425L85.5569 63.1188ZM84.3137 63.8714L84.1725 63.3917L83.9319 63.4625L84.0731 63.9422L84.2143 64.4219L84.4549 64.3511L84.3137 63.8714ZM84.0731 63.9422L83.9319 63.4625L83.6914 63.5334L83.8325 64.013L83.9737 64.4927L84.2143 64.4219L84.0731 63.9422ZM83.8325 64.013L83.6914 63.5334C83.0204 63.7308 82.5358 64.1534 82.3695 64.8194L82.8546 64.9406L83.3398 65.0617C83.4033 64.8071 83.5706 64.6113 83.9737 64.4927L83.8325 64.013ZM82.8546 64.9406L82.3695 64.8194L82.318 65.0257L82.8032 65.1468L83.2883 65.2679L83.3398 65.0617L82.8546 64.9406ZM82.8032 65.1468L82.318 65.0257L82.2665 65.2319L82.7517 65.3531L83.2368 65.4742L83.2883 65.2679L82.8032 65.1468ZM82.7517 65.3531L82.2665 65.2319C82.1684 65.6251 82.0026 65.9542 81.7735 66.2287L82.1574 66.5491L82.5412 66.8694C82.8747 66.4699 83.1051 66.0017 83.2368 65.4742L82.7517 65.3531ZM82.1574 66.5491L81.7735 66.2287L81.6475 66.3797L82.0313 66.7001L82.4152 67.0204L82.5412 66.8694L82.1574 66.5491ZM82.0313 66.7001L81.6475 66.3797L81.5215 66.5307L81.9053 66.8511L82.2892 67.1714L82.4152 67.0204L82.0313 66.7001ZM81.9053 66.8511L81.5215 66.5307C81.2981 66.7983 81.0041 67.0106 80.6257 67.1632L80.8126 67.6269L80.9995 68.0907C81.5155 67.8827 81.95 67.5778 82.2892 67.1714L81.9053 66.8511ZM80.8126 67.6269L80.6257 67.1632L80.4253 67.2439L80.6122 67.7077L80.7991 68.1714L80.9995 68.0907L80.8126 67.6269ZM80.6122 67.7077L80.4253 67.2439L80.2249 67.3247L80.4118 67.7884L80.5987 68.2522L80.7991 68.1714L80.6122 67.7077ZM80.4118 67.7884L80.2249 67.3247C79.6678 67.5492 79.2476 67.932 78.9935 68.466L79.445 68.6809L79.8965 68.8957C80.0371 68.6002 80.2614 68.3881 80.5987 68.2522L80.4118 67.7884ZM79.445 68.6809L78.9935 68.466L78.9051 68.6519L79.3566 68.8667L79.8081 69.0815L79.8965 68.8957L79.445 68.6809ZM79.3566 68.8667L78.9051 68.6519L78.8167 68.8377L79.2682 69.0525L79.7197 69.2673L79.8081 69.0815L79.3566 68.8667ZM79.2682 69.0525L78.8167 68.8377C78.7623 68.952 78.6896 69.0258 78.593 69.0769C78.4893 69.1318 78.3319 69.1737 78.0961 69.1734L78.0954 69.6734L78.0947 70.1734C78.4434 70.1739 78.7737 70.1128 79.0609 69.9607C79.3553 69.8049 79.5767 69.5678 79.7197 69.2673L79.2682 69.0525ZM78.0954 69.6734L78.0961 69.1734L77.8342 69.173L77.8335 69.673L77.8328 70.173L78.0947 70.1734L78.0954 69.6734ZM77.8335 69.673L77.8342 69.173L77.5724 69.1727L77.5717 69.6727L77.571 70.1727L77.8328 70.173L77.8335 69.673ZM77.5717 69.6727L77.5724 69.1727C76.8849 69.1717 76.2835 69.3874 75.9105 69.9239L76.321 70.2093L76.7316 70.4947C76.8571 70.3141 77.0895 70.172 77.571 70.1727L77.5717 69.6727ZM76.321 70.2093L75.9105 69.9239L75.7988 70.0846L76.2094 70.37L76.6199 70.6554L76.7316 70.4947L76.321 70.2093ZM76.2094 70.37L75.7988 70.0846L75.6871 70.2452L76.0977 70.5306L76.5082 70.816L76.6199 70.6554L76.2094 70.37ZM76.0977 70.5306L75.6871 70.2452C75.3549 70.7231 75.2217 71.3716 75.2167 72.1188L75.7167 72.1222L76.2167 72.1256C76.2211 71.4678 76.3419 71.0553 76.5082 70.816L76.0977 70.5306ZM75.7167 72.1222L75.2167 72.1188L75.2146 72.4336L75.7146 72.437L76.2146 72.4403L76.2167 72.1256L75.7167 72.1222ZM75.7146 72.437L75.2146 72.4336L75.2125 72.7483L75.7124 72.7517L76.2124 72.7551L76.2146 72.4403L75.7146 72.437ZM75.7124 72.7517L75.2125 72.7483C75.2104 73.049 75.1496 73.1859 75.1086 73.2392C75.086 73.2685 75.0437 73.3115 74.8924 73.3129L74.897 73.8129L74.9016 74.3129C75.2892 74.3093 75.6522 74.173 75.9015 73.8485C76.1323 73.5481 76.2097 73.1569 76.2124 72.7551L75.7124 72.7517ZM74.897 73.8129L74.8924 73.3129L74.6509 73.3152L74.6555 73.8151L74.6602 74.3151L74.9016 74.3129L74.897 73.8129ZM74.6555 73.8151L74.6509 73.3152L74.4094 73.3174L74.4141 73.8174L74.4187 74.3174L74.6602 74.3151L74.6555 73.8151ZM74.4141 73.8174L74.4094 73.3174C73.8349 73.3227 73.3029 73.3899 72.8172 73.5245L72.9506 74.0063L73.0841 74.4882C73.4718 74.3808 73.9154 74.322 74.4187 74.3174L74.4141 73.8174ZM72.9506 74.0063L72.8172 73.5245L72.6215 73.5787L72.755 74.0605L72.8885 74.5424L73.0841 74.4882L72.9506 74.0063ZM72.755 74.0605L72.6215 73.5787L72.4258 73.6329L72.5593 74.1148L72.6928 74.5966L72.8885 74.5424L72.755 74.0605ZM72.5593 74.1148L72.4258 73.6329C71.8035 73.8053 71.3812 74.261 71.1368 74.8864L71.6026 75.0683L72.0683 75.2503C72.2261 74.8463 72.4416 74.6662 72.6928 74.5966L72.5593 74.1148ZM71.6026 75.0683L71.1368 74.8864L71.0467 75.117L71.5124 75.299L71.9782 75.4809L72.0683 75.2503L71.6026 75.0683ZM71.5124 75.299L71.0467 75.117L70.9566 75.3476L71.4223 75.5296L71.888 75.7116L71.9782 75.4809L71.5124 75.299ZM71.4223 75.5296L70.9566 75.3476C70.8883 75.5226 70.8141 75.581 70.765 75.6046C70.7107 75.6308 70.5999 75.656 70.3856 75.6023L70.2642 76.0874L70.1428 76.5724C70.4995 76.6617 70.8672 76.6654 71.1989 76.5056C71.5359 76.3433 71.7553 76.0514 71.888 75.7116L71.4223 75.5296ZM70.2642 76.0874L70.3856 75.6023L70.1298 75.5383L70.0084 76.0234L69.887 76.5084L70.1428 76.5724L70.2642 76.0874ZM70.0084 76.0234L70.1298 75.5383L69.8739 75.4743L69.7525 75.9593L69.6312 76.4444L69.887 76.5084L70.0084 76.0234ZM69.7525 75.9593L69.8739 75.4743C69.2251 75.3119 68.6098 75.3329 68.09 75.6324L68.3396 76.0656L68.5893 76.4988C68.8114 76.3708 69.138 76.3209 69.6312 76.4444L69.7525 75.9593ZM68.3396 76.0656L68.09 75.6324L67.9238 75.7281L68.1734 76.1614L68.4231 76.5946L68.5893 76.4988L68.3396 76.0656ZM68.1734 76.1614L67.9238 75.7281L67.7576 75.8239L68.0072 76.2571L68.2568 76.6904L68.4231 76.5946L68.1734 76.1614ZM68.0072 76.2571L67.7576 75.8239C67.4381 76.008 67.0924 76.1333 66.7175 76.1994L66.8044 76.6918L66.8913 77.1842C67.3782 77.0983 67.8344 76.9338 68.2568 76.6904L68.0072 76.2571ZM66.8044 76.6918L66.7175 76.1994L66.5244 76.2335L66.6113 76.7259L66.6982 77.2183L66.8913 77.1842L66.8044 76.6918ZM66.6113 76.7259L66.5244 76.2335L66.3313 76.2676L66.4183 76.76L66.5052 77.2524L66.6982 77.2183L66.6113 76.7259ZM66.4183 76.76L66.3313 76.2676C65.8389 76.3545 65.3796 76.5286 64.957 76.7894L65.2196 77.2149L65.4822 77.6404C65.796 77.4468 66.1358 77.3176 66.5052 77.2524L66.4183 76.76ZM65.2196 77.2149L64.957 76.7894L64.7921 76.8912L65.0547 77.3167L65.3173 77.7422L65.4822 77.6404L65.2196 77.2149ZM65.0547 77.3167L64.7921 76.8912L64.6271 76.993L64.8897 77.4185L65.1523 77.844L65.3173 77.7422L65.0547 77.3167ZM64.8897 77.4185L64.6271 76.993C64.2892 77.2015 63.9362 77.3701 63.5677 77.4992L63.733 77.9711L63.8983 78.443C64.3358 78.2897 64.7539 78.0899 65.1523 77.844L64.8897 77.4185ZM63.733 77.9711L63.5677 77.4992L63.3871 77.5625L63.5524 78.0344L63.7178 78.5062L63.8983 78.443L63.733 77.9711ZM63.5524 78.0344L63.3871 77.5625L63.2065 77.6258L63.3719 78.0976L63.5372 78.5695L63.7178 78.5062L63.5524 78.0344ZM63.3719 78.0976L63.2065 77.6258C62.7146 77.7982 62.2753 78.104 61.8865 78.5208L62.2522 78.8618L62.6178 79.2029C62.916 78.8832 63.2232 78.6796 63.5372 78.5695L63.3719 78.0976ZM62.2522 78.8618L61.8865 78.5208L61.7326 78.6858L62.0983 79.0268L62.4639 79.3679L62.6178 79.2029L62.2522 78.8618ZM62.0983 79.0268L61.7326 78.6858L61.5787 78.8508L61.9444 79.1918L62.31 79.5329L62.4639 79.3679L62.0983 79.0268ZM61.9444 79.1918L61.5787 78.8508C61.3127 79.136 61.0387 79.2578 60.7441 79.2683L60.7619 79.7679L60.7797 80.2676C61.3747 80.2464 61.8891 79.9841 62.31 79.5329L61.9444 79.1918ZM60.7619 79.7679L60.7441 79.2683L60.5448 79.2754L60.5626 79.775L60.5804 80.2747L60.7797 80.2676L60.7619 79.7679ZM60.5626 79.775L60.5448 79.2754L60.3455 79.2825L60.3633 79.7822L60.3811 80.2818L60.5804 80.2747L60.5626 79.775ZM60.3633 79.7822L60.3455 79.2825C59.7733 79.3029 59.2542 79.5256 58.7973 79.9152L59.1217 80.2957L59.4462 80.6761C59.755 80.4128 60.0635 80.2932 60.3811 80.2818L60.3633 79.7822ZM59.1217 80.2957L58.7973 79.9152L58.6258 80.0615L58.9502 80.4419L59.2747 80.8224L59.4462 80.6761L59.1217 80.2957ZM58.9502 80.4419L58.6258 80.0615L58.4542 80.2078L58.7787 80.5882L59.1031 80.9687L59.2747 80.8224L58.9502 80.4419ZM58.7787 80.5882L58.4542 80.2078C58.3497 80.2969 58.2721 80.3126 58.2021 80.3066C58.1145 80.2992 57.9702 80.2502 57.7634 80.0848L57.4511 80.4752L57.1387 80.8656C57.4342 81.102 57.7623 81.2728 58.1172 81.303C58.4898 81.3348 58.8248 81.206 59.1031 80.9687L58.7787 80.5882ZM57.4511 80.4752L57.7634 80.0848L57.5384 79.9048L57.226 80.2952L56.9137 80.6856L57.1387 80.8656L57.4511 80.4752ZM57.226 80.2952L57.5384 79.9048L57.3134 79.7247L57.001 80.1151L56.6886 80.5056L56.9137 80.6856L57.226 80.2952ZM57.001 80.1151L57.3134 79.7247C57.0054 79.4783 56.6406 79.3091 56.2395 79.3524C55.8347 79.3961 55.5182 79.6423 55.2794 79.9541L55.6762 80.2582L56.0731 80.5623C56.2152 80.3768 56.31 80.3506 56.3468 80.3466C56.3873 80.3423 56.4944 80.3501 56.6886 80.5056L57.001 80.1151ZM55.6762 80.2582L55.2794 79.9541L55.1087 80.1769L55.5056 80.481L55.9025 80.7851L56.0731 80.5623L55.6762 80.2582ZM55.5056 80.481L55.1087 80.1769L54.938 80.3996L55.3349 80.7037L55.7318 81.0078L55.9025 80.7851L55.5056 80.481ZM55.3349 80.7037L54.938 80.3996C54.7877 80.5958 54.6806 80.6433 54.6307 80.6538C54.5932 80.6617 54.5121 80.6655 54.359 80.5591L54.0735 80.9695L53.7879 81.3799C54.0949 81.5935 54.454 81.713 54.8369 81.6323C55.2075 81.5543 55.5012 81.3088 55.7318 81.0078L55.3349 80.7037ZM54.0735 80.9695L54.359 80.5591L54.1529 80.4157L53.8674 80.8261L53.5818 81.2365L53.7879 81.3799L54.0735 80.9695ZM53.8674 80.8261L54.1529 80.4157L53.9468 80.2723L53.6613 80.6827L53.3757 81.0932L53.5818 81.2365L53.8674 80.8261ZM53.6613 80.6827L53.9468 80.2723C53.6561 80.07 53.3342 79.9428 52.9883 79.9398C52.6395 79.9368 52.3193 80.0606 52.0365 80.2679L52.3321 80.6712L52.6277 81.0744C52.7711 80.9694 52.8855 80.939 52.9797 80.9398C53.0769 80.9406 53.2064 80.9754 53.3757 81.0932L53.6613 80.6827ZM52.3321 80.6712L52.0365 80.2679L51.8456 80.4079L52.1412 80.8111L52.4368 81.2144L52.6277 81.0744L52.3321 80.6712ZM52.1412 80.8111L51.8456 80.4079L51.6547 80.5478L51.9503 80.9511L52.2459 81.3543L52.4368 81.2144L52.1412 80.8111ZM51.9503 80.9511L51.6547 80.5478C51.3434 80.776 51.087 80.8018 50.831 80.706L50.6558 81.1743L50.4805 81.6426C51.0984 81.8738 51.705 81.7508 52.2459 81.3543L51.9503 80.9511ZM50.6558 81.1743L50.831 80.706L50.6352 80.6328L50.46 81.1011L50.2848 81.5693L50.4805 81.6426L50.6558 81.1743ZM50.46 81.1011L50.6352 80.6328L50.4395 80.5595L50.2642 81.0278L50.089 81.4961L50.2848 81.5693L50.46 81.1011ZM50.2642 81.0278L50.4395 80.5595C50.0684 80.4207 49.6973 80.1937 49.327 79.8668L48.9961 80.2417L48.6652 80.6165C49.1119 81.0108 49.5862 81.3079 50.089 81.4961L50.2642 81.0278ZM48.9961 80.2417L49.327 79.8668L49.144 79.7053L48.8131 80.0801L48.4822 80.455L48.6652 80.6165L48.9961 80.2417ZM48.8131 80.0801L49.144 79.7053L48.961 79.5437L48.6301 79.9186L48.2992 80.2934L48.4822 80.455L48.8131 80.0801ZM48.6301 79.9186L48.961 79.5437C48.4814 79.1204 47.9382 78.8818 47.3448 78.9207L47.3775 79.4196L47.4101 79.9185C47.6699 79.9015 47.9617 79.9956 48.2992 80.2934L48.6301 79.9186ZM47.3775 79.4196L47.3448 78.9207L47.1537 78.9332L47.1863 79.4321L47.219 79.931L47.4101 79.9185L47.3775 79.4196ZM47.1863 79.4321L47.1537 78.9332L46.9626 78.9457L46.9952 79.4446L47.0279 79.9436L47.219 79.931L47.1863 79.4321ZM46.9952 79.4446L46.9626 78.9457C46.5633 78.9718 46.1669 78.965 45.7729 78.9253L45.7228 79.4228L45.6727 79.9203C46.1221 79.9655 46.574 79.9733 47.0279 79.9436L46.9952 79.4446ZM45.7228 79.4228L45.7729 78.9253L45.584 78.9063L45.5339 79.4038L45.4838 79.9012L45.6727 79.9203L45.7228 79.4228ZM45.5339 79.4038L45.584 78.9063L45.395 78.8872L45.3449 79.3847L45.2948 79.8822L45.4838 79.9012L45.5339 79.4038ZM45.3449 79.3847L45.395 78.8872C44.9355 78.841 44.4668 78.8463 43.9896 78.902L44.0476 79.3987L44.1056 79.8953C44.5147 79.8475 44.9109 79.8435 45.2948 79.8822L45.3449 79.3847ZM44.0476 79.3987L43.9896 78.902L43.791 78.9252L43.849 79.4218L43.907 79.9185L44.1056 79.8953L44.0476 79.3987ZM43.849 79.4218L43.791 78.9252L43.5924 78.9484L43.6504 79.445L43.7084 79.9417L43.907 79.9185L43.849 79.4218ZM43.6504 79.445L43.5924 78.9484C43.2623 78.987 42.9615 78.9204 42.6725 78.7421L42.4101 79.1677L42.1476 79.5933C42.626 79.8883 43.1522 80.0066 43.7084 79.9417L43.6504 79.445ZM42.4101 79.1677L42.6725 78.7421L42.5006 78.6361L42.2381 79.0617L41.9757 79.4873L42.1476 79.5933L42.4101 79.1677ZM42.2381 79.0617L42.5006 78.6361L42.3287 78.5301L42.0662 78.9557L41.8038 79.3812L41.9757 79.4873L42.2381 79.0617ZM42.0662 78.9557L42.3287 78.5301C41.7641 78.1819 41.1302 78.2175 40.5092 78.5088L40.7215 78.9615L40.9339 79.4141C41.3383 79.2244 41.6009 79.2561 41.8038 79.3812L42.0662 78.9557ZM40.7215 78.9615L40.5092 78.5088L40.2795 78.6166L40.4918 79.0692L40.7041 79.5219L40.9339 79.4141L40.7215 78.9615ZM40.4918 79.0692L40.2795 78.6166L40.0497 78.7243L40.2621 79.177L40.4744 79.6297L40.7041 79.5219L40.4918 79.0692ZM40.2621 79.177L40.0497 78.7243C39.8697 78.8088 39.7788 78.796 39.7376 78.782C39.6926 78.7668 39.6033 78.7148 39.4959 78.5243L39.0603 78.7697L38.6247 79.015C38.8058 79.3366 39.0609 79.6085 39.4166 79.7291C39.7759 79.8509 40.1417 79.7857 40.4744 79.6297L40.2621 79.177ZM39.0603 78.7697L39.4959 78.5243L39.3667 78.2948L38.9311 78.5402L38.4954 78.7856L38.6247 79.015L39.0603 78.7697ZM38.9311 78.5402L39.3667 78.2948L39.2375 78.0654L38.8018 78.3108L38.3662 78.5562L38.4954 78.7856L38.9311 78.5402ZM38.8018 78.3108L39.2375 78.0654C39.0507 77.7338 38.7801 77.4621 38.4025 77.356C38.0312 77.2516 37.6544 77.3354 37.3096 77.5039L37.5291 77.9532L37.7486 78.4024C37.9638 78.2973 38.0791 78.3038 38.132 78.3187C38.1787 78.3318 38.2645 78.3757 38.3662 78.5562L38.8018 78.3108ZM37.5291 77.9532L37.3096 77.5039L37.0586 77.6265L37.2781 78.0758L37.4977 78.525L37.7486 78.4024L37.5291 77.9532ZM37.2781 78.0758L37.0586 77.6265L36.8077 77.7492L37.0272 78.1984L37.2467 78.6476L37.4977 78.525L37.2781 78.0758ZM37.0272 78.1984L36.8077 77.7492C36.2962 77.9991 35.8486 78.1112 35.4585 78.114L35.462 78.614L35.4655 79.114C36.0422 79.1099 36.6382 78.945 37.2467 78.6476L37.0272 78.1984ZM35.462 78.614L35.4585 78.114L35.2418 78.1155L35.2454 78.6155L35.2489 79.1155L35.4655 79.114L35.462 78.614ZM35.2454 78.6155L35.2418 78.1155L35.0252 78.117L35.0287 78.617L35.0323 79.117L35.2489 79.1155L35.2454 78.6155ZM35.0287 78.617L35.0252 78.117C34.6792 78.1195 34.4066 78.0027 34.1741 77.7563L33.8104 78.0993L33.4467 78.4425C33.8718 78.893 34.4114 79.1214 35.0323 79.117L35.0287 78.617ZM33.8104 78.0993L34.1741 77.7563L34.0268 77.6001L33.6631 77.9432L33.2994 78.2863L33.4467 78.4425L33.8104 78.0993ZM33.6631 77.9432L34.0268 77.6001L33.8795 77.444L33.5158 77.787L33.1521 78.1301L33.2994 78.2863L33.6631 77.9432ZM33.5158 77.787L33.8795 77.444C33.5486 77.0931 33.2204 76.7519 32.8948 76.4202L32.538 76.7705L32.1812 77.1207C32.5019 77.4475 32.8255 77.7839 33.1521 78.1301L33.5158 77.787ZM32.538 76.7705L32.8948 76.4202L32.7501 76.2727L32.3932 76.6229L32.0364 76.9732L32.1812 77.1207L32.538 76.7705ZM32.3932 76.6229L32.7501 76.2727L32.6053 76.1252L32.2485 76.4754L31.8916 76.8257L32.0364 76.9732L32.3932 76.6229ZM32.2485 76.4754L32.6053 76.1252C32.2689 75.7825 31.9213 75.4671 31.5622 75.1793L31.2495 75.5695L30.9368 75.9597C31.2634 76.2214 31.5817 76.5099 31.8916 76.8257L32.2485 76.4754ZM31.2495 75.5695L31.5622 75.1793L31.4086 75.0562L31.0959 75.4464L30.7832 75.8366L30.9368 75.9597L31.2495 75.5695ZM31.0959 75.4464L31.4086 75.0562L31.255 74.9331L30.9423 75.3233L30.6296 75.7135L30.7832 75.8366L31.0959 75.4464ZM30.9423 75.3233L31.255 74.9331C30.8995 74.6483 30.5336 74.3833 30.1571 74.1381L29.8842 74.557L29.6114 74.976C29.96 75.203 30.2994 75.4488 30.6296 75.7135L30.9423 75.3233ZM29.8842 74.557L30.1571 74.1381L29.9947 74.0323L29.7218 74.4512L29.4489 74.8702L29.6114 74.976L29.8842 74.557ZM29.7218 74.4512L29.9947 74.0323L29.8323 73.9265L29.5594 74.3454L29.2865 74.7644L29.4489 74.8702L29.7218 74.4512ZM29.5594 74.3454L29.8323 73.9265C29.5708 73.7561 29.3536 73.4903 29.1947 73.0934L28.7305 73.2793L28.2663 73.4651C28.4875 74.0175 28.8229 74.4625 29.2865 74.7644L29.5594 74.3454ZM28.7305 73.2793L29.1947 73.0934L29.1096 72.8808L28.6454 73.0666L28.1812 73.2525L28.2663 73.4651L28.7305 73.2793ZM28.6454 73.0666L29.1096 72.8808L29.0244 72.6681L28.5602 72.854L28.096 73.0398L28.1812 73.2525L28.6454 73.0666ZM28.5602 72.854L29.0244 72.6681C28.8923 72.3381 28.6727 72.0669 28.353 71.9023C28.0418 71.7421 27.6872 71.7095 27.326 71.7532L27.3861 72.2496L27.4461 72.746C27.6777 72.7179 27.8152 72.7502 27.8953 72.7914C27.967 72.8283 28.0381 72.8951 28.096 73.0398L28.5602 72.854ZM27.3861 72.2496L27.326 71.7532L27.0604 71.7853L27.1205 72.2817L27.1806 72.7781L27.4461 72.746L27.3861 72.2496ZM27.1205 72.2817L27.0604 71.7853L26.7949 71.8175L26.8549 72.3138L26.915 72.8102L27.1806 72.7781L27.1205 72.2817ZM26.8549 72.3138L26.7949 71.8175C26.2553 71.8827 25.8051 71.8472 25.4321 71.7306L25.2829 72.2078L25.1336 72.685C25.6713 72.8532 26.2691 72.8884 26.915 72.8102L26.8549 72.3138ZM25.2829 72.2078L25.4321 71.7306L25.2281 71.6668L25.0789 72.144L24.9296 72.6212L25.1336 72.685L25.2829 72.2078ZM25.0789 72.144L25.2281 71.6668L25.0241 71.603L24.8749 72.0802L24.7256 72.5574L24.9296 72.6212L25.0789 72.144ZM24.8749 72.0802L25.0241 71.603C24.7222 71.5086 24.5201 71.3207 24.3964 70.9935L23.9287 71.1703L23.461 71.3471C23.6882 71.9483 24.1169 72.367 24.7256 72.5574L24.8749 72.0802ZM23.9287 71.1703L24.3964 70.9935L24.3178 70.7855L23.8501 70.9623L23.3824 71.1391L23.461 71.3471L23.9287 71.1703ZM23.8501 70.9623L24.3178 70.7855L24.2392 70.5775L23.7715 70.7543L23.3037 70.9311L23.3824 71.1391L23.8501 70.9623ZM23.7715 70.7543L24.2392 70.5775C24.0144 69.9828 23.5966 69.5574 23.005 69.3378L22.8309 69.8065L22.6569 70.2752C22.9683 70.3909 23.1776 70.5974 23.3037 70.9311L23.7715 70.7543ZM22.8309 69.8065L23.005 69.3378L22.8026 69.2626L22.6286 69.7314L22.4545 70.2001L22.6569 70.2752L22.8309 69.8065ZM22.6286 69.7314L22.8026 69.2626L22.6003 69.1875L22.4263 69.6562L22.2522 70.125L22.4545 70.2001L22.6286 69.7314ZM22.4263 69.6562L22.6003 69.1875C22.4555 69.1337 22.3598 69.0589 22.2925 68.9687C22.2232 68.8756 22.1648 68.7397 22.1378 68.5378L21.6422 68.6039L21.1466 68.6699C21.1908 69.0019 21.2986 69.3084 21.4906 69.5661C21.6847 69.8266 21.9455 70.0111 22.2522 70.125L22.4263 69.6562ZM21.6422 68.6039L22.1378 68.5378L22.106 68.2986L21.6104 68.3647L21.1147 68.4307L21.1466 68.6699L21.6422 68.6039ZM21.6104 68.3647L22.106 68.2986L22.0741 68.0594L21.5785 68.1255L21.0829 68.1915L21.1147 68.4307L21.6104 68.3647ZM21.5785 68.1255L22.0741 68.0594C22.0295 67.725 21.9189 67.4169 21.7227 67.1576C21.525 66.8964 21.2602 66.7112 20.9499 66.5948L20.7743 67.0629L20.5986 67.5311C20.7533 67.5891 20.855 67.6682 20.9254 67.7612C20.9973 67.8561 21.0563 67.992 21.0829 68.1915L21.5785 68.1255ZM20.7743 67.0629L20.9499 66.5948L20.7415 66.5166L20.5659 66.9848L20.3903 67.4529L20.5986 67.5311L20.7743 67.0629ZM20.5659 66.9848L20.7415 66.5166L20.5332 66.4385L20.3576 66.9066L20.1819 67.3748L20.3903 67.4529L20.5659 66.9848ZM20.3576 66.9066L20.5332 66.4385C20.3809 66.3813 20.2917 66.3065 20.2353 66.2252C20.1773 66.1415 20.1296 66.0156 20.1199 65.8197L19.6205 65.8444L19.1211 65.869C19.1378 66.2069 19.2262 66.5249 19.4137 66.7953C19.603 67.0681 19.8692 67.2574 20.1819 67.3748L20.3576 66.9066ZM19.6205 65.8444L20.1199 65.8197L20.1081 65.5806L19.6087 65.6053L19.1093 65.6299L19.1211 65.869L19.6205 65.8444ZM19.6087 65.6053L20.1081 65.5806L20.0963 65.3415L19.5969 65.3661L19.0975 65.3908L19.1093 65.6299L19.6087 65.6053ZM19.5969 65.3661L20.0963 65.3415C20.0667 64.7424 19.9212 64.2058 19.6349 63.7553L19.2129 64.0235L18.7909 64.2916C18.9639 64.5639 19.0744 64.9224 19.0975 65.3908L19.5969 65.3661ZM19.2129 64.0235L19.6349 63.7553L19.532 63.5934L19.11 63.8615L18.688 64.1297L18.7909 64.2916L19.2129 64.0235ZM19.11 63.8615L19.532 63.5934L19.4291 63.4314L19.0071 63.6996L18.5851 63.9678L18.688 64.1297L19.11 63.8615ZM19.0071 63.6996L19.4291 63.4314C19.1457 62.9854 18.7415 62.6346 18.2388 62.3721L18.0073 62.8153L17.7759 63.2585C18.1468 63.4522 18.4092 63.691 18.5851 63.9678L19.0071 63.6996ZM18.0073 62.8153L18.2388 62.3721L18.043 62.2699L17.8116 62.7131L17.5801 63.1563L17.7759 63.2585L18.0073 62.8153ZM17.8116 62.7131L18.043 62.2699L17.8473 62.1677L17.6158 62.6109L17.3844 63.0541L17.5801 63.1563L17.8116 62.7131ZM17.6158 62.6109L17.8473 62.1677C17.405 61.9367 16.9427 61.7056 16.4604 61.4746L16.2444 61.9255L16.0283 62.3764C16.501 62.6029 16.953 62.8288 17.3844 63.0541L17.6158 62.6109ZM16.2444 61.9255L16.4604 61.4746L16.2465 61.3721L16.0304 61.823L15.8144 62.2739L16.0283 62.3764L16.2444 61.9255ZM16.0304 61.823L16.2465 61.3721L16.0326 61.2695L15.8165 61.7205L15.6004 62.1714L15.8144 62.2739L16.0304 61.823ZM15.8165 61.7205L16.0326 61.2695C15.6577 61.0899 15.4596 60.8558 15.3705 60.5744L14.8938 60.7253L14.4171 60.8763C14.6033 61.4642 15.0204 61.8934 15.6004 62.1714L15.8165 61.7205ZM14.8938 60.7253L15.3705 60.5744L15.3088 60.3796L14.8321 60.5306L14.3555 60.6816L14.4171 60.8763L14.8938 60.7253ZM14.8321 60.5306L15.3088 60.3796L15.2471 60.1849L14.7704 60.3359L14.2938 60.4868L14.3555 60.6816L14.8321 60.5306ZM14.7704 60.3359L15.2471 60.1849C15.1536 59.8897 15.1656 59.4944 15.3591 58.9653L14.8895 58.7935L14.4199 58.6218C14.1793 59.2798 14.112 59.9128 14.2938 60.4868L14.7704 60.3359ZM14.8895 58.7935L15.3591 58.9653L15.4563 58.6993L14.9868 58.5276L14.5172 58.3559L14.4199 58.6218L14.8895 58.7935ZM14.9868 58.5276L15.4563 58.6993L15.5536 58.4333L15.084 58.2616L14.6144 58.0899L14.5172 58.3559L14.9868 58.5276ZM15.084 58.2616L15.5536 58.4333C15.6887 58.0637 15.7285 57.6647 15.5533 57.299C15.3785 56.9344 15.0432 56.7139 14.671 56.5841L14.5064 57.0563L14.3417 57.5284C14.5717 57.6086 14.6336 57.694 14.6515 57.7312C14.6688 57.7673 14.6963 57.866 14.6144 58.0899L15.084 58.2616ZM14.5064 57.0563L14.671 56.5841L14.4012 56.49L14.2366 56.9622L14.0719 57.4343L14.3417 57.5284L14.5064 57.0563ZM14.2366 56.9622L14.4012 56.49L14.1314 56.396L13.9668 56.8681L13.8021 57.3402L14.0719 57.4343L14.2366 56.9622ZM13.9668 56.8681L14.1314 56.396C14.0208 56.3574 13.9604 56.3191 13.9302 56.2932C13.9159 56.2811 13.9094 56.2726 13.9068 56.2687C13.9045 56.2652 13.9037 56.2632 13.9032 56.2614C13.9015 56.2558 13.8793 56.1554 14.0324 55.8963L13.6019 55.6419L13.1715 55.3876C12.9657 55.7358 12.8248 56.1435 12.9447 56.5466C13.0708 56.9704 13.4279 57.2097 13.8021 57.3402L13.9668 56.8681ZM13.6019 55.6419L14.0324 55.8963L14.1932 55.6241L13.7627 55.3698L13.3323 55.1154L13.1715 55.3876L13.6019 55.6419ZM13.7627 55.3698L14.1932 55.6241L14.354 55.352L13.9235 55.0976L13.4931 54.8433L13.3323 55.1154L13.7627 55.3698ZM13.9235 55.0976L14.354 55.352C14.744 54.6919 14.923 53.9831 14.5551 53.3717L14.1267 53.6295L13.6983 53.8873C13.7773 54.0186 13.8208 54.2885 13.4931 54.8433L13.9235 55.0976ZM14.1267 53.6295L14.5551 53.3717L14.455 53.2054L14.0266 53.4632L13.5982 53.721L13.6983 53.8873L14.1267 53.6295ZM14.0266 53.4632L14.455 53.2054L14.3549 53.039L13.9265 53.2968L13.4981 53.5546L13.5982 53.721L14.0266 53.4632ZM13.9265 53.2968L14.3549 53.039C14.0867 52.5933 13.6928 52.2009 13.1968 51.8546L12.9106 52.2646L12.6244 52.6746C13.036 52.9619 13.3194 53.2576 13.4981 53.5546L13.9265 53.2968ZM12.9106 52.2646L13.1968 51.8546L12.9935 51.7127L12.7073 52.1227L12.4211 52.5327L12.6244 52.6746L12.9106 52.2646ZM12.7073 52.1227L12.9935 51.7127L12.7902 51.5708L12.504 51.9808L12.2178 52.3907L12.4211 52.5327L12.7073 52.1227ZM12.504 51.9808L12.7902 51.5708C12.6186 51.451 12.5347 51.34 12.4952 51.248C12.4578 51.1608 12.4437 51.0532 12.479 50.9038L11.9923 50.789L11.5057 50.6742C11.4282 51.0026 11.4431 51.3324 11.5763 51.6425C11.7073 51.9477 11.9356 52.1937 12.2178 52.3907L12.504 51.9808ZM11.9923 50.789L12.479 50.9038L12.5295 50.6898L12.0428 50.5749L11.5562 50.4601L11.5057 50.6742L11.9923 50.789ZM12.0428 50.5749L12.5295 50.6898L12.58 50.4757L12.0933 50.3609L11.6067 50.2461L11.5562 50.4601L12.0428 50.5749ZM12.0933 50.3609L12.58 50.4757C12.7068 49.9382 12.7268 49.4152 12.6277 48.9134L12.1372 49.0102L11.6467 49.1071C11.7145 49.4507 11.7053 49.8282 11.6067 50.2461L12.0933 50.3609ZM12.1372 49.0102L12.6277 48.9134L12.5903 48.7239L12.0998 48.8208L11.6093 48.9177L11.6467 49.1071L12.1372 49.0102ZM12.0998 48.8208L12.5903 48.7239L12.5529 48.5345L12.0624 48.6314L11.5719 48.7283L11.6093 48.9177L12.0998 48.8208ZM12.0624 48.6314L12.5529 48.5345C12.4374 47.9493 12.0528 47.4585 11.5087 47.0486L11.2079 47.448L10.907 47.8473C11.3353 48.1699 11.5205 48.4681 11.5719 48.7283L12.0624 48.6314ZM11.2079 47.448L11.5087 47.0486L11.2908 46.8845L10.99 47.2839L10.6892 47.6833L10.907 47.8473L11.2079 47.448ZM10.99 47.2839L11.2908 46.8845L11.073 46.7204L10.7722 47.1198L10.4714 47.5192L10.6892 47.6833L10.99 47.2839ZM10.7722 47.1198L11.073 46.7204C10.6645 46.4127 10.541 46.1359 10.54 45.8922L10.04 45.8943L9.54001 45.8964C9.54279 46.5543 9.90742 47.0944 10.4714 47.5192L10.7722 47.1198ZM10.04 45.8943L10.54 45.8922L10.5391 45.6902L10.0392 45.6923L9.53916 45.6945L9.54001 45.8964L10.04 45.8943ZM10.0392 45.6923L10.5391 45.6902L10.5383 45.4883L10.0383 45.4904L9.5383 45.4925L9.53916 45.6945L10.0392 45.6923ZM10.0383 45.4904L10.5383 45.4883C10.5363 45.0179 10.5067 44.5508 10.4494 44.0873L9.95315 44.1487L9.45693 44.21C9.50934 44.6339 9.53648 45.0614 9.5383 45.4925L10.0383 45.4904ZM9.95315 44.1487L10.4494 44.0873L10.4248 43.8885L9.92857 43.9499L9.43235 44.0112L9.45693 44.21L9.95315 44.1487ZM9.92857 43.9499L10.4248 43.8885L10.4002 43.6897L9.90399 43.7511L9.40777 43.8125L9.43235 44.0112L9.92857 43.9499ZM9.90399 43.7511L10.4002 43.6897C10.3808 43.5331 10.4654 43.2382 11.0641 42.807L10.7719 42.4013L10.4798 41.9955C9.81147 42.4768 9.31743 43.0817 9.40777 43.8125L9.90399 43.7511ZM10.7719 42.4013L11.0641 42.807L11.348 42.6026L11.0558 42.1969L10.7636 41.7911L10.4798 41.9955L10.7719 42.4013ZM11.0558 42.1969L11.348 42.6026L11.6318 42.3982L11.3396 41.9925L11.0474 41.5868L10.7636 41.7911L11.0558 42.1969ZM11.3396 41.9925L11.6318 42.3982C11.9828 42.1455 12.2871 41.8283 12.3777 41.427C12.4781 40.982 12.2854 40.5965 11.9942 40.3052L11.6406 40.6587L11.287 41.0122C11.3597 41.085 11.3876 41.1362 11.3977 41.1628C11.4056 41.1837 11.4051 41.1943 11.4022 41.2069C11.3925 41.2501 11.3299 41.3833 11.0474 41.5868L11.3396 41.9925ZM11.6406 40.6587L11.9942 40.3052L11.8002 40.1112L11.4466 40.4647L11.093 40.8182L11.287 41.0122L11.6406 40.6587ZM11.4466 40.4647L11.8002 40.1112L11.6063 39.9172L11.2527 40.2707L10.8991 40.6242L11.093 40.8182L11.4466 40.4647ZM11.2527 40.2707L11.6063 39.9172C11.254 39.5648 11.2368 39.3276 11.3013 39.1442L10.8297 38.9782L10.358 38.8122C10.1209 39.4862 10.3857 40.1106 10.8991 40.6242L11.2527 40.2707ZM10.8297 38.9782L11.3013 39.1442L11.3689 38.9521L10.8973 38.7862L10.4256 38.6202L10.358 38.8122L10.8297 38.9782ZM10.8973 38.7862L11.3689 38.9521L11.4365 38.7601L10.9649 38.5941L10.4932 38.4281L10.4256 38.6202L10.8973 38.7862ZM10.9649 38.5941L11.4365 38.7601C11.6316 38.2057 11.6027 37.6368 11.3737 37.0779L10.911 37.2675L10.4484 37.4571C10.5929 37.8097 10.5998 38.1252 10.4932 38.4281L10.9649 38.5941ZM10.911 37.2675L11.3737 37.0779L11.29 36.8738L10.8273 37.0634L10.3647 37.2529L10.4484 37.4571L10.911 37.2675ZM10.8273 37.0634L11.29 36.8738L11.2063 36.6696L10.7437 36.8592L10.281 37.0488L10.3647 37.2529L10.8273 37.0634ZM10.7437 36.8592L11.2063 36.6696C11.0347 36.2507 10.9226 35.836 10.8677 35.4247L10.3721 35.4909L9.8765 35.5571C9.9435 36.0587 10.0792 36.5562 10.281 37.0488L10.7437 36.8592ZM10.3721 35.4909L10.8677 35.4247L10.8404 35.2202L10.3448 35.2864L9.84919 35.3526L9.8765 35.5571L10.3721 35.4909ZM10.3448 35.2864L10.8404 35.2202L10.8131 35.0157L10.3175 35.0819L9.82188 35.148L9.84919 35.3526L10.3448 35.2864ZM10.3175 35.0819L10.8131 35.0157C10.765 34.6558 10.8185 34.3171 10.9761 33.9876L10.525 33.7719L10.0739 33.5563C9.83285 34.0604 9.74802 34.595 9.82188 35.148L10.3175 35.0819ZM10.525 33.7719L10.9761 33.9876L11.0654 33.8008L10.6143 33.5852L10.1632 33.3695L10.0739 33.5563L10.525 33.7719ZM10.6143 33.5852L11.0654 33.8008L11.1547 33.6141L10.7036 33.3984L10.2525 33.1827L10.1632 33.3695L10.6143 33.5852ZM10.7036 33.3984L11.1547 33.6141C11.3354 33.236 11.5688 32.8719 11.8569 32.5218L11.4709 32.2041L11.0848 31.8863C10.7485 32.295 10.4703 32.7271 10.2525 33.1827L10.7036 33.3984ZM11.4709 32.2041L11.8569 32.5218L11.9968 32.3518L11.6108 32.0341L11.2247 31.7163L11.0848 31.8863L11.4709 32.2041ZM11.6108 32.0341L11.9968 32.3518L12.1367 32.1818L11.7507 31.8641L11.3646 31.5464L11.2247 31.7163L11.6108 32.0341ZM11.7507 31.8641L12.1367 32.1818C12.5211 31.7147 12.7142 31.1775 12.6872 30.5879L12.1877 30.6107L11.6882 30.6336C11.703 30.9562 11.6047 31.2546 11.3646 31.5464L11.7507 31.8641ZM12.1877 30.6107L12.6872 30.5879L12.6778 30.3835L12.1783 30.4064L11.6788 30.4292L11.6882 30.6336L12.1877 30.6107ZM12.1783 30.4064L12.6778 30.3835L12.6684 30.1791L12.169 30.202L11.6695 30.2249L11.6788 30.4292L12.1783 30.4064ZM12.169 30.202L12.6684 30.1791C12.647 29.7119 12.6095 29.2334 12.5559 28.7438L12.0589 28.7981L11.5619 28.8525C11.6133 29.3224 11.6491 29.7798 11.6695 30.2249L12.169 30.202ZM12.0589 28.7981L12.5559 28.7438L12.5324 28.5288L12.0354 28.5832L11.5384 28.6375L11.5619 28.8525L12.0589 28.7981ZM12.0354 28.5832L12.5324 28.5288L12.5089 28.3138L12.0119 28.3682L11.5149 28.4226L11.5384 28.6375L12.0354 28.5832ZM12.0119 28.3682L12.5089 28.3138C12.4736 27.9908 12.5661 27.7308 12.8112 27.4926L12.4628 27.134L12.1144 26.7754C11.6534 27.2233 11.4452 27.786 11.5149 28.4226L12.0119 28.3682ZM12.4628 27.134L12.8112 27.4926L12.9694 27.3389L12.621 26.9803L12.2726 26.6217L12.1144 26.7754L12.4628 27.134ZM12.621 26.9803L12.9694 27.3389L13.1276 27.1852L12.7792 26.8266L12.4308 26.468L12.2726 26.6217L12.621 26.9803ZM12.7792 26.8266L13.1276 27.1852C13.5292 26.7951 13.8246 26.3528 13.9988 25.858L13.5272 25.6919L13.0556 25.5258C12.9387 25.8579 12.7354 26.1721 12.4308 26.468L12.7792 26.8266ZM13.5272 25.6919L13.9988 25.858L14.0641 25.6728L13.5925 25.5067L13.1209 25.3406L13.0556 25.5258L13.5272 25.6919ZM13.5925 25.5067L14.0641 25.6728L14.1293 25.4875L13.6577 25.3214L13.1861 25.1553L13.1209 25.3406L13.5925 25.5067ZM13.6577 25.3214L14.1293 25.4875C14.2217 25.2253 14.4316 24.9811 14.8404 24.775L14.6152 24.3286L14.3901 23.8821C13.8133 24.173 13.385 24.5907 13.1861 25.1553L13.6577 25.3214ZM14.6152 24.3286L14.8404 24.775L15.0611 24.6637L14.836 24.2172L14.6108 23.7708L14.3901 23.8821L14.6152 24.3286ZM14.836 24.2172L15.0611 24.6637L15.2819 24.5523L15.0568 24.1059L14.8316 23.6594L14.6108 23.7708L14.836 24.2172ZM15.0568 24.1059L15.2819 24.5523C15.8865 24.2474 16.2948 23.7727 16.3775 23.1207L15.8815 23.0578L15.3855 22.9949C15.354 23.2433 15.2125 23.4673 14.8316 23.6594L15.0568 24.1059ZM15.8815 23.0578L16.3775 23.1207L16.4031 22.919L15.9071 22.8561L15.411 22.7932L15.3855 22.9949L15.8815 23.0578ZM15.9071 22.8561L16.4031 22.919L16.4287 22.7172L15.9327 22.6543L15.4366 22.5914L15.411 22.7932L15.9071 22.8561ZM15.9327 22.6543L16.4287 22.7172C16.4792 22.3189 16.5877 21.9536 16.7523 21.6182L16.3035 21.3979L15.8546 21.1776C15.639 21.617 15.5003 22.0894 15.4366 22.5914L15.9327 22.6543ZM16.3035 21.3979L16.7523 21.6182L16.8375 21.4446L16.3886 21.2243L15.9398 21.004L15.8546 21.1776L16.3035 21.3979ZM16.3886 21.2243L16.8375 21.4446L16.9227 21.271L16.4738 21.0507L16.025 20.8305L15.9398 21.004L16.3886 21.2243ZM16.4738 21.0507L16.9227 21.271C17.0623 20.9866 17.2923 20.745 17.6412 20.5506L17.3979 20.1138L17.1546 19.677C16.6517 19.9571 16.2656 20.34 16.025 20.8305L16.4738 21.0507ZM17.3979 20.1138L17.6412 20.5506L17.8321 20.4443L17.5888 20.0075L17.3455 19.5707L17.1546 19.677L17.3979 20.1138ZM17.5888 20.0075L17.8321 20.4443L18.0229 20.338L17.7796 19.9012L17.5363 19.4644L17.3455 19.5707L17.5888 20.0075ZM17.7796 19.9012L18.0229 20.338C18.5791 20.0283 18.9242 19.5451 19.0186 18.9192L18.5241 18.8447L18.0297 18.7702C17.9833 19.0785 17.8321 19.2997 17.5363 19.4644L17.7796 19.9012ZM18.5241 18.8447L19.0186 18.9192L19.0501 18.7099L18.5557 18.6354L18.0613 18.5609L18.0297 18.7702L18.5241 18.8447ZM18.5557 18.6354L19.0501 18.7099L19.0817 18.5006L18.5872 18.4261L18.0928 18.3516L18.0613 18.5609L18.5557 18.6354ZM18.5872 18.4261L19.0817 18.5006C19.1247 18.2149 19.266 18.027 19.5683 17.9001L19.3747 17.4391L19.1811 16.9781C18.5743 17.2329 18.1906 17.703 18.0928 18.3516L18.5872 18.4261ZM19.3747 17.4391L19.5683 17.9001L19.772 17.8145L19.5784 17.3535L19.3848 16.8925L19.1811 16.9781L19.3747 17.4391ZM19.5784 17.3535L19.772 17.8145L19.9756 17.729L19.782 17.268L19.5884 16.807L19.3848 16.8925L19.5784 17.3535ZM19.782 17.268L19.9756 17.729C20.5692 17.4797 20.9658 17.032 21.1132 16.4102L20.6266 16.2949L20.1401 16.1796C20.0705 16.4735 19.904 16.6744 19.5884 16.807L19.782 17.268ZM20.6266 16.2949L21.1132 16.4102L21.1618 16.205L20.6753 16.0897L20.1887 15.9744L20.1401 16.1796L20.6266 16.2949ZM20.6753 16.0897L21.1618 16.205L21.2104 15.9999L20.7239 15.8846L20.2374 15.7693L20.1887 15.9744L20.6753 16.0897ZM20.7239 15.8846L21.2104 15.9999C21.3347 15.4755 21.3603 14.8736 21.3021 14.2046L20.804 14.2479L20.3059 14.2912C20.3579 14.8887 20.3301 15.378 20.2374 15.7693L20.7239 15.8846ZM20.804 14.2479L21.3021 14.2046L21.2775 13.9208L20.7793 13.9641L20.2812 14.0075L20.3059 14.2912L20.804 14.2479ZM20.7793 13.9641L21.2775 13.9208L21.2528 13.637L20.7547 13.6804L20.2565 13.7237L20.2812 14.0075L20.7793 13.9641ZM20.7547 13.6804L21.2528 13.637C21.2311 13.3878 21.282 13.2925 21.3058 13.2625C21.3235 13.2401 21.383 13.1811 21.5918 13.1663L21.5563 12.6675L21.5208 12.1688C21.1401 12.1959 20.7712 12.3266 20.5217 12.6419C20.2782 12.9495 20.2231 13.3396 20.2565 13.7237L20.7547 13.6804ZM21.5563 12.6675L21.5918 13.1663L21.8559 13.1475L21.8205 12.6487L21.785 12.15L21.5208 12.1688L21.5563 12.6675ZM21.8205 12.6487L21.8559 13.1475L22.1201 13.1287L22.0846 12.6299L22.0491 12.1312L21.785 12.15L21.8205 12.6487ZM22.0846 12.6299L22.1201 13.1287C22.8096 13.0796 23.3968 12.8263 23.7526 12.2839L23.3345 12.0096L22.9165 11.7354C22.7848 11.9362 22.5386 12.0964 22.0491 12.1312L22.0846 12.6299ZM23.3345 12.0096L23.7526 12.2839L23.8618 12.1174L23.4438 11.8432L23.0257 11.5689L22.9165 11.7354L23.3345 12.0096ZM23.4438 11.8432L23.8618 12.1174L23.9711 11.9509L23.553 11.6767L23.1349 11.4024L23.0257 11.5689L23.4438 11.8432ZM23.553 11.6767L23.9711 11.9509C24.1825 11.6286 24.439 11.3585 24.7416 11.1376L24.4469 10.7338L24.1521 10.3299C23.7504 10.623 23.411 10.9815 23.1349 11.4024L23.553 11.6767ZM24.4469 10.7338L24.7416 11.1376L24.8994 11.0225L24.6046 10.6186L24.3099 10.2147L24.1521 10.3299L24.4469 10.7338ZM24.6046 10.6186L24.8994 11.0225L25.0572 10.9073L24.7624 10.5034L24.4676 10.0996L24.3099 10.2147L24.6046 10.6186ZM24.7624 10.5034L25.0572 10.9073C25.367 10.6812 25.7144 10.5009 26.1019 10.3676L25.9393 9.89477L25.7766 9.42196C25.2993 9.58618 24.862 9.8117 24.4676 10.0996L24.7624 10.5034ZM25.9393 9.89477L26.1019 10.3676L26.2957 10.3009L26.1331 9.82811L25.9704 9.3553L25.7766 9.42196L25.9393 9.89477ZM26.1331 9.82811L26.2957 10.3009L26.4895 10.2343L26.3268 9.76145L26.1642 9.28865L25.9704 9.3553L26.1331 9.82811ZM26.3268 9.76145L26.4895 10.2343C27.1398 10.0106 27.5001 9.46282 27.6371 8.76797L27.1466 8.6712L26.656 8.57444C26.565 9.03571 26.3788 9.2148 26.1642 9.28865L26.3268 9.76145ZM27.1466 8.6712L27.6371 8.76797L27.6882 8.50897L27.1977 8.4122L26.7071 8.31544L26.656 8.57444L27.1466 8.6712ZM27.1977 8.4122L27.6882 8.50897L27.7393 8.24997L27.2488 8.1532L26.7582 8.05644L26.7071 8.31544L27.1977 8.4122ZM27.2488 8.1532L27.7393 8.24997C27.7851 8.01804 27.8578 7.87344 27.9325 7.78445C28.0019 7.70166 28.091 7.64455 28.2212 7.61456L28.109 7.12732L27.9967 6.64009C27.6674 6.71595 27.3835 6.88275 27.1662 7.14192C26.9541 7.39489 26.8265 7.71031 26.7582 8.05644L27.2488 8.1532ZM28.109 7.12732L28.2212 7.61456L28.4271 7.56713L28.3148 7.07989L28.2026 6.59266L27.9967 6.64009L28.109 7.12732ZM28.3148 7.07989L28.4271 7.56713L28.6329 7.5197L28.5207 7.03246L28.4084 6.54523L28.2026 6.59266L28.3148 7.07989ZM28.5207 7.03246L28.6329 7.5197C29.0575 7.42188 29.503 7.36698 29.9702 7.3561L29.9585 6.85623L29.9469 6.35637C29.4159 6.36874 28.9028 6.43133 28.4084 6.54523L28.5207 7.03246ZM29.9585 6.85623L29.9702 7.3561L30.1938 7.35089L30.1821 6.85102L30.1705 6.35116L29.9469 6.35637L29.9585 6.85623ZM30.1821 6.85102L30.1938 7.35089L30.4174 7.34568L30.4058 6.84581L30.3941 6.34595L30.1705 6.35116L30.1821 6.85102ZM30.4058 6.84581L30.4174 7.34568C30.7804 7.33722 31.1117 7.21228 31.3737 6.95499C31.6252 6.70808 31.7772 6.37461 31.8653 6.00669L31.3791 5.89025L30.8928 5.77381C30.8312 6.0313 30.7461 6.1698 30.6731 6.24141C30.6108 6.30264 30.5303 6.34278 30.3941 6.34595L30.4058 6.84581ZM31.3791 5.89025L31.8653 6.00669L31.9324 5.72648L31.4462 5.61003L30.9599 5.49359L30.8928 5.77381L31.3791 5.89025ZM31.4462 5.61003L31.9324 5.72648L31.9995 5.44626L31.5133 5.32982L31.027 5.21338L30.9599 5.49359L31.4462 5.61003ZM31.5133 5.32982L31.9995 5.44626C32.0625 5.1833 32.1482 5.02247 32.2307 4.92791C32.3055 4.84224 32.3906 4.795 32.5051 4.77696L32.4272 4.28306L32.3494 3.78916C32.0043 3.84355 31.7073 4.00698 31.4775 4.27023C31.2554 4.52459 31.1138 4.85092 31.027 5.21338L31.5133 5.32982ZM32.4272 4.28306L32.5051 4.77696L32.7109 4.74451L32.6331 4.25061L32.5552 3.75671L32.3494 3.78916L32.4272 4.28306ZM32.6331 4.25061L32.7109 4.74451L32.9168 4.71206L32.839 4.21816L32.7611 3.72425L32.5552 3.75671L32.6331 4.25061ZM32.839 4.21816L32.9168 4.71206C33.2801 4.65479 33.7063 4.69461 34.2063 4.8593L34.3627 4.3844L34.5192 3.9095C33.9065 3.70767 33.3168 3.63666 32.7611 3.72425L32.839 4.21816ZM34.3627 4.3844L34.2063 4.8593L34.4556 4.9414L34.612 4.4665L34.7684 3.9916L34.5192 3.9095L34.3627 4.3844ZM34.612 4.4665L34.4556 4.9414L34.7048 5.02351L34.8613 4.54861L35.0177 4.07371L34.7684 3.9916L34.612 4.4665ZM34.8613 4.54861L34.7048 5.02351C35.042 5.13455 35.3837 5.17487 35.7121 5.10171C36.0483 5.0268 36.3281 4.84213 36.5465 4.57694L36.1605 4.25911L35.7745 3.94128C35.6831 4.05235 35.5915 4.10406 35.4946 4.12565C35.3899 4.14898 35.2369 4.14593 35.0177 4.07371L34.8613 4.54861ZM36.1605 4.25911L36.5465 4.57694L36.6853 4.40835L36.2993 4.09053L35.9133 3.7727L35.7745 3.94128L36.1605 4.25911ZM36.2993 4.09053L36.6853 4.40835L36.8241 4.23977L36.4381 3.92194L36.0522 3.60411L35.9133 3.7727L36.2993 4.09053ZM36.4381 3.92194L36.8241 4.23977C37.1398 3.85645 37.4576 3.44895 37.7776 3.01741L37.3759 2.71959L36.9743 2.42177C36.6636 2.84086 36.3562 3.23492 36.0522 3.60411L36.4381 3.92194ZM37.3759 2.71959L37.7776 3.01741L37.9189 2.82685L37.5173 2.52903L37.1156 2.23121L36.9743 2.42177L37.3759 2.71959ZM37.5173 2.52903L37.9189 2.82685L38.0602 2.63629L37.6586 2.33847L37.2569 2.04065L37.1156 2.23121L37.5173 2.52903ZM37.6586 2.33847L38.0602 2.63629C38.3113 2.29763 38.5804 2.14151 38.8696 2.10023L38.7989 1.60525L38.7282 1.11026C38.1277 1.19599 37.6366 1.52869 37.2569 2.04065L37.6586 2.33847ZM38.7989 1.60525L38.8696 2.10023L39.0689 2.07177L38.9982 1.57679L38.9275 1.08181L38.7282 1.11026L38.7989 1.60525ZM38.9982 1.57679L39.0689 2.07177L39.2682 2.04332L39.1975 1.54834L39.1268 1.05336L38.9275 1.08181L38.9982 1.57679ZM39.1975 1.54834L39.2682 2.04332C39.712 1.97995 40.1537 1.91823 40.5931 1.85816L40.5254 1.36277L40.4577 0.867376C40.0162 0.927719 39.5726 0.989713 39.1268 1.05336L39.1975 1.54834ZM40.5254 1.36277L40.5931 1.85816L40.7904 1.83118L40.7227 1.33579L40.655 0.840399L40.4577 0.867376L40.5254 1.36277ZM40.7227 1.33579L40.7904 1.83118L40.9878 1.80421L40.92 1.30882L40.8523 0.813423L40.655 0.840399L40.7227 1.33579ZM40.92 1.30882L40.9878 1.80421C41.3152 1.75944 41.6853 1.81689 42.1099 2.01204L42.3187 1.55773L42.5276 1.10342C41.9681 0.846271 41.4057 0.737775 40.8523 0.813423L40.92 1.30882ZM42.3187 1.55773L42.1099 2.01204L42.3304 2.11337L42.5392 1.65906L42.748 1.20474L42.5276 1.10342L42.3187 1.55773ZM42.5392 1.65906L42.3304 2.11337L42.5509 2.2147L42.7597 1.76038L42.9685 1.30607L42.748 1.20474L42.5392 1.65906ZM42.7597 1.76038L42.5509 2.2147C43.1335 2.48246 43.7249 2.54829 44.287 2.33573L44.1102 1.86805L43.9333 1.40036C43.6789 1.49656 43.37 1.49061 42.9685 1.30607L42.7597 1.76038ZM44.1102 1.86805L44.287 2.33573L44.47 2.26656L44.2931 1.79888L44.1163 1.33119L43.9333 1.40036L44.1102 1.86805ZM44.2931 1.79888L44.47 2.26656L44.6529 2.19739L44.476 1.72971L44.2992 1.26203L44.1163 1.33119L44.2931 1.79888ZM44.476 1.72971L44.6529 2.19739C44.9696 2.07764 45.2984 2.0516 45.651 2.12391L45.7514 1.63411L45.8519 1.1443C45.3205 1.03533 44.799 1.07303 44.2992 1.26203L44.476 1.72971ZM45.7514 1.63411L45.651 2.12391L45.849 2.16452L45.9495 1.67472L46.0499 1.18491L45.8519 1.1443L45.7514 1.63411ZM45.9495 1.67472L45.849 2.16452L46.047 2.20514L46.1475 1.71533L46.2479 1.22552L46.0499 1.18491L45.9495 1.67472ZM46.1475 1.71533L46.047 2.20514C46.5925 2.317 47.1268 2.25703 47.6349 2.02757L47.4291 1.57188L47.2233 1.1162C46.9065 1.25928 46.5864 1.29495 46.2479 1.22552L46.1475 1.71533ZM47.4291 1.57188L47.6349 2.02757L47.8197 1.94411L47.6139 1.48843L47.4081 1.03274L47.2233 1.1162L47.4291 1.57188ZM47.6139 1.48843L47.8197 1.94411L48.0045 1.86065L47.7987 1.40497L47.5929 0.949284L47.4081 1.03274L47.6139 1.48843ZM47.7987 1.40497L48.0045 1.86065C48.3624 1.69901 48.7216 1.61204 49.0849 1.59525L49.0618 1.09579L49.0388 0.59632C48.5427 0.619236 48.0599 0.738379 47.5929 0.949284L47.7987 1.40497ZM49.0618 1.09579L49.0849 1.59525L49.2774 1.58636L49.2543 1.08689L49.2313 0.587426L49.0388 0.59632L49.0618 1.09579ZM49.2543 1.08689L49.2774 1.58636L49.4699 1.57747L49.4468 1.078L49.4238 0.578533L49.2313 0.587426L49.2543 1.08689ZM49.4468 1.078L49.4699 1.57747C49.893 1.55792 50.3172 1.54669 50.7425 1.54379L50.739 1.0438L50.7356 0.543812C50.2973 0.546808 49.86 0.55838 49.4238 0.578533L49.4468 1.078ZM50.739 1.0438L50.7425 1.54379L50.9359 1.54247L50.9325 1.04248L50.9291 0.54249L50.7356 0.543812L50.739 1.0438ZM50.9325 1.04248L50.9359 1.54247L51.1294 1.54115L51.126 1.04116L51.1226 0.541168L50.9291 0.54249L50.9325 1.04248ZM51.126 1.04116L51.1294 1.54115C51.5063 1.53857 51.8804 1.5968 52.2536 1.71759L52.4075 1.24189L52.5615 0.766188C52.0896 0.613437 51.6094 0.537843 51.1226 0.541168L51.126 1.04116ZM52.4075 1.24189L52.2536 1.71759L52.4429 1.77887L52.5969 1.30317L52.7508 0.827469L52.5615 0.766188L52.4075 1.24189ZM52.5969 1.30317L52.4429 1.77887L52.6322 1.84015L52.7862 1.36445L52.9402 0.88875L52.7508 0.827469L52.5969 1.30317ZM52.7862 1.36445L52.6322 1.84015C53.2446 2.03839 53.8491 1.87841 54.4001 1.48834L54.1112 1.08026L53.8223 0.67217C53.4517 0.934566 53.1728 0.964056 52.9402 0.88875L52.7862 1.36445ZM54.1112 1.08026L54.4001 1.48834L54.6066 1.34217L54.3177 0.934087L54.0288 0.526L53.8223 0.67217L54.1112 1.08026ZM54.3177 0.934087L54.6066 1.34217L54.8131 1.196L54.5242 0.787918L54.2353 0.379831L54.0288 0.526L54.3177 0.934087ZM54.5242 0.787918L54.8131 1.196C54.9937 1.06811 55.1393 1.01611 55.2529 1.00335C55.3604 0.991272 55.4691 1.01058 55.5913 1.07826L55.8335 0.640837L56.0757 0.203412C55.7859 0.0429171 55.4703 -0.0273536 55.1413 0.00959742C54.8185 0.0458579 54.5154 0.181494 54.2353 0.379831L54.5242 0.787918ZM55.8335 0.640837L55.5913 1.07826L55.776 1.1805L56.0182 0.743073L56.2604 0.305648L56.0757 0.203412L55.8335 0.640837ZM56.0182 0.743073L55.776 1.1805L55.9606 1.28273L56.2028 0.845309L56.445 0.407885L56.2604 0.305648L56.0182 0.743073ZM56.2028 0.845309L55.9606 1.28273C56.3599 1.50381 56.749 1.74215 57.1278 1.99777L57.4075 1.5833L57.6871 1.16882C57.284 0.896823 56.87 0.64317 56.445 0.407885L56.2028 0.845309ZM57.4075 1.5833L57.1278 1.99777L57.303 2.11597L57.5827 1.7015L57.8623 1.28702L57.6871 1.16882L57.4075 1.5833ZM57.5827 1.7015L57.303 2.11597L57.4782 2.23418L57.7579 1.8197L58.0375 1.40522L57.8623 1.28702L57.5827 1.7015ZM57.7579 1.8197L57.4782 2.23418C57.7594 2.4239 58.0764 2.51692 58.4154 2.49881C58.7461 2.48114 59.0661 2.3597 59.3694 2.17393L59.1083 1.74754L58.8472 1.32115C58.6412 1.44729 58.4815 1.49385 58.362 1.50023C58.2508 1.50617 58.1473 1.47931 58.0375 1.40522L57.7579 1.8197ZM59.1083 1.74754L59.3694 2.17393L59.5976 2.03417L59.3365 1.60778L59.0754 1.18139L58.8472 1.32115L59.1083 1.74754ZM59.3365 1.60778L59.5976 2.03417L59.8258 1.89441L59.5647 1.46802L59.3036 1.04164L59.0754 1.18139L59.3365 1.60778ZM59.5647 1.46802L59.8258 1.89441C60.0184 1.77647 60.1277 1.77176 60.179 1.78042C60.2241 1.78805 60.309 1.82005 60.4236 1.97659L60.8271 1.68133L61.2306 1.38607C61.0129 1.08849 60.7212 0.857872 60.3456 0.7944C59.976 0.731957 59.6203 0.847664 59.3036 1.04164L59.5647 1.46802ZM60.8271 1.68133L60.4236 1.97659L60.5725 2.18006L60.976 1.8848L61.3795 1.58955L61.2306 1.38607L60.8271 1.68133ZM60.976 1.8848L60.5725 2.18006L60.7214 2.38353L61.1249 2.08828L61.5284 1.79302L61.3795 1.58955L60.976 1.8848ZM61.1249 2.08828L60.7214 2.38353C61.0707 2.86092 61.4349 3.27005 61.8156 3.60603L62.1465 3.23112L62.4773 2.85622C62.1605 2.57665 61.8437 2.22389 61.5284 1.79302L61.1249 2.08828ZM62.1465 3.23112L61.8156 3.60603L61.9719 3.74392L62.3027 3.36902L62.6336 2.99412L62.4773 2.85622L62.1465 3.23112ZM62.3027 3.36902L61.9719 3.74392L62.1282 3.88182L62.459 3.50692L62.7898 3.13202L62.6336 2.99412L62.3027 3.36902ZM62.459 3.50692L62.1282 3.88182C62.3988 4.12064 62.7275 4.2379 63.0884 4.22282C63.4326 4.20845 63.7747 4.07563 64.1043 3.87751L63.8468 3.44895L63.5892 3.0204C63.3425 3.1687 63.165 3.21875 63.0467 3.22369C62.945 3.22794 62.868 3.20097 62.7898 3.13202L62.459 3.50692ZM63.8468 3.44895L64.1043 3.87751L64.3626 3.7223L64.105 3.29374L63.8475 2.86518L63.5892 3.0204L63.8468 3.44895ZM64.105 3.29374L64.3626 3.7223L64.6209 3.56709L64.3633 3.13853L64.1057 2.70997L63.8475 2.86518L64.105 3.29374ZM64.3633 3.13853L64.6209 3.56709C64.8621 3.42211 64.9924 3.41329 65.043 3.42078C65.0682 3.42451 65.1297 3.43748 65.2148 3.58203L65.6456 3.32832L66.0765 3.07462C65.8831 2.74623 65.5916 2.49109 65.1894 2.43155C64.8125 2.37578 64.4409 2.50854 64.1057 2.70997L64.3633 3.13853ZM65.6456 3.32832L65.2148 3.58203L65.3396 3.79393L65.7704 3.54023L66.2013 3.28652L66.0765 3.07462L65.6456 3.32832ZM65.7704 3.54023L65.3396 3.79393L65.4644 4.00584L65.8952 3.75213L66.3261 3.49842L66.2013 3.28652L65.7704 3.54023ZM65.8952 3.75213L65.4644 4.00584C65.646 4.31427 65.8958 4.56213 66.2273 4.69368C66.5575 4.8247 66.9104 4.81727 67.2571 4.72304L67.1259 4.24055L66.9947 3.75806C66.7994 3.81116 66.6763 3.79599 66.5962 3.7642C66.5174 3.73295 66.4229 3.66294 66.3261 3.49842L65.8952 3.75213ZM67.1259 4.24055L67.2571 4.72304L67.4999 4.65702L67.3687 4.17453L67.2376 3.69204L66.9947 3.75806L67.1259 4.24055ZM67.3687 4.17453L67.4999 4.65702L67.7427 4.59101L67.6116 4.10852L67.4804 3.62603L67.2376 3.69204L67.3687 4.17453ZM67.6116 4.10852L67.7427 4.59101C67.923 4.542 67.9936 4.57439 68.0214 4.59202C68.061 4.61713 68.1443 4.69736 68.2161 4.93789L68.6952 4.79495L69.1744 4.65201C69.0656 4.28759 68.8781 3.95094 68.5565 3.74724C68.2231 3.53606 67.8421 3.5277 67.4804 3.62603L67.6116 4.10852ZM68.6952 4.79495L68.2161 4.93789L68.297 5.20895L68.7761 5.066L69.2552 4.92306L69.1744 4.65201L68.6952 4.79495ZM68.7761 5.066L68.297 5.20895L68.3778 5.48L68.857 5.33705L69.3361 5.19411L69.2552 4.92306L68.7761 5.066ZM68.857 5.33705L68.3778 5.48C68.4866 5.84453 68.6691 6.17408 68.9689 6.39082C69.2792 6.61518 69.6454 6.66864 70.0134 6.61028L69.935 6.11646L69.8567 5.62263C69.6865 5.64963 69.6038 5.61586 69.5548 5.58042C69.4952 5.53736 69.4078 5.43453 69.3361 5.19411L68.857 5.33705ZM69.935 6.11646L70.0134 6.61028L70.2545 6.57204L70.1762 6.07821L70.0979 5.58438L69.8567 5.62263L69.935 6.11646ZM70.1762 6.07821L70.2545 6.57204L70.4957 6.5338L70.4174 6.03997L70.339 5.54614L70.0979 5.58438L70.1762 6.07821ZM70.4174 6.03997L70.4957 6.5338C70.9558 6.46083 71.3099 6.51468 71.5875 6.65445L71.8124 6.20788L72.0373 5.7613C71.5313 5.50649 70.9554 5.4484 70.339 5.54614L70.4174 6.03997ZM71.8124 6.20788L71.5875 6.65445L71.7631 6.74285L71.9879 6.29627L72.2128 5.8497L72.0373 5.7613L71.8124 6.20788ZM71.9879 6.29627L71.7631 6.74285L71.9386 6.83125L72.1635 6.38467L72.3884 5.9381L72.2128 5.8497L71.9879 6.29627ZM72.1635 6.38467L71.9386 6.83125C72.3744 7.0507 72.8488 7.20953 73.359 7.31024L73.4559 6.8197L73.5527 6.32917C73.1233 6.24442 72.7362 6.11323 72.3884 5.9381L72.1635 6.38467ZM73.4559 6.8197L73.359 7.31024L73.5695 7.35179L73.6663 6.86125L73.7632 6.37072L73.5527 6.32917L73.4559 6.8197ZM73.6663 6.86125L73.5695 7.35179L73.78 7.39333L73.8768 6.9028L73.9737 6.41226L73.7632 6.37072L73.6663 6.86125ZM73.8768 6.9028L73.78 7.39333C74.13 7.46242 74.3897 7.62913 74.5861 7.90003L74.9909 7.60655L75.3957 7.31306C75.0462 6.83109 74.5632 6.52863 73.9737 6.41226L73.8768 6.9028ZM74.9909 7.60655L74.5861 7.90003L74.7084 8.0687L75.1132 7.77521L75.518 7.48172L75.3957 7.31306L74.9909 7.60655ZM75.1132 7.77521L74.7084 8.0687L74.8306 8.23736L75.2355 7.94387L75.6403 7.65039L75.518 7.48172L75.1132 7.77521ZM75.2355 7.94387L74.8306 8.23736C75.1249 8.64317 75.4534 9.00399 75.8167 9.3181L76.1438 8.93986L76.4707 8.56161C76.1689 8.30063 75.8919 7.99746 75.6403 7.65039L75.2355 7.94387ZM76.1438 8.93986L75.8167 9.3181L75.9658 9.44694L76.2928 9.06869L76.6198 8.69044L76.4707 8.56161L76.1438 8.93986ZM76.2928 9.06869L75.9658 9.44694L76.1148 9.57578L76.4418 9.19753L76.7688 8.81928L76.6198 8.69044L76.2928 9.06869ZM76.4418 9.19753L76.1148 9.57578C76.3845 9.8089 76.6027 10.1102 76.7654 10.4911L77.2252 10.2947L77.685 10.0982C77.4684 9.59137 77.1644 9.16126 76.7688 8.81928L76.4418 9.19753ZM77.2252 10.2947L76.7654 10.4911L76.8504 10.69L77.3102 10.4935L77.77 10.2971L77.685 10.0982L77.2252 10.2947ZM77.3102 10.4935L76.8504 10.69L76.9353 10.8888L77.3951 10.6924L77.8549 10.496L77.77 10.2971L77.3102 10.4935ZM77.3951 10.6924L76.9353 10.8888C77.1515 11.3947 77.4528 11.8224 77.8447 12.1589L78.1704 11.7795L78.496 11.4001C78.2336 11.1748 78.0181 10.8779 77.8549 10.496L77.3951 10.6924ZM78.1704 11.7795L77.8447 12.1589L77.9913 12.2847L78.317 11.9053L78.6426 11.5259L78.496 11.4001L78.1704 11.7795ZM78.317 11.9053L77.9913 12.2847L78.1379 12.4105L78.4636 12.0311L78.7892 11.6517L78.6426 11.5259L78.317 11.9053ZM78.4636 12.0311L78.1379 12.4105C78.5193 12.7379 78.9718 12.9868 79.4866 13.163L79.6485 12.6899L79.8104 12.2168C79.3997 12.0763 79.0623 11.8861 78.7892 11.6517L78.4636 12.0311ZM79.6485 12.6899L79.4866 13.163L79.6939 13.2339L79.8558 12.7608L80.0177 12.2878L79.8104 12.2168L79.6485 12.6899ZM79.8558 12.7608L79.6939 13.2339L79.9012 13.3049L80.0631 12.8318L80.225 12.3587L80.0177 12.2878L79.8558 12.7608ZM80.0631 12.8318L79.9012 13.3049C80.2945 13.4394 80.6024 13.6379 80.8398 13.894L81.2065 13.5541L81.5732 13.2142C81.2115 12.8239 80.7572 12.5408 80.225 12.3587L80.0631 12.8318ZM81.2065 13.5541L80.8398 13.894L80.974 14.0388L81.3408 13.6989L81.7075 13.359L81.5732 13.2142L81.2065 13.5541ZM81.3408 13.6989L80.974 14.0388L81.1083 14.1836L81.475 13.8437L81.8417 13.5039L81.7075 13.359L81.3408 13.6989ZM81.475 13.8437L81.1083 14.1836C81.4001 14.4985 81.6808 14.8229 81.9504 15.157L82.3395 14.843L82.7286 14.529C82.4446 14.1771 82.149 13.8354 81.8417 13.5039L81.475 13.8437ZM82.3395 14.843L81.9504 15.157L82.0744 15.3107L82.4635 14.9967L82.8526 14.6826L82.7286 14.529L82.3395 14.843ZM82.4635 14.9967L82.0744 15.3107L82.1984 15.4643L82.5875 15.1503L82.9766 14.8363L82.8526 14.6826L82.4635 14.9967ZM82.5875 15.1503L82.1984 15.4643C82.4284 15.7493 82.5974 16.0843 82.7024 16.4765L83.1854 16.3472L83.6684 16.2178C83.5298 15.7002 83.3002 15.2373 82.9766 14.8363L82.5875 15.1503ZM83.1854 16.3472L82.7024 16.4765L82.757 16.6803L83.24 16.551L83.723 16.4217L83.6684 16.2178L83.1854 16.3472ZM83.24 16.551L82.757 16.6803L82.8116 16.8841L83.2946 16.7548L83.7775 16.6255L83.723 16.4217L83.24 16.551ZM83.2946 16.7548L82.8116 16.8841C82.9873 17.5406 83.4735 17.9588 84.1397 18.1622L84.2857 17.684L84.4317 17.2058C84.02 17.0801 83.8454 16.8789 83.7775 16.6255L83.2946 16.7548ZM84.2857 17.684L84.1397 18.1622L84.3811 18.2359L84.5271 17.7577L84.6731 17.2795L84.4317 17.2058L84.2857 17.684ZM84.5271 17.7577L84.3811 18.2359L84.6226 18.3097L84.7686 17.8315L84.9146 17.3533L84.6731 17.2795L84.5271 17.7577ZM84.7686 17.8315L84.6226 18.3097C85.0599 18.4432 85.2839 18.6517 85.3936 18.8998L85.8509 18.6975L86.3081 18.4953C86.0527 17.9176 85.5551 17.5488 84.9146 17.3533L84.7686 17.8315ZM85.8509 18.6975L85.3936 18.8998L85.4754 19.0847L85.9327 18.8825L86.39 18.6802L86.3081 18.4953L85.8509 18.6975ZM85.9327 18.8825L85.4754 19.0847L85.5572 19.2697L86.0145 19.0674L86.4718 18.8652L86.39 18.6802L85.9327 18.8825ZM86.0145 19.0674L85.5572 19.2697C85.651 19.4817 85.6526 19.8586 85.3495 20.4951L85.8009 20.7101L86.2523 20.9251C86.5991 20.197 86.7431 19.4788 86.4718 18.8652L86.0145 19.0674ZM85.8009 20.7101L85.3495 20.4951L85.2039 20.8008L85.6553 21.0158L86.1067 21.2308L86.2523 20.9251L85.8009 20.7101ZM85.6553 21.0158L85.2039 20.8008L85.0583 21.1065L85.5097 21.3215L85.9611 21.5365L86.1067 21.2308L85.6553 21.0158ZM85.5097 21.3215L85.0583 21.1065C84.7171 21.8227 84.5676 22.5637 84.9532 23.1493L85.3708 22.8743L85.7883 22.5993C85.7092 22.4791 85.6522 22.1849 85.9611 21.5365L85.5097 21.3215ZM85.3708 22.8743L84.9532 23.1493L85.0573 23.3074L85.4749 23.0324L85.8925 22.7574L85.7883 22.5993L85.3708 22.8743ZM85.4749 23.0324L85.0573 23.3074L85.1614 23.4655L85.579 23.1905L85.9966 22.9155L85.8925 22.7574L85.4749 23.0324ZM85.579 23.1905L85.1614 23.4655C85.4858 23.9581 86.0442 24.2761 86.7247 24.4782L86.8671 23.9989L87.0095 23.5196C86.4373 23.3497 86.137 23.1287 85.9966 22.9155L85.579 23.1905ZM86.8671 23.9989L86.7247 24.4782L87.0054 24.5616L87.1477 24.0823L87.2901 23.603L87.0095 23.5196L86.8671 23.9989ZM87.1477 24.0823L87.0054 24.5616L87.286 24.6449L87.4284 24.1656L87.5707 23.6863L87.2901 23.603L87.1477 24.0823ZM87.4284 24.1656L87.286 24.6449C87.8573 24.8146 88.2424 25.0448 88.4861 25.3076L88.8528 24.9677L89.2194 24.6278C88.8166 24.1932 88.2522 23.8887 87.5707 23.6863L87.4284 24.1656ZM88.8528 24.9677L88.4861 25.3076L88.6309 25.4638L88.9976 25.1239L89.3643 24.784L89.2194 24.6278L88.8528 24.9677ZM88.9976 25.1239L88.6309 25.4638L88.7757 25.6201L89.1424 25.2801L89.5091 24.9402L89.3643 24.784L88.9976 25.1239ZM89.1424 25.2801L88.7757 25.6201C88.826 25.6742 88.8473 25.7265 88.8302 25.83C88.8083 25.9618 88.72 26.1682 88.4992 26.4577L88.8967 26.7609L89.2943 27.0642C89.5605 26.7152 89.7566 26.3555 89.8167 25.9937C89.8814 25.6036 89.7821 25.2347 89.5091 24.9402L89.1424 25.2801ZM88.8967 26.7609L88.4992 26.4577L88.2809 26.7438L88.6785 27.047L89.076 27.3503L89.2943 27.0642L88.8967 26.7609ZM88.6785 27.047L88.2809 26.7438L88.0627 27.0299L88.4603 27.3331L88.8578 27.6364L89.076 27.3503L88.6785 27.047ZM88.4603 27.3331L88.0627 27.0299C87.7972 27.3779 87.601 27.7327 87.5311 28.087C87.4567 28.4646 87.5296 28.8336 87.7818 29.1385L88.1671 28.8199L88.5524 28.5013C88.513 28.4536 88.489 28.3984 88.5122 28.2804C88.5401 28.1392 88.6362 27.9269 88.8578 27.6364L88.4603 27.3331ZM88.1671 28.8199L87.7818 29.1385L87.9124 29.2965L88.2978 28.9779L88.6831 28.6593L88.5524 28.5013L88.1671 28.8199ZM88.2978 28.9779L87.9124 29.2965L88.0431 29.4545L88.4284 29.1359L88.8137 28.8173L88.6831 28.6593L88.2978 28.9779ZM88.4284 29.1359L88.0431 29.4545C88.2552 29.711 88.3436 29.986 88.3226 30.3033L88.8216 30.3362L89.3205 30.3691C89.3586 29.7913 89.1848 29.2661 88.8137 28.8173L88.4284 29.1359ZM88.8216 30.3362L88.3226 30.3033L88.3094 30.5038L88.8084 30.5367L89.3073 30.5696L89.3205 30.3691L88.8216 30.3362ZM88.8084 30.5367L88.3094 30.5038L88.2962 30.7043L88.7951 30.7372L89.2941 30.7701L89.3073 30.5696L88.8084 30.5367ZM88.7951 30.7372L88.2962 30.7043C88.2519 31.3767 88.6048 31.9174 89.1734 32.319L89.4619 31.9105L89.7503 31.5021C89.371 31.2343 89.2794 30.9928 89.2941 30.7701L88.7951 30.7372ZM89.4619 31.9105L89.1734 32.319L89.3858 32.4689L89.6742 32.0605L89.9626 31.6521L89.7503 31.5021L89.4619 31.9105ZM89.6742 32.0605L89.3858 32.4689L89.5982 32.6189L89.8866 32.2105L90.175 31.802L89.9626 31.6521L89.6742 32.0605ZM89.8866 32.2105L89.5982 32.6189C89.9822 32.8901 90.0877 33.1394 90.0825 33.3684L90.5823 33.3798L91.0822 33.3912C91.0973 32.7305 90.7388 32.2002 90.175 31.802L89.8866 32.2105ZM90.5823 33.3798L90.0825 33.3684L90.0779 33.5677L90.5778 33.5791L91.0777 33.5905L91.0822 33.3912L90.5823 33.3798ZM90.5778 33.5791L90.0779 33.5677L90.0734 33.7671L90.5733 33.7785L91.0731 33.7898L91.0777 33.5905L90.5778 33.5791ZM90.5733 33.7785L90.0734 33.7671C90.0623 34.2548 90.1135 34.7334 90.2275 35.2015L90.7133 35.0831L91.1991 34.9648C91.1061 34.5831 91.064 34.1918 91.0731 33.7898L90.5733 33.7785ZM90.7133 35.0831L90.2275 35.2015L90.2739 35.3918L90.7597 35.2735L91.2455 35.1552L91.1991 34.9648L90.7133 35.0831ZM90.7597 35.2735L90.2739 35.3918L90.3203 35.5822L90.8061 35.4639L91.2919 35.3455L91.2455 35.1552L90.7597 35.2735ZM90.8061 35.4639L90.3203 35.5822C90.4122 35.9597 90.448 36.3428 90.4276 36.7331L90.9269 36.7592L91.4263 36.7854C91.4517 36.2984 91.407 35.8179 91.2919 35.3455L90.8061 35.4639ZM90.9269 36.7592L90.4276 36.7331L90.4173 36.9297L90.9167 36.9558L91.416 36.9819L91.4263 36.7854L90.9269 36.7592ZM90.9167 36.9558L90.4173 36.9297L90.4071 37.1262L90.9064 37.1523L91.4057 37.1784L91.416 36.9819L90.9167 36.9558ZM90.9064 37.1523L90.4071 37.1262C90.3776 37.6891 90.5479 38.2257 90.8807 38.7251L91.2968 38.4479L91.7129 38.1707C91.4792 37.82 91.3893 37.4928 91.4057 37.1784L90.9064 37.1523ZM91.2968 38.4479L90.8807 38.7251L91.0076 38.9156L91.4237 38.6384L91.8398 38.3611L91.7129 38.1707L91.2968 38.4479ZM91.4237 38.6384L91.0076 38.9156L91.1345 39.106L91.5506 38.8288L91.9667 38.5516L91.8398 38.3611L91.4237 38.6384ZM91.5506 38.8288L91.1345 39.106C91.1772 39.1701 91.1896 39.2107 91.193 39.2293C91.1957 39.2437 91.1944 39.2499 91.1917 39.2574C91.1823 39.2833 91.1282 39.38 90.8953 39.5152L91.1463 39.9476L91.3973 40.3801C91.7171 40.1944 92.0068 39.9443 92.1322 39.5972C92.2685 39.2198 92.1683 38.8543 91.9667 38.5516L91.5506 38.8288ZM91.1463 39.9476L90.8953 39.5152L90.6477 39.6589L90.8987 40.0914L91.1497 40.5238L91.3973 40.3801L91.1463 39.9476ZM90.8987 40.0914L90.6477 39.6589L90.4001 39.8027L90.6511 40.2351L90.902 40.6675L91.1497 40.5238L90.8987 40.0914ZM90.6511 40.2351L90.4001 39.8027C90.2549 39.8869 90.1291 39.9656 90.0273 40.0379C89.9352 40.1033 89.8269 40.188 89.7485 40.2884C89.7114 40.3359 89.6425 40.4345 89.6214 40.5735C89.5945 40.7507 89.6552 40.9318 89.7934 41.0569C89.9014 41.1547 90.0218 41.1863 90.0817 41.1986C90.1515 41.2129 90.2193 41.2163 90.2755 41.2163V40.7163V40.2163C90.2561 40.2163 90.2618 40.2147 90.2827 40.219C90.2937 40.2213 90.3786 40.2378 90.4645 40.3156C90.5129 40.3594 90.5605 40.422 90.5892 40.5039C90.6177 40.5853 90.6194 40.6623 90.6101 40.7238C90.5935 40.8327 90.5426 40.8962 90.5368 40.9036C90.521 40.9239 90.5287 40.9083 90.6061 40.8533C90.6737 40.8054 90.7709 40.7437 90.902 40.6675L90.6511 40.2351ZM90.2755 40.7163V41.2163H90.411V40.7163V40.2163H90.2755V40.7163ZM90.411 40.7163V41.2163H90.5465V40.7163V40.2163H90.411V40.7163ZM90.5465 40.7163V41.2163C90.5666 41.2163 90.539 41.2204 90.4925 41.1948C90.4682 41.1815 90.4433 41.1625 90.4214 41.1376C90.3996 41.1129 90.3857 41.0881 90.3773 41.0679C90.362 41.0306 90.3686 41.0169 90.3667 41.0499C90.3649 41.0812 90.3565 41.1362 90.332 41.22L90.8119 41.3602L91.2919 41.5004C91.3611 41.2634 91.4145 40.9598 91.3019 40.6867C91.2382 40.5324 91.127 40.4024 90.9738 40.3183C90.8296 40.2391 90.6775 40.2163 90.5465 40.2163V40.7163ZM90.8119 41.3602L90.332 41.22L90.2758 41.4124L90.7557 41.5526L91.2357 41.6927L91.2919 41.5004L90.8119 41.3602Z" fill="#FFB3B3"/>
<path d="M81 49.7163L93 63.7163" stroke="#CB886A" stroke-width="3" stroke-linecap="round"/>
<path d="M63 74.7163L71 104.716L63 104.716" stroke="#CB886A" stroke-width="3" stroke-linecap="round"/>
<circle cx="93" cy="63.7163" r="2.5" fill="#CB886A" stroke="#CB886A"/>
<circle cx="3" cy="62.7163" r="2.5" fill="#CB886A" stroke="#CB886A"/>
<circle cx="38" cy="43.7163" r="4" fill="white"/>
<circle cx="52" cy="43.7163" r="4" fill="white"/>
<circle cx="53" cy="42.7163" r="2" fill="black"/>
<circle cx="39" cy="42.7163" r="2" fill="black"/>
</svg>
