<svg width="83" height="82" viewBox="0 0 83 82" fill="none" xmlns="http://www.w3.org/2000/svg">
<circle cx="40" cy="40" r="40" transform="matrix(-1 0 0 1 81.1948 0.71637)" fill="#FFB3B3"/>
<path d="M1.43908 41.5526L1.91902 41.4124L1.43908 41.5526ZM1.49525 41.745L1.0153 41.8851L1.49525 41.745ZM1.46165 43.0531L0.987366 42.8949L1.46165 43.0531ZM1.39544 43.2515L1.86973 43.4098L1.39544 43.2515ZM1.32922 43.45L1.80351 43.6082L1.32922 43.45ZM1.10576 44.7738L0.605759 44.7725L1.10576 44.7738ZM1.10522 44.9709L1.60522 44.9722L1.10522 44.9709ZM1.10468 45.1679L1.60468 45.1693L1.10468 45.1679ZM1.37521 46.4478L0.917381 46.6488L1.37521 46.4478ZM1.53789 46.8183L1.9957 46.6173L1.53789 46.8183ZM2.16621 48.0266L2.59393 47.7677L2.16621 48.0266ZM2.27255 48.2023L2.70026 47.9433L2.27255 48.2023ZM2.37889 48.3779L1.95117 48.6368L2.37889 48.3779ZM2.27465 49.745L1.84417 49.4906L2.27465 49.745ZM2.13718 49.9777L1.70669 49.7233L2.13718 49.9777ZM1.9997 50.2104L2.43019 50.4647L1.9997 50.2104ZM2.19721 51.4858L1.89602 51.8849L2.19721 51.4858ZM2.39368 51.6341L2.69488 51.235L2.39368 51.6341ZM2.59016 51.7823L2.89135 51.3832L2.59016 51.7823ZM3.05509 53.0302L3.53941 53.1545L3.05509 53.0302ZM2.9399 53.4792L2.45558 53.3549L2.9399 53.4792ZM3.66411 54.7908L3.40348 55.2175L3.66411 54.7908ZM3.87502 54.9196L4.13565 54.4929L3.87502 54.9196ZM4.81102 55.9504L5.27787 55.7713L4.81102 55.9504ZM4.94835 56.3085L4.4815 56.4875L4.94835 56.3085ZM5.18606 57.6224L5.68603 57.6169L5.18606 57.6224ZM5.18839 57.8358L4.68842 57.8412L5.18839 57.8358ZM5.19073 58.0492L5.6907 58.0437L5.19073 58.0492ZM5.32664 59.4415L4.83533 59.5343L5.32664 59.4415ZM5.36489 59.644L5.8562 59.5512L5.36489 59.644ZM5.40315 59.8465L5.89445 59.7537L5.40315 59.8465ZM5.6881 61.2062L5.20083 61.3183L5.6881 61.2062ZM5.78181 61.6136L6.26908 61.5014L5.78181 61.6136ZM6.37642 62.8109L6.75756 62.4873L6.37642 62.8109ZM6.63792 63.1189L6.25679 63.4425L6.63792 63.1189ZM7.88113 63.8715L7.73997 64.3511L7.88113 63.8715ZM8.12172 63.9423L8.26288 63.4626L8.12172 63.9423ZM8.36231 64.0131L8.22115 64.4927L8.36231 64.0131ZM9.34018 64.9406L8.85507 65.0617L9.34018 64.9406ZM9.44317 65.3531L9.92828 65.232L9.44317 65.3531ZM10.0375 66.5491L10.4213 66.2287L10.0375 66.5491ZM10.1635 66.7001L9.77961 67.0205L10.1635 66.7001ZM10.2895 66.8511L10.6734 66.5307L10.2895 66.8511ZM11.3822 67.627L11.5691 67.1632L11.3822 67.627ZM11.783 67.7885L11.5961 68.2522L11.783 67.7885ZM12.7498 68.6809L12.2983 68.8958L12.7498 68.6809ZM12.9267 69.0526L12.4752 69.2674L12.9267 69.0526ZM14.0994 69.6735L14.1001 70.1735L14.0994 69.6735ZM14.6232 69.6727L14.6225 69.1727L14.6232 69.6727ZM15.8738 70.2094L16.2843 69.924L15.8738 70.2094ZM15.9855 70.37L15.5749 70.6554L15.9855 70.37ZM16.0972 70.5307L16.5077 70.2453L16.0972 70.5307ZM16.4781 72.1223L16.9781 72.1189L16.4781 72.1223ZM16.4803 72.437L15.9803 72.4404L16.4803 72.437ZM16.4824 72.7518L16.9824 72.7484L16.4824 72.7518ZM17.2978 73.813L17.3025 73.313L17.2978 73.813ZM17.7808 73.8174L17.7761 74.3174L17.7808 73.8174ZM19.2442 74.0064L19.3777 73.5246V73.5246L19.2442 74.0064ZM19.4399 74.0606L19.3064 74.5425L19.4399 74.0606ZM19.6355 74.1148L19.769 73.633L19.6355 74.1148ZM20.5923 75.0684L20.1266 75.2504L20.5923 75.0684ZM20.6824 75.299L21.1481 75.1171L20.6824 75.299ZM20.7725 75.5297L20.3068 75.7116L20.7725 75.5297ZM21.9306 76.0874L22.052 76.5725L21.9306 76.0874ZM22.1865 76.0234L22.0651 75.5384L22.1865 76.0234ZM22.4423 75.9594L22.5637 76.4444L22.4423 75.9594ZM23.8552 76.0657L23.6056 76.4989L23.8552 76.0657ZM24.0214 76.1614L24.271 75.7282L24.0214 76.1614ZM24.1876 76.2572L24.4372 75.824L24.1876 76.2572ZM25.3904 76.6919L25.4773 76.1995L25.3904 76.6919ZM25.5835 76.726L25.4966 77.2184L25.5835 76.726ZM25.7766 76.76L25.6897 77.2524L25.7766 76.76ZM26.9752 77.2149L26.7126 77.6404L26.9752 77.2149ZM27.3051 77.4185L27.5677 76.9931L27.3051 77.4185ZM28.4618 77.9712L28.2965 78.443L28.4618 77.9712ZM28.8229 78.0977L28.9883 77.6258L28.8229 78.0977ZM29.9427 78.8619L29.577 79.2029L29.9427 78.8619ZM30.0966 79.0269L30.4622 78.6858L30.0966 79.0269ZM30.2505 79.1919L29.8848 79.5329L30.2505 79.1919ZM31.4329 79.768L31.4507 79.2683L31.4329 79.768ZM31.6322 79.7751L31.6144 80.2748L31.6322 79.7751ZM31.8316 79.7822L31.8138 80.2819L31.8316 79.7822ZM33.0731 80.2957L32.7486 80.6762L33.0731 80.2957ZM33.2446 80.442L33.5691 80.0616L33.2446 80.442ZM33.4161 80.5883L33.0917 80.9687L33.4161 80.5883ZM34.7438 80.4753L35.0561 80.8657L34.7438 80.4753ZM34.9688 80.2952L34.6564 79.9048L34.9688 80.2952ZM35.1938 80.1152L35.5062 80.5056L35.1938 80.1152ZM36.5186 80.2583L36.1217 80.5623L36.5186 80.2583ZM36.8599 80.7038L37.2568 80.3997L36.8599 80.7038ZM38.1213 80.9696L38.4069 81.38L38.1213 80.9696ZM38.3274 80.8262L38.0419 80.4157L38.3274 80.8262ZM38.5335 80.6828L38.8191 81.0932L38.5335 80.6828ZM39.8627 80.6712L39.5671 81.0745L39.8627 80.6712ZM40.2445 80.9511L40.5401 80.5479L40.2445 80.9511ZM41.5391 81.1744L41.3638 80.7061L41.5391 81.1744ZM41.7348 81.1011L41.9101 81.5694L41.7348 81.1011ZM41.9306 81.0279L41.7553 80.5596L41.9306 81.0279ZM43.1987 80.2417L43.5296 80.6166L43.1987 80.2417ZM43.5648 79.9186L43.2339 79.5438L43.5648 79.9186ZM44.8174 79.4197L44.85 78.9207L44.8174 79.4197ZM45.0085 79.4322L44.9758 79.9311L45.0085 79.4322ZM45.1996 79.4447L45.2323 78.9457L45.1996 79.4447ZM46.472 79.4229L46.5221 79.9203L46.472 79.4229ZM46.8499 79.3848L46.7998 78.8873L46.8499 79.3848ZM48.1473 79.3987L48.0893 79.8953V79.8953L48.1473 79.3987ZM48.5444 79.4451L48.6024 78.9485V78.9485L48.5444 79.4451ZM49.7848 79.1678L49.5223 78.7422L49.7848 79.1678ZM49.9567 79.0618L50.2191 79.4873L49.9567 79.0618ZM50.1286 78.9557L49.8662 78.5301L50.1286 78.9557ZM51.4733 78.9615L51.6856 78.5089L51.4733 78.9615ZM51.703 79.0693L51.9154 78.6166L51.703 79.0693ZM51.9328 79.1771L51.7204 79.6297L51.9328 79.1771ZM53.1345 78.7697L53.5702 79.0151L53.1345 78.7697ZM53.2638 78.5403L52.8281 78.2949L53.2638 78.5403ZM53.393 78.3109L52.9574 78.0655L53.393 78.3109ZM54.6657 77.9532L54.8853 77.504L54.6657 77.9532ZM55.1676 78.1984L54.9481 78.6477L55.1676 78.1984ZM56.7329 78.614L56.7293 79.114L56.7329 78.614ZM57.1661 78.6171L57.1626 79.1171L57.1661 78.6171ZM58.3844 78.0994L58.0207 77.7563L58.3844 78.0994ZM58.5317 77.9433L58.8954 78.2864L58.5317 77.9433ZM58.679 77.7871L58.3153 77.444L58.679 77.7871ZM59.6568 76.7705L60.0137 77.1207L59.6568 76.7705ZM59.9464 76.4755L59.5895 76.1253L59.9464 76.4755ZM60.9453 75.5696L61.258 75.9597L60.9453 75.5696ZM61.0989 75.4465L61.4116 75.8366L61.0989 75.4465ZM61.2525 75.3234L60.9399 74.9332L61.2525 75.3234ZM62.3106 74.5571L62.0377 74.1381L62.3106 74.5571ZM62.473 74.4513L62.7459 74.8703L62.473 74.4513ZM62.6354 74.3455L62.3626 73.9265L62.6354 74.3455ZM63.4643 73.2794L63.9285 73.4652L63.4643 73.2794ZM63.5495 73.0667L63.0853 72.8808L63.5495 73.0667ZM63.6346 72.854L64.0988 73.0399L63.6346 72.854ZM64.8087 72.2496L64.8688 71.7533L64.8087 72.2496ZM65.0743 72.2818L65.1344 71.7854L65.0743 72.2818ZM65.3399 72.3139L65.2798 72.8103L65.3399 72.3139ZM66.912 72.2079L67.0612 72.6851L66.912 72.2079ZM67.116 72.1441L67.2652 72.6213L67.116 72.1441ZM67.32 72.0803L67.1707 71.6031L67.32 72.0803ZM68.2661 71.1703L67.7984 70.9936L68.2661 71.1703ZM68.3448 70.9624L68.8125 71.1391L68.3448 70.9624ZM68.4234 70.7544L67.9557 70.5776L68.4234 70.7544ZM69.3639 69.8065L69.1899 69.3378L69.3639 69.8065ZM69.5662 69.7314L69.3922 69.2627L69.5662 69.7314ZM69.7685 69.6563L69.9426 70.125L69.7685 69.6563ZM70.5526 68.6039L71.0482 68.67L70.5526 68.6039ZM70.5845 68.3647L70.0888 68.2987L70.5845 68.3647ZM70.6163 68.1255L71.112 68.1916L70.6163 68.1255ZM71.4206 67.063L71.5962 67.5311L71.4206 67.063ZM71.6289 66.9848L71.4533 66.5167L71.6289 66.9848ZM71.8373 66.9067L72.0129 67.3748L71.8373 66.9067ZM72.5743 65.8444L73.0737 65.8691L72.5743 65.8444ZM72.5861 65.6053L73.0855 65.63L72.5861 65.6053ZM72.5979 65.3662L72.0985 65.3415L72.5979 65.3662ZM72.9819 64.0235L73.4039 64.2917L72.9819 64.0235ZM73.0848 63.8616L72.6628 63.5934L73.0848 63.8616ZM73.1877 63.6997L73.6097 63.9678L73.1877 63.6997ZM74.1875 62.8154L74.419 63.2586L74.1875 62.8154ZM74.579 62.6109L74.3475 62.1677L74.579 62.6109ZM75.9505 61.9255L76.1665 62.3764L75.9505 61.9255ZM76.1644 61.823L75.9483 61.3721L76.1644 61.823ZM76.3783 61.7205L76.5944 62.1714L76.3783 61.7205ZM77.301 60.7254L77.7777 60.8764L77.301 60.7254ZM77.3627 60.5307L77.8394 60.6816L77.3627 60.5307ZM77.4244 60.3359L76.9477 60.185L77.4244 60.3359ZM77.3053 58.7936L76.8357 58.9653L77.3053 58.7936ZM77.2081 58.5277L77.6777 58.356L77.2081 58.5277ZM77.1108 58.2617L76.6412 58.4334L77.1108 58.2617ZM77.6885 57.0563L77.5238 56.5842L77.6885 57.0563ZM78.228 56.8681L78.3927 57.3402L78.228 56.8681ZM78.5929 55.642L78.1624 55.8963L78.5929 55.642ZM78.4321 55.3698L78.8626 55.1155L78.4321 55.3698ZM78.2713 55.0977L77.8408 55.352L78.2713 55.0977ZM78.0681 53.6296L77.6397 53.3718L78.0681 53.6296ZM78.1682 53.4632L78.5966 53.721L78.1682 53.4632ZM78.2683 53.2968L78.6967 53.5546L78.2683 53.2968ZM79.2842 52.2647L79.5704 52.6747L79.2842 52.2647ZM79.6908 51.9808L79.4046 51.5708L79.6908 51.9808ZM80.2025 50.7891L80.6891 50.6742L80.2025 50.7891ZM80.152 50.575L80.6386 50.4602L80.152 50.575ZM80.1015 50.361L79.6149 50.4758L80.1015 50.361ZM80.0576 49.0103L80.5482 49.1071L80.0576 49.0103ZM80.095 48.8209L80.5856 48.9177L80.095 48.8209ZM80.1324 48.6315L79.6419 48.5346L80.1324 48.6315ZM80.987 47.448L81.2878 47.8474L80.987 47.448ZM81.4226 47.1199L81.1218 46.7205L81.4226 47.1199ZM82.1557 45.6924L82.6557 45.6945L82.1557 45.6924ZM82.2417 44.1488L82.7379 44.2101L82.2417 44.1488ZM82.2908 43.7512L82.7871 43.8125L82.2908 43.7512ZM81.4229 42.4013L81.1307 42.8071L81.4229 42.4013ZM80.8552 41.9926L81.1474 41.5868L80.8552 41.9926ZM80.5543 40.6588L80.2006 40.3053L80.5543 40.6588ZM80.7482 40.4648L81.1018 40.8183L80.7482 40.4648ZM80.9421 40.2708L81.2958 40.6243L80.9421 40.2708ZM81.3651 38.9783L80.8935 39.1443L81.3651 38.9783ZM81.23 38.5942L81.7016 38.4282L81.23 38.5942ZM81.2838 37.2676L80.8211 37.078L81.2838 37.2676ZM81.3675 37.0634L81.8301 37.253L81.3675 37.0634ZM81.4512 36.8592L80.9885 36.6696L81.4512 36.8592ZM81.8227 35.491L81.3271 35.4248L81.8227 35.491ZM81.85 35.2864L82.3456 35.3526L81.85 35.2864ZM81.8773 35.0819L81.3817 35.0157L81.8773 35.0819ZM81.6698 33.772L81.2187 33.9877L81.6698 33.772ZM81.5805 33.5852L82.0316 33.3696L81.5805 33.5852ZM81.4912 33.3985L81.9423 33.1828L81.4912 33.3985ZM80.724 32.2041L80.3379 32.5218L80.724 32.2041ZM80.5841 32.0341L80.9701 31.7164L80.5841 32.0341ZM80.4442 31.8641L80.0581 32.1819L80.4442 31.8641ZM80.0165 30.4064L79.517 30.3835L80.0165 30.4064ZM80.0259 30.202L80.5253 30.2249L80.0259 30.202ZM80.1359 28.7982L80.6329 28.8525L80.1359 28.7982ZM80.1829 28.3683L80.68 28.4226L80.1829 28.3683ZM79.732 27.1341L80.0804 26.7754L79.732 27.1341ZM79.4156 26.8267L79.0672 27.1853L79.4156 26.8267ZM78.6676 25.692L79.1392 25.5259L78.6676 25.692ZM78.6024 25.5067L78.1308 25.6728L78.6024 25.5067ZM78.5371 25.3215L79.0087 25.1554L78.5371 25.3215ZM77.5796 24.3286L77.3545 24.7751L77.5796 24.3286ZM77.1381 24.1059L77.3632 23.6595L77.1381 24.1059ZM76.3133 23.0578L75.8173 23.1207L76.3133 23.0578ZM76.2878 22.8561L76.7838 22.7932L76.2878 22.8561ZM76.2622 22.6544L76.7582 22.5915L76.2622 22.6544ZM75.8914 21.398L75.4425 21.6182L75.8914 21.398ZM75.721 21.0508L76.1699 20.8305L75.721 21.0508ZM74.7969 20.1139L75.0402 19.677L74.7969 20.1139ZM74.606 20.0076L74.3628 20.4444L74.606 20.0076ZM74.4152 19.9013L74.6585 19.4645L74.4152 19.9013ZM73.6707 18.8448L74.1651 18.7702L73.6707 18.8448ZM73.6391 18.6355L73.1447 18.71L73.6391 18.6355ZM73.6076 18.4262L74.102 18.3517L73.6076 18.4262ZM72.8201 17.4391L73.0137 16.9781L72.8201 17.4391ZM72.6165 17.3536L72.8101 16.8926L72.6165 17.3536ZM72.4128 17.268L72.2192 17.729L72.4128 17.268ZM71.5682 16.2949L71.0817 16.4102L71.5682 16.2949ZM71.5196 16.0898L71.033 16.2051L71.5196 16.0898ZM71.3908 14.2479L71.8889 14.2913L71.3908 14.2479ZM71.4402 13.6804L70.942 13.6371L71.4402 13.6804ZM70.6385 12.6676L70.603 13.1663L70.6385 12.6676ZM70.3744 12.6488L70.4099 12.15L70.3744 12.6488ZM70.1102 12.63L70.1457 12.1313L70.1102 12.63ZM68.8603 12.0097L69.2783 11.7354L68.8603 12.0097ZM68.7511 11.8432L68.333 12.1175L68.7511 11.8432ZM68.6418 11.6767L69.0599 11.4025L68.6418 11.6767ZM67.748 10.7338L67.4532 11.1377L67.748 10.7338ZM67.4324 10.5035L67.7272 10.0996L67.4324 10.5035ZM66.2555 9.89483L66.4182 9.42202L66.2555 9.89483ZM66.0618 9.82817L65.8991 10.301L66.0618 9.82817ZM65.868 9.76151L66.0306 9.28871L65.868 9.76151ZM65.0483 8.67126L65.5388 8.5745L65.0483 8.67126ZM64.9972 8.41226L64.5066 8.50903L64.9972 8.41226ZM64.9461 8.15326L64.4555 8.25003L64.9461 8.15326ZM64.0859 7.12738L64.1981 6.64015L64.0859 7.12738ZM63.88 7.07995L63.7677 7.56719L63.88 7.07995ZM63.6741 7.03252L63.7864 6.54529L63.6741 7.03252ZM62.2363 6.85629L62.248 6.35643L62.2363 6.85629ZM62.0127 6.85108L62.001 7.35095L62.0127 6.85108ZM61.7891 6.84587L61.8007 6.34601L61.7891 6.84587ZM60.8157 5.89031L60.3295 6.00676L60.8157 5.89031ZM60.7486 5.6101L60.2624 5.72654L60.7486 5.6101ZM60.6815 5.32988L61.1678 5.21344L60.6815 5.32988ZM59.7676 4.28312L59.6898 4.77702L59.7676 4.28312ZM59.5617 4.25067L59.6396 3.75677L59.5617 4.25067ZM59.3559 4.21822L59.278 4.71212L59.3559 4.21822ZM57.8321 4.38446L57.9885 4.85936L57.8321 4.38446ZM56.0343 4.25917L56.4203 3.94134L56.0343 4.25917ZM55.8955 4.09059L55.5095 4.40842L55.8955 4.09059ZM55.7567 3.922L56.1427 3.60417L55.7567 3.922ZM54.6776 2.52909L55.0792 2.23127L54.6776 2.52909ZM52.9973 1.5484L53.068 1.05342L52.9973 1.5484ZM51.6694 1.36283L51.7372 0.867437L51.6694 1.36283ZM51.4721 1.33585L51.4044 1.83124L51.4721 1.33585ZM51.2748 1.30888L51.3425 0.813484L51.2748 1.30888ZM49.8761 1.55779L49.6673 1.10348L49.8761 1.55779ZM49.6556 1.65912L49.8644 2.11343L49.6556 1.65912ZM49.4351 1.76045L49.2263 1.30613L49.4351 1.76045ZM48.0846 1.86811L48.2615 1.40042L48.0846 1.86811ZM47.7188 1.72977L47.5419 2.19745L47.7188 1.72977ZM46.4434 1.63417L46.3429 1.14436L46.4434 1.63417ZM46.2454 1.67478L46.3458 2.16458L46.2454 1.67478ZM46.0473 1.71539L45.9469 1.22559L46.0473 1.71539ZM44.7657 1.57195L44.5599 2.02763L44.7657 1.57195ZM44.3961 1.40503L44.6019 0.949345L44.3961 1.40503ZM43.133 1.09585L43.1099 1.59532L43.133 1.09585ZM39.7873 1.24195L39.9413 1.71765L39.7873 1.24195ZM39.4086 1.36451L39.2547 0.888811L39.4086 1.36451ZM38.0836 1.08032L37.7947 1.4884L38.0836 1.08032ZM37.6707 0.787979L37.9596 0.379892L37.6707 0.787979ZM36.3613 0.640898L36.1191 0.203473L36.3613 0.640898ZM35.992 0.84537L36.2342 1.28279L35.992 0.84537ZM34.7873 1.58336L34.5077 1.16888L34.7873 1.58336ZM34.6122 1.70156L34.8918 2.11604L34.6122 1.70156ZM34.437 1.81976L34.1573 1.40528L34.437 1.81976ZM33.0865 1.7476L32.8254 2.17399L33.0865 1.7476ZM32.6301 1.46809L32.369 1.89447L32.6301 1.46809ZM31.3677 1.68139L31.7712 1.97665L31.3677 1.68139ZM31.2188 1.88487L30.8153 1.58961L31.2188 1.88487ZM31.07 2.08834L31.4735 2.3836L31.07 2.08834ZM30.0484 3.23118L30.3792 3.60609L30.0484 3.23118ZM29.8921 3.36908L29.5613 2.99418L29.8921 3.36908ZM29.7358 3.50698L29.405 3.13208L29.7358 3.50698ZM28.348 3.44902L28.6056 3.02046L28.348 3.44902ZM27.8315 3.13859L27.574 3.56715L27.8315 3.13859ZM26.5492 3.32838L26.1183 3.07468L26.5492 3.32838ZM26.2996 3.75219L25.8688 3.49848L26.2996 3.75219ZM25.0689 4.24061L25.2001 3.75812L25.0689 4.24061ZM24.8261 4.17459L24.6949 4.65708L24.8261 4.17459ZM24.5833 4.10858L24.7144 3.62609L24.5833 4.10858ZM23.4996 4.79501L23.0205 4.65207L23.4996 4.79501ZM23.4187 5.06606L23.8979 5.20901L23.4187 5.06606ZM23.3379 5.33712L22.8587 5.19417L23.3379 5.33712ZM22.2598 6.11652L22.3381 5.62269L22.2598 6.11652ZM22.0186 6.07827L21.9403 6.5721L22.0186 6.07827ZM21.7775 6.04003L21.8558 5.5462L21.7775 6.04003ZM20.3824 6.20794L20.1575 5.76136L20.3824 6.20794ZM20.0313 6.38473L20.2562 6.83131L20.0313 6.38473ZM18.739 6.81977L18.6421 6.32923L18.739 6.81977ZM18.5285 6.86131L18.6253 7.35185L18.5285 6.86131ZM18.318 6.90286L18.2212 6.41232L18.318 6.90286ZM17.2039 7.60661L17.6087 7.90009L17.2039 7.60661ZM17.0817 7.77527L16.6769 7.48179L17.0817 7.77527ZM16.9594 7.94394L17.3642 8.23742L16.9594 7.94394ZM16.0511 8.93992L16.3781 9.31816L16.0511 8.93992ZM15.902 9.06875L16.229 9.447L15.902 9.06875ZM15.753 9.19759L16.08 9.57584L15.753 9.19759ZM14.9696 10.2947L14.5098 10.0983L14.9696 10.2947ZM14.7997 10.6925L15.2595 10.8889L14.7997 10.6925ZM14.0244 11.7795L14.3501 12.1589L14.0244 11.7795ZM13.7312 12.0312L13.4056 11.6518L13.7312 12.0312ZM12.5463 12.69L12.3845 12.2169L12.5463 12.69ZM12.339 12.7609L12.5009 13.234L12.339 12.7609ZM12.1317 12.8318L12.2936 13.3049L12.1317 12.8318ZM10.9883 13.5542L10.6216 13.2143L10.9883 13.5542ZM10.8541 13.699L10.4874 13.3591L10.8541 13.699ZM10.7199 13.8438L11.0866 14.1837L10.7199 13.8438ZM9.85533 14.8431L9.46624 14.529L9.85533 14.8431ZM9.6073 15.1504L9.9964 15.4644L9.6073 15.1504ZM9.00941 16.3472L8.52643 16.2179L9.00941 16.3472ZM8.95484 16.5511L9.43783 16.6804L8.95484 16.5511ZM8.90027 16.7549L8.41728 16.6256L8.90027 16.7549ZM7.90917 17.6841L8.05517 18.1623L7.90917 17.6841ZM7.6677 17.7578L7.81371 18.236L7.6677 17.7578ZM7.42623 17.8315L7.28023 17.3533L7.42623 17.8315ZM6.34395 18.6976L5.88668 18.4953L6.34395 18.6976ZM6.26214 18.8825L5.80487 18.6803L6.26214 18.8825ZM6.18033 19.0675L6.6376 19.2697L6.18033 19.0675ZM6.39393 20.7102L6.84534 20.4952L6.39393 20.7102ZM6.68516 21.3216L6.23375 21.5366L6.68516 21.3216ZM6.82407 22.8744L6.40648 22.5994L6.82407 22.8744ZM6.71995 23.0325L7.13754 23.3075L6.71995 23.0325ZM6.61583 23.1906L7.03342 23.4656L6.61583 23.1906ZM5.32773 23.999L5.18536 23.5197V23.5197L5.32773 23.999ZM4.76646 24.1657L4.62409 23.6864L4.76646 24.1657ZM3.34207 24.9678L3.70875 25.3077L3.34207 24.9678ZM3.05241 25.2802L2.68574 24.9403L3.05241 25.2802ZM3.29812 26.761L3.69567 26.4578L3.29812 26.761ZM3.51634 27.0471L3.11879 27.3503L3.51634 27.0471ZM3.73456 27.3332L3.33701 27.6364L3.73456 27.3332ZM4.02773 28.82L4.41306 29.1386L4.02773 28.82ZM3.89707 28.978L3.51174 28.6594L3.89707 28.978ZM3.76642 29.136L4.15176 29.4546L3.76642 29.136ZM3.37325 30.3363L2.87434 30.3691L3.37325 30.3363ZM3.38647 30.5368L2.88755 30.5696L3.38647 30.5368ZM3.39968 30.7373L3.8986 30.7044L3.39968 30.7373ZM2.73296 31.9106L3.02138 32.319L2.73296 31.9106ZM2.30824 32.2105L2.01983 31.8021L2.30824 32.2105ZM1.61249 33.3799L1.11262 33.3913L1.61249 33.3799ZM1.61703 33.5792L2.1169 33.5678L1.61703 33.5792ZM1.62157 33.7785L1.1217 33.7899L1.62157 33.7785ZM1.4815 35.0832L1.96729 35.2015L1.4815 35.0832ZM1.43512 35.2736L0.949326 35.1552L1.43512 35.2736ZM1.38873 35.4639L1.87453 35.5823L1.38873 35.4639ZM1.26788 36.7593L1.7672 36.7332L1.26788 36.7593ZM1.27816 36.9558L1.77748 36.9297L1.27816 36.9558ZM1.28844 37.1524L0.789124 37.1785L1.28844 37.1524ZM0.898041 38.448L1.31414 38.7252L0.898041 38.448ZM0.771149 38.6384L0.355049 38.3612L0.771149 38.6384ZM0.644249 38.8289L0.228149 38.5516L0.644249 38.8289ZM1.04849 39.9477L0.797493 40.3801L1.04849 39.9477ZM1.54377 40.2352L1.79477 39.8027L1.54377 40.2352ZM1.3829 41.3603L0.902954 41.5005L1.3829 41.3603ZM1.43908 41.5526L1.91902 41.4124L1.9752 41.6048L1.49525 41.745L1.0153 41.8851L0.959129 41.6928L1.43908 41.5526ZM1.49525 41.745L1.9752 41.6048C2.13043 42.1363 2.11446 42.6765 1.93594 43.2114L1.46165 43.0531L0.987366 42.8949C1.10442 42.5441 1.11084 42.2122 1.0153 41.8851L1.49525 41.745ZM1.46165 43.0531L1.93594 43.2114L1.86973 43.4098L1.39544 43.2515L0.92115 43.0933L0.987366 42.8949L1.46165 43.0531ZM1.39544 43.2515L1.86973 43.4098L1.80351 43.6082L1.32922 43.45L0.854935 43.2917L0.92115 43.0933L1.39544 43.2515ZM1.32922 43.45L1.80351 43.6082C1.67157 44.0036 1.6068 44.392 1.60575 44.7752L1.10576 44.7738L0.605759 44.7725C0.607109 44.2762 0.691315 43.782 0.854935 43.2917L1.32922 43.45ZM1.10576 44.7738L1.60575 44.7752L1.60522 44.9722L1.10522 44.9709L0.605225 44.9695L0.605759 44.7725L1.10576 44.7738ZM1.10522 44.9709L1.60522 44.9722L1.60468 45.1693L1.10468 45.1679L0.604683 45.1665L0.605225 44.9695L1.10522 44.9709ZM1.10468 45.1679L1.60468 45.1693C1.60368 45.5375 1.67871 45.8953 1.83302 46.2468L1.37521 46.4478L0.917381 46.6488C0.708618 46.1733 0.603294 45.6779 0.604683 45.1665L1.10468 45.1679ZM1.37521 46.4478L1.83302 46.2468L1.91437 46.4321L1.45654 46.6331L0.998726 46.8341L0.917381 46.6488L1.37521 46.4478ZM1.45654 46.6331L1.91437 46.4321L1.9957 46.6173L1.53789 46.8183L1.08006 47.0193L0.998726 46.8341L1.45654 46.6331ZM1.53789 46.8183L1.9957 46.6173C2.16836 47.0106 2.36771 47.394 2.59393 47.7677L2.16621 48.0266L1.73849 48.2856C1.49004 47.8752 1.2705 47.4531 1.08006 47.0193L1.53789 46.8183ZM2.16621 48.0266L2.59393 47.7677L2.70026 47.9433L2.27255 48.2023L1.84483 48.4612L1.73849 48.2856L2.16621 48.0266ZM2.27255 48.2023L2.70026 47.9433L2.80661 48.1189L2.37889 48.3779L1.95117 48.6368L1.84483 48.4612L2.27255 48.2023ZM2.37889 48.3779L2.80661 48.1189C3.16984 48.7189 3.07128 49.3795 2.70514 49.9993L2.27465 49.745L1.84417 49.4906C2.09169 49.0717 2.06262 48.8209 1.95117 48.6368L2.37889 48.3779ZM2.27465 49.745L2.70514 49.9993L2.56767 50.232L2.13718 49.9777L1.70669 49.7233L1.84417 49.4906L2.27465 49.745ZM2.13718 49.9777L2.56767 50.232L2.43019 50.4647L1.9997 50.2104L1.56921 49.956L1.70669 49.7233L2.13718 49.9777ZM1.9997 50.2104L2.43019 50.4647C2.31228 50.6643 2.30379 50.7823 2.31306 50.8422C2.32098 50.8934 2.35295 50.9769 2.49841 51.0867L2.19721 51.4858L1.89602 51.8849C1.60297 51.6637 1.38277 51.3693 1.32484 50.9953C1.26829 50.63 1.38029 50.2758 1.56921 49.956L1.9997 50.2104ZM2.19721 51.4858L2.49841 51.0867L2.69488 51.235L2.39368 51.6341L2.09249 52.0332L1.89602 51.8849L2.19721 51.4858ZM2.39368 51.6341L2.69488 51.235L2.89135 51.3832L2.59016 51.7823L2.28897 52.1814L2.09249 52.0332L2.39368 51.6341ZM2.59016 51.7823L2.89135 51.3832C3.16856 51.5924 3.38596 51.8516 3.50381 52.1679C3.62255 52.4866 3.62473 52.8219 3.53941 53.1545L3.05509 53.0302L2.57078 52.906C2.61399 52.7375 2.60297 52.6143 2.56673 52.5171C2.5296 52.4174 2.45026 52.3032 2.28897 52.1814L2.59016 51.7823ZM3.05509 53.0302L3.53941 53.1545L3.4818 53.379L2.9975 53.2547L2.51318 53.1304L2.57078 52.906L3.05509 53.0302ZM2.9975 53.2547L3.4818 53.379L3.42421 53.6035L2.9399 53.4792L2.45558 53.3549L2.51318 53.1304L2.9975 53.2547ZM2.9399 53.4792L3.42421 53.6035C3.38175 53.7689 3.39764 53.8759 3.43048 53.9516C3.46478 54.0307 3.54145 54.13 3.71381 54.2353L3.45319 54.662L3.19257 55.0887C2.89419 54.9065 2.64993 54.6649 2.51314 54.3497C2.37489 54.0311 2.36949 53.6905 2.45558 53.3549L2.9399 53.4792ZM3.45319 54.662L3.71381 54.2353L3.92473 54.3641L3.66411 54.7908L3.40348 55.2175L3.19257 55.0887L3.45319 54.662ZM3.66411 54.7908L3.92473 54.3641L4.13565 54.4929L3.87502 54.9196L3.6144 55.3464L3.40348 55.2175L3.66411 54.7908ZM3.87502 54.9196L4.13565 54.4929C4.67316 54.8213 5.07496 55.2422 5.27787 55.7713L4.81102 55.9504L4.34417 56.1294C4.24058 55.8593 4.01837 55.5931 3.6144 55.3464L3.87502 54.9196ZM4.81102 55.9504L5.27787 55.7713L5.34653 55.9504L4.87968 56.1294L4.41283 56.3085L4.34417 56.1294L4.81102 55.9504ZM4.87968 56.1294L5.34653 55.9504L5.4152 56.1295L4.94835 56.3085L4.4815 56.4875L4.41283 56.3085L4.87968 56.1294ZM4.94835 56.3085L5.4152 56.1295C5.59197 56.5904 5.68023 57.0879 5.68603 57.6169L5.18606 57.6224L4.68609 57.6278C4.68144 57.2042 4.61124 56.8258 4.4815 56.4875L4.94835 56.3085ZM5.18606 57.6224L5.68603 57.6169L5.68837 57.8303L5.18839 57.8358L4.68842 57.8412L4.68609 57.6278L5.18606 57.6224ZM5.18839 57.8358L5.68837 57.8303L5.6907 58.0437L5.19073 58.0492L4.69077 58.0546L4.68842 57.8412L5.18839 57.8358ZM5.19073 58.0492L5.6907 58.0437C5.69562 58.4917 5.7382 58.9265 5.81795 59.3487L5.32664 59.4415L4.83533 59.5343C4.74432 59.0526 4.6963 58.5592 4.69077 58.0546L5.19073 58.0492ZM5.32664 59.4415L5.81795 59.3487L5.8562 59.5512L5.36489 59.644L4.87359 59.7368L4.83533 59.5343L5.32664 59.4415ZM5.36489 59.644L5.8562 59.5512L5.89445 59.7537L5.40315 59.8465L4.91184 59.9393L4.87359 59.7368L5.36489 59.644ZM5.40315 59.8465L5.89445 59.7537C5.97861 60.1991 6.07224 60.6459 6.17537 61.0941L5.6881 61.2062L5.20083 61.3183C5.0948 60.8575 4.99846 60.3978 4.91184 59.9393L5.40315 59.8465ZM5.6881 61.2062L6.17537 61.0941L6.22222 61.2978L5.73495 61.4099L5.24768 61.522L5.20083 61.3183L5.6881 61.2062ZM5.73495 61.4099L6.22222 61.2978L6.26908 61.5014L5.78181 61.6136L5.29454 61.7257L5.24768 61.522L5.73495 61.4099ZM5.78181 61.6136L6.26908 61.5014C6.35636 61.8808 6.51935 62.2068 6.75756 62.4873L6.37642 62.8109L5.99529 63.1345C5.64984 62.7277 5.41642 62.2554 5.29454 61.7257L5.78181 61.6136ZM6.37642 62.8109L6.75756 62.4873L6.88831 62.6413L6.50717 62.9649L6.12604 63.2885L5.99529 63.1345L6.37642 62.8109ZM6.50717 62.9649L6.88831 62.6413L7.01907 62.7953L6.63792 63.1189L6.25679 63.4425L6.12604 63.2885L6.50717 62.9649ZM6.63792 63.1189L7.01907 62.7953C7.2341 63.0485 7.55617 63.2546 8.02229 63.3918L7.88113 63.8715L7.73997 64.3511C7.13213 64.1722 6.6254 63.8766 6.25679 63.4425L6.63792 63.1189ZM7.88113 63.8715L8.02229 63.3918L8.26288 63.4626L8.12172 63.9423L7.98056 64.4219L7.73997 64.3511L7.88113 63.8715ZM8.12172 63.9423L8.26288 63.4626L8.50347 63.5334L8.36231 64.0131L8.22115 64.4927L7.98056 64.4219L8.12172 63.9423ZM8.36231 64.0131L8.50347 63.5334C9.17439 63.7309 9.65899 64.1534 9.82529 64.8195L9.34018 64.9406L8.85507 65.0617C8.79151 64.8072 8.6242 64.6113 8.22115 64.4927L8.36231 64.0131ZM9.34018 64.9406L9.82529 64.8195L9.87679 65.0257L9.39167 65.1469L8.90656 65.268L8.85507 65.0617L9.34018 64.9406ZM9.39167 65.1469L9.87679 65.0257L9.92828 65.232L9.44317 65.3531L8.95806 65.4742L8.90656 65.268L9.39167 65.1469ZM9.44317 65.3531L9.92828 65.232C10.0264 65.6252 10.1922 65.9543 10.4213 66.2287L10.0375 66.5491L9.65359 66.8695C9.32014 66.47 9.08976 66.0017 8.95806 65.4742L9.44317 65.3531ZM10.0375 66.5491L10.4213 66.2287L10.5474 66.3797L10.1635 66.7001L9.77961 67.0205L9.65359 66.8695L10.0375 66.5491ZM10.1635 66.7001L10.5474 66.3797L10.6734 66.5307L10.2895 66.8511L9.90563 67.1715L9.77961 67.0205L10.1635 66.7001ZM10.2895 66.8511L10.6734 66.5307C10.8967 66.7984 11.1907 67.0107 11.5691 67.1632L11.3822 67.627L11.1953 68.0907C10.6793 67.8828 10.2448 67.5779 9.90563 67.1715L10.2895 66.8511ZM11.3822 67.627L11.5691 67.1632L11.7695 67.244L11.5826 67.7077L11.3957 68.1715L11.1953 68.0907L11.3822 67.627ZM11.5826 67.7077L11.7695 67.244L11.9699 67.3247L11.783 67.7885L11.5961 68.2522L11.3957 68.1715L11.5826 67.7077ZM11.783 67.7885L11.9699 67.3247C12.527 67.5493 12.9472 67.9321 13.2013 68.4661L12.7498 68.6809L12.2983 68.8958C12.1577 68.6003 11.9334 68.3882 11.5961 68.2522L11.783 67.7885ZM12.7498 68.6809L13.2013 68.4661L13.2897 68.6519L12.8382 68.8668L12.3867 69.0816L12.2983 68.8958L12.7498 68.6809ZM12.8382 68.8668L13.2897 68.6519L13.3782 68.8378L12.9267 69.0526L12.4752 69.2674L12.3867 69.0816L12.8382 68.8668ZM12.9267 69.0526L13.3782 68.8378C13.4325 68.952 13.5052 69.0258 13.6018 69.077C13.7055 69.1319 13.8629 69.1738 14.0987 69.1735L14.0994 69.6735L14.1001 70.1735C13.7514 70.174 13.4211 70.1128 13.1339 69.9608C12.8396 69.8049 12.6181 69.5679 12.4752 69.2674L12.9267 69.0526ZM14.0994 69.6735L14.0987 69.1735L14.3606 69.1731L14.3613 69.6731L14.362 70.1731L14.1001 70.1735L14.0994 69.6735ZM14.3613 69.6731L14.3606 69.1731L14.6225 69.1727L14.6232 69.6727L14.6239 70.1727L14.362 70.1731L14.3613 69.6731ZM14.6232 69.6727L14.6225 69.1727C15.31 69.1718 15.9114 69.3874 16.2843 69.924L15.8738 70.2094L15.4632 70.4948C15.3377 70.3141 15.1053 70.1721 14.6239 70.1727L14.6232 69.6727ZM15.8738 70.2094L16.2843 69.924L16.396 70.0846L15.9855 70.37L15.5749 70.6554L15.4632 70.4948L15.8738 70.2094ZM15.9855 70.37L16.396 70.0846L16.5077 70.2453L16.0972 70.5307L15.6866 70.8161L15.5749 70.6554L15.9855 70.37ZM16.0972 70.5307L16.5077 70.2453C16.8399 70.7232 16.9731 71.3717 16.9781 72.1189L16.4781 72.1223L15.9781 72.1256C15.9737 71.4679 15.8529 71.0553 15.6866 70.8161L16.0972 70.5307ZM16.4781 72.1223L16.9781 72.1189L16.9802 72.4336L16.4803 72.437L15.9803 72.4404L15.9781 72.1256L16.4781 72.1223ZM16.4803 72.437L16.9802 72.4336L16.9824 72.7484L16.4824 72.7518L15.9824 72.7551L15.9803 72.4404L16.4803 72.437ZM16.4824 72.7518L16.9824 72.7484C16.9844 73.0491 17.0453 73.1859 17.0863 73.2393C17.1088 73.2686 17.1511 73.3116 17.3025 73.313L17.2978 73.813L17.2932 74.313C16.9057 74.3094 16.5426 74.173 16.2933 73.8486C16.0625 73.5482 15.9851 73.1569 15.9824 72.7551L16.4824 72.7518ZM17.2978 73.813L17.3025 73.313L17.5439 73.3152L17.5393 73.8152L17.5347 74.3152L17.2932 74.313L17.2978 73.813ZM17.5393 73.8152L17.5439 73.3152L17.7854 73.3175L17.7808 73.8174L17.7761 74.3174L17.5347 74.3152L17.5393 73.8152ZM17.7808 73.8174L17.7854 73.3175C18.3599 73.3228 18.8919 73.39 19.3777 73.5246L19.2442 74.0064L19.1107 74.4883C18.723 74.3809 18.2794 74.3221 17.7761 74.3174L17.7808 73.8174ZM19.2442 74.0064L19.3777 73.5246L19.5733 73.5788L19.4399 74.0606L19.3064 74.5425L19.1107 74.4883L19.2442 74.0064ZM19.4399 74.0606L19.5733 73.5788L19.769 73.633L19.6355 74.1148L19.502 74.5967L19.3064 74.5425L19.4399 74.0606ZM19.6355 74.1148L19.769 73.633C20.3913 73.8054 20.8136 74.261 21.058 74.8864L20.5923 75.0684L20.1266 75.2504C19.9687 74.8463 19.7532 74.6662 19.502 74.5967L19.6355 74.1148ZM20.5923 75.0684L21.058 74.8864L21.1481 75.1171L20.6824 75.299L20.2167 75.481L20.1266 75.2504L20.5923 75.0684ZM20.6824 75.299L21.1481 75.1171L21.2382 75.3477L20.7725 75.5297L20.3068 75.7116L20.2167 75.481L20.6824 75.299ZM20.7725 75.5297L21.2382 75.3477C21.3066 75.5226 21.3807 75.5811 21.4298 75.6047C21.4841 75.6308 21.5949 75.656 21.8092 75.6024L21.9306 76.0874L22.052 76.5725C21.6953 76.6617 21.3277 76.6654 20.9959 76.5056C20.659 76.3434 20.4396 76.0515 20.3068 75.7116L20.7725 75.5297ZM21.9306 76.0874L21.8092 75.6024L22.0651 75.5384L22.1865 76.0234L22.3078 76.5085L22.052 76.5725L21.9306 76.0874ZM22.1865 76.0234L22.0651 75.5384L22.3209 75.4743L22.4423 75.9594L22.5637 76.4444L22.3078 76.5085L22.1865 76.0234ZM22.4423 75.9594L22.3209 75.4743C22.9697 75.312 23.585 75.3329 24.1048 75.6324L23.8552 76.0657L23.6056 76.4989C23.3834 76.3709 23.0568 76.321 22.5637 76.4444L22.4423 75.9594ZM23.8552 76.0657L24.1048 75.6324L24.271 75.7282L24.0214 76.1614L23.7718 76.5947L23.6056 76.4989L23.8552 76.0657ZM24.0214 76.1614L24.271 75.7282L24.4372 75.824L24.1876 76.2572L23.938 76.6904L23.7718 76.5947L24.0214 76.1614ZM24.1876 76.2572L24.4372 75.824C24.7567 76.008 25.1024 76.1333 25.4773 76.1995L25.3904 76.6919L25.3035 77.1843C24.8166 77.0983 24.3605 76.9338 23.938 76.6904L24.1876 76.2572ZM25.3904 76.6919L25.4773 76.1995L25.6704 76.2336L25.5835 76.726L25.4966 77.2184L25.3035 77.1843L25.3904 76.6919ZM25.5835 76.726L25.6704 76.2336L25.8635 76.2677L25.7766 76.76L25.6897 77.2524L25.4966 77.2184L25.5835 76.726ZM25.7766 76.76L25.8635 76.2677C26.3559 76.3546 26.8152 76.5286 27.2378 76.7895L26.9752 77.2149L26.7126 77.6404C26.3989 77.4468 26.059 77.3176 25.6897 77.2524L25.7766 76.76ZM26.9752 77.2149L27.2378 76.7895L27.4027 76.8913L27.1401 77.3167L26.8775 77.7422L26.7126 77.6404L26.9752 77.2149ZM27.1401 77.3167L27.4027 76.8913L27.5677 76.9931L27.3051 77.4185L27.0425 77.844L26.8775 77.7422L27.1401 77.3167ZM27.3051 77.4185L27.5677 76.9931C27.9056 77.2016 28.2586 77.3702 28.6272 77.4993L28.4618 77.9712L28.2965 78.443C27.859 78.2898 27.4409 78.0899 27.0425 77.844L27.3051 77.4185ZM28.4618 77.9712L28.6272 77.4993L28.8077 77.5626L28.6424 78.0344L28.477 78.5063L28.2965 78.443L28.4618 77.9712ZM28.6424 78.0344L28.8077 77.5626L28.9883 77.6258L28.8229 78.0977L28.6576 78.5696L28.477 78.5063L28.6424 78.0344ZM28.8229 78.0977L28.9883 77.6258C29.4802 77.7982 29.9195 78.104 30.3083 78.5208L29.9427 78.8619L29.577 79.2029C29.2789 78.8833 28.9716 78.6796 28.6576 78.5696L28.8229 78.0977ZM29.9427 78.8619L30.3083 78.5208L30.4622 78.6858L30.0966 79.0269L29.7309 79.3679L29.577 79.2029L29.9427 78.8619ZM30.0966 79.0269L30.4622 78.6858L30.6161 78.8508L30.2505 79.1919L29.8848 79.5329L29.7309 79.3679L30.0966 79.0269ZM30.2505 79.1919L30.6161 78.8508C30.8821 79.136 31.1561 79.2578 31.4507 79.2683L31.4329 79.768L31.4151 80.2677C30.8201 80.2465 30.3057 79.9842 29.8848 79.5329L30.2505 79.1919ZM31.4329 79.768L31.4507 79.2683L31.6501 79.2754L31.6322 79.7751L31.6144 80.2748L31.4151 80.2677L31.4329 79.768ZM31.6322 79.7751L31.6501 79.2754L31.8494 79.2825L31.8316 79.7822L31.8138 80.2819L31.6144 80.2748L31.6322 79.7751ZM31.8316 79.7822L31.8494 79.2825C32.4215 79.3029 32.9406 79.5257 33.3975 79.9153L33.0731 80.2957L32.7486 80.6762C32.4398 80.4128 32.1313 80.2932 31.8138 80.2819L31.8316 79.7822ZM33.0731 80.2957L33.3975 79.9153L33.5691 80.0616L33.2446 80.442L32.9202 80.8224L32.7486 80.6762L33.0731 80.2957ZM33.2446 80.442L33.5691 80.0616L33.7406 80.2079L33.4161 80.5883L33.0917 80.9687L32.9202 80.8224L33.2446 80.442ZM33.4161 80.5883L33.7406 80.2079C33.8451 80.297 33.9227 80.3127 33.9928 80.3067C34.0803 80.2993 34.2246 80.2503 34.4314 80.0849L34.7438 80.4753L35.0561 80.8657C34.7607 81.1021 34.4325 81.2729 34.0776 81.3031C33.7051 81.3348 33.37 81.2061 33.0917 80.9687L33.4161 80.5883ZM34.7438 80.4753L34.4314 80.0849L34.6564 79.9048L34.9688 80.2952L35.2811 80.6857L35.0561 80.8657L34.7438 80.4753ZM34.9688 80.2952L34.6564 79.9048L34.8814 79.7248L35.1938 80.1152L35.5062 80.5056L35.2811 80.6857L34.9688 80.2952ZM35.1938 80.1152L34.8814 79.7248C35.1894 79.4784 35.5542 79.3092 35.9554 79.3525C36.3601 79.3962 36.6766 79.6424 36.9155 79.9542L36.5186 80.2583L36.1217 80.5623C35.9796 80.3769 35.8848 80.3507 35.848 80.3467C35.8076 80.3423 35.7004 80.3502 35.5062 80.5056L35.1938 80.1152ZM36.5186 80.2583L36.9155 79.9542L37.0862 80.1769L36.6893 80.481L36.2924 80.7851L36.1217 80.5623L36.5186 80.2583ZM36.6893 80.481L37.0862 80.1769L37.2568 80.3997L36.8599 80.7038L36.463 81.0079L36.2924 80.7851L36.6893 80.481ZM36.8599 80.7038L37.2568 80.3997C37.4072 80.5959 37.5142 80.6434 37.5641 80.6539C37.6017 80.6618 37.6828 80.6656 37.8358 80.5591L38.1213 80.9696L38.4069 81.38C38.0999 81.5936 37.7408 81.7131 37.3579 81.6324C36.9874 81.5543 36.6937 81.3089 36.463 81.0079L36.8599 80.7038ZM38.1213 80.9696L37.8358 80.5591L38.0419 80.4157L38.3274 80.8262L38.613 81.2366L38.4069 81.38L38.1213 80.9696ZM38.3274 80.8262L38.0419 80.4157L38.248 80.2723L38.5335 80.6828L38.8191 81.0932L38.613 81.2366L38.3274 80.8262ZM38.5335 80.6828L38.248 80.2723C38.5387 80.0701 38.8606 79.9429 39.2065 79.9399C39.5554 79.9369 39.8755 80.0607 40.1583 80.268L39.8627 80.6712L39.5671 81.0745C39.4238 80.9694 39.3093 80.939 39.2152 80.9398C39.118 80.9407 38.9884 80.9754 38.8191 81.0932L38.5335 80.6828ZM39.8627 80.6712L40.1583 80.268L40.3492 80.4079L40.0536 80.8112L39.758 81.2144L39.5671 81.0745L39.8627 80.6712ZM40.0536 80.8112L40.3492 80.4079L40.5401 80.5479L40.2445 80.9511L39.9489 81.3544L39.758 81.2144L40.0536 80.8112ZM40.2445 80.9511L40.5401 80.5479C40.8514 80.776 41.1078 80.8019 41.3638 80.7061L41.5391 81.1744L41.7143 81.6427C41.0965 81.8739 40.4899 81.7509 39.9489 81.3544L40.2445 80.9511ZM41.5391 81.1744L41.3638 80.7061L41.5596 80.6328L41.7348 81.1011L41.9101 81.5694L41.7143 81.6427L41.5391 81.1744ZM41.7348 81.1011L41.5596 80.6328L41.7553 80.5596L41.9306 81.0279L42.1058 81.4961L41.9101 81.5694L41.7348 81.1011ZM41.9306 81.0279L41.7553 80.5596C42.1264 80.4207 42.4975 80.1937 42.8678 79.8669L43.1987 80.2417L43.5296 80.6166C43.0829 81.0109 42.6086 81.308 42.1058 81.4961L41.9306 81.0279ZM43.1987 80.2417L42.8678 79.8669L43.0508 79.7053L43.3817 80.0802L43.7126 80.455L43.5296 80.6166L43.1987 80.2417ZM43.3817 80.0802L43.0508 79.7053L43.2339 79.5438L43.5648 79.9186L43.8956 80.2935L43.7126 80.455L43.3817 80.0802ZM43.5648 79.9186L43.2339 79.5438C43.7134 79.1205 44.2566 78.8819 44.85 78.9207L44.8174 79.4197L44.7847 79.9186C44.525 79.9016 44.2331 79.9956 43.8956 80.2935L43.5648 79.9186ZM44.8174 79.4197L44.85 78.9207L45.0411 78.9332L45.0085 79.4322L44.9758 79.9311L44.7847 79.9186L44.8174 79.4197ZM45.0085 79.4322L45.0411 78.9332L45.2323 78.9457L45.1996 79.4447L45.1669 79.9436L44.9758 79.9311L45.0085 79.4322ZM45.1996 79.4447L45.2323 78.9457C45.6315 78.9719 46.0279 78.965 46.4219 78.9254L46.472 79.4229L46.5221 79.9203C46.0727 79.9656 45.6209 79.9733 45.1669 79.9436L45.1996 79.4447ZM46.472 79.4229L46.4219 78.9254L46.6109 78.9063L46.661 79.4038L46.7111 79.9013L46.5221 79.9203L46.472 79.4229ZM46.661 79.4038L46.6109 78.9063L46.7998 78.8873L46.8499 79.3848L46.9 79.8823L46.7111 79.9013L46.661 79.4038ZM46.8499 79.3848L46.7998 78.8873C47.2593 78.841 47.7281 78.8464 48.2053 78.9021L48.1473 79.3987L48.0893 79.8953C47.6801 79.8475 47.2839 79.8436 46.9 79.8823L46.8499 79.3848ZM48.1473 79.3987L48.2053 78.9021L48.4038 78.9253L48.3458 79.4219L48.2878 79.9185L48.0893 79.8953L48.1473 79.3987ZM48.3458 79.4219L48.4038 78.9253L48.6024 78.9485L48.5444 79.4451L48.4864 79.9417L48.2878 79.9185L48.3458 79.4219ZM48.5444 79.4451L48.6024 78.9485C48.9326 78.987 49.2333 78.9204 49.5223 78.7422L49.7848 79.1678L50.0472 79.5934C49.5688 79.8884 49.0426 80.0067 48.4864 79.9417L48.5444 79.4451ZM49.7848 79.1678L49.5223 78.7422L49.6942 78.6362L49.9567 79.0618L50.2191 79.4873L50.0472 79.5934L49.7848 79.1678ZM49.9567 79.0618L49.6942 78.6362L49.8662 78.5301L50.1286 78.9557L50.3911 79.3813L50.2191 79.4873L49.9567 79.0618ZM50.1286 78.9557L49.8662 78.5301C50.4307 78.182 51.0646 78.2176 51.6856 78.5089L51.4733 78.9615L51.261 79.4142C50.8565 79.2245 50.5939 79.2562 50.3911 79.3813L50.1286 78.9557ZM51.4733 78.9615L51.6856 78.5089L51.9154 78.6166L51.703 79.0693L51.4907 79.522L51.261 79.4142L51.4733 78.9615ZM51.703 79.0693L51.9154 78.6166L52.1451 78.7244L51.9328 79.1771L51.7204 79.6297L51.4907 79.522L51.703 79.0693ZM51.9328 79.1771L52.1451 78.7244C52.3252 78.8088 52.416 78.796 52.4573 78.7821C52.5022 78.7668 52.5916 78.7149 52.6989 78.5243L53.1345 78.7697L53.5702 79.0151C53.3891 79.3366 53.1339 79.6086 52.7783 79.7291C52.4189 79.8509 52.0531 79.7858 51.7204 79.6297L51.9328 79.1771ZM53.1345 78.7697L52.6989 78.5243L52.8281 78.2949L53.2638 78.5403L53.6994 78.7857L53.5702 79.0151L53.1345 78.7697ZM53.2638 78.5403L52.8281 78.2949L52.9574 78.0655L53.393 78.3109L53.8287 78.5562L53.6994 78.7857L53.2638 78.5403ZM53.393 78.3109L52.9574 78.0655C53.1442 77.7338 53.4147 77.4621 53.7923 77.356C54.1636 77.2517 54.5404 77.3355 54.8853 77.504L54.6657 77.9532L54.4462 78.4025C54.2311 78.2973 54.1157 78.3039 54.0628 78.3188C54.0161 78.3319 53.9303 78.3758 53.8287 78.5562L53.393 78.3109ZM54.6657 77.9532L54.8853 77.504L55.1362 77.6266L54.9167 78.0758L54.6972 78.5251L54.4462 78.4025L54.6657 77.9532ZM54.9167 78.0758L55.1362 77.6266L55.3871 77.7492L55.1676 78.1984L54.9481 78.6477L54.6972 78.5251L54.9167 78.0758ZM55.1676 78.1984L55.3871 77.7492C55.8986 77.9992 56.3462 78.1113 56.7364 78.114L56.7329 78.614L56.7293 79.114C56.1526 79.11 55.5567 78.945 54.9481 78.6477L55.1676 78.1984ZM56.7329 78.614L56.7364 78.114L56.953 78.1156L56.9495 78.6156L56.9459 79.1155L56.7293 79.114L56.7329 78.614ZM56.9495 78.6156L56.953 78.1156L57.1696 78.1171L57.1661 78.6171L57.1626 79.1171L56.9459 79.1155L56.9495 78.6156ZM57.1661 78.6171L57.1696 78.1171C57.5156 78.1195 57.7882 78.0028 58.0207 77.7563L58.3844 78.0994L58.7481 78.4425C58.3231 78.8931 57.7835 79.1214 57.1626 79.1171L57.1661 78.6171ZM58.3844 78.0994L58.0207 77.7563L58.168 77.6002L58.5317 77.9433L58.8954 78.2864L58.7481 78.4425L58.3844 78.0994ZM58.5317 77.9433L58.168 77.6002L58.3153 77.444L58.679 77.7871L59.0427 78.1302L58.8954 78.2864L58.5317 77.9433ZM58.679 77.7871L58.3153 77.444C58.6462 77.0932 58.9745 76.7519 59.3 76.4203L59.6568 76.7705L60.0137 77.1207C59.6929 77.4475 59.3693 77.784 59.0427 78.1302L58.679 77.7871ZM59.6568 76.7705L59.3 76.4203L59.4448 76.2728L59.8016 76.623L60.1584 76.9732L60.0137 77.1207L59.6568 76.7705ZM59.8016 76.623L59.4448 76.2728L59.5895 76.1253L59.9464 76.4755L60.3032 76.8257L60.1584 76.9732L59.8016 76.623ZM59.9464 76.4755L59.5895 76.1253C59.9259 75.7826 60.2735 75.4671 60.6326 75.1794L60.9453 75.5696L61.258 75.9597C60.9314 76.2215 60.6131 76.51 60.3032 76.8257L59.9464 76.4755ZM60.9453 75.5696L60.6326 75.1794L60.7862 75.0563L61.0989 75.4465L61.4116 75.8366L61.258 75.9597L60.9453 75.5696ZM61.0989 75.4465L60.7862 75.0563L60.9399 74.9332L61.2525 75.3234L61.5652 75.7135L61.4116 75.8366L61.0989 75.4465ZM61.2525 75.3234L60.9399 74.9332C61.2953 74.6484 61.6612 74.3833 62.0377 74.1381L62.3106 74.5571L62.5835 74.9761C62.2349 75.2031 61.8955 75.4489 61.5652 75.7135L61.2525 75.3234ZM62.3106 74.5571L62.0377 74.1381L62.2001 74.0323L62.473 74.4513L62.7459 74.8703L62.5835 74.9761L62.3106 74.5571ZM62.473 74.4513L62.2001 74.0323L62.3626 73.9265L62.6354 74.3455L62.9083 74.7645L62.7459 74.8703L62.473 74.4513ZM62.6354 74.3455L62.3626 73.9265C62.6241 73.7562 62.8412 73.4904 63.0001 73.0935L63.4643 73.2794L63.9285 73.4652C63.7073 74.0176 63.3719 74.4625 62.9083 74.7645L62.6354 74.3455ZM63.4643 73.2794L63.0001 73.0935L63.0853 72.8808L63.5495 73.0667L64.0136 73.2525L63.9285 73.4652L63.4643 73.2794ZM63.5495 73.0667L63.0853 72.8808L63.1704 72.6682L63.6346 72.854L64.0988 73.0399L64.0136 73.2525L63.5495 73.0667ZM63.6346 72.854L63.1704 72.6682C63.3025 72.3382 63.5221 72.0669 63.8418 71.9024C64.1531 71.7422 64.5077 71.7096 64.8688 71.7533L64.8087 72.2496L64.7487 72.746C64.5171 72.718 64.3797 72.7502 64.2995 72.7915C64.2278 72.8284 64.1567 72.8952 64.0988 73.0399L63.6346 72.854ZM64.8087 72.2496L64.8688 71.7533L65.1344 71.7854L65.0743 72.2818L65.0143 72.7781L64.7487 72.746L64.8087 72.2496ZM65.0743 72.2818L65.1344 71.7854L65.4 71.8175L65.3399 72.3139L65.2798 72.8103L65.0143 72.7781L65.0743 72.2818ZM65.3399 72.3139L65.4 71.8175C65.9395 71.8828 66.3898 71.8473 66.7627 71.7307L66.912 72.2079L67.0612 72.6851C66.5235 72.8532 65.9257 72.8884 65.2798 72.8103L65.3399 72.3139ZM66.912 72.2079L66.7627 71.7307L66.9667 71.6669L67.116 72.1441L67.2652 72.6213L67.0612 72.6851L66.912 72.2079ZM67.116 72.1441L66.9667 71.6669L67.1707 71.6031L67.32 72.0803L67.4692 72.5575L67.2652 72.6213L67.116 72.1441ZM67.32 72.0803L67.1707 71.6031C67.4726 71.5086 67.6748 71.3207 67.7984 70.9936L68.2661 71.1703L68.7338 71.3471C68.5066 71.9484 68.0779 72.3671 67.4692 72.5575L67.32 72.0803ZM68.2661 71.1703L67.7984 70.9936L67.8771 70.7856L68.3448 70.9624L68.8125 71.1391L68.7338 71.3471L68.2661 71.1703ZM68.3448 70.9624L67.8771 70.7856L67.9557 70.5776L68.4234 70.7544L68.8911 70.9312L68.8125 71.1391L68.3448 70.9624ZM68.4234 70.7544L67.9557 70.5776C68.1805 69.9829 68.5982 69.5575 69.1899 69.3378L69.3639 69.8065L69.538 70.2753C69.2265 70.3909 69.0172 70.5974 68.8911 70.9312L68.4234 70.7544ZM69.3639 69.8065L69.1899 69.3378L69.3922 69.2627L69.5662 69.7314L69.7403 70.2001L69.538 70.2753L69.3639 69.8065ZM69.5662 69.7314L69.3922 69.2627L69.5945 69.1876L69.7685 69.6563L69.9426 70.125L69.7403 70.2001L69.5662 69.7314ZM69.7685 69.6563L69.5945 69.1876C69.7393 69.1338 69.835 69.059 69.9023 68.9687C69.9716 68.8756 70.0301 68.7398 70.057 68.5379L70.5526 68.6039L71.0482 68.67C71.004 69.002 70.8962 69.3084 70.7042 69.5662C70.5101 69.8267 70.2493 70.0111 69.9426 70.125L69.7685 69.6563ZM70.5526 68.6039L70.057 68.5379L70.0888 68.2987L70.5845 68.3647L71.0801 68.4308L71.0482 68.67L70.5526 68.6039ZM70.5845 68.3647L70.0888 68.2987L70.1207 68.0595L70.6163 68.1255L71.112 68.1916L71.0801 68.4308L70.5845 68.3647ZM70.6163 68.1255L70.1207 68.0595C70.1653 67.725 70.2759 67.4169 70.4721 67.1577C70.6698 66.8965 70.9346 66.7113 71.2449 66.5949L71.4206 67.063L71.5962 67.5311C71.4415 67.5892 71.3398 67.6683 71.2694 67.7612C71.1976 67.8562 71.1385 67.9921 71.112 68.1916L70.6163 68.1255ZM71.4206 67.063L71.2449 66.5949L71.4533 66.5167L71.6289 66.9848L71.8045 67.453L71.5962 67.5311L71.4206 67.063ZM71.6289 66.9848L71.4533 66.5167L71.6616 66.4385L71.8373 66.9067L72.0129 67.3748L71.8045 67.453L71.6289 66.9848ZM71.8373 66.9067L71.6616 66.4385C71.8139 66.3814 71.9031 66.3065 71.9595 66.2253C72.0176 66.1415 72.0652 66.0156 72.0749 65.8198L72.5743 65.8444L73.0737 65.8691C73.057 66.207 72.9687 66.525 72.7811 66.7953C72.5918 67.0681 72.3256 67.2575 72.0129 67.3748L71.8373 66.9067ZM72.5743 65.8444L72.0749 65.8198L72.0867 65.5807L72.5861 65.6053L73.0855 65.63L73.0737 65.8691L72.5743 65.8444ZM72.5861 65.6053L72.0867 65.5807L72.0985 65.3415L72.5979 65.3662L73.0973 65.3908L73.0855 65.63L72.5861 65.6053ZM72.5979 65.3662L72.0985 65.3415C72.1281 64.7425 72.2736 64.2059 72.5599 63.7554L72.9819 64.0235L73.4039 64.2917C73.2309 64.564 73.1204 64.9225 73.0973 65.3908L72.5979 65.3662ZM72.9819 64.0235L72.5599 63.7554L72.6628 63.5934L73.0848 63.8616L73.5068 64.1298L73.4039 64.2917L72.9819 64.0235ZM73.0848 63.8616L72.6628 63.5934L72.7657 63.4315L73.1877 63.6997L73.6097 63.9678L73.5068 64.1298L73.0848 63.8616ZM73.1877 63.6997L72.7657 63.4315C73.0492 62.9855 73.4533 62.6347 73.9561 62.3722L74.1875 62.8154L74.419 63.2586C74.048 63.4523 73.7856 63.6911 73.6097 63.9678L73.1877 63.6997ZM74.1875 62.8154L73.9561 62.3722L74.1518 62.2699L74.3832 62.7131L74.6147 63.1563L74.419 63.2586L74.1875 62.8154ZM74.3832 62.7131L74.1518 62.2699L74.3475 62.1677L74.579 62.6109L74.8104 63.0541L74.6147 63.1563L74.3832 62.7131ZM74.579 62.6109L74.3475 62.1677C74.7898 61.9367 75.2521 61.7057 75.7344 61.4746L75.9505 61.9255L76.1665 62.3764C75.6939 62.6029 75.2418 62.8288 74.8104 63.0541L74.579 62.6109ZM75.9505 61.9255L75.7344 61.4746L75.9483 61.3721L76.1644 61.823L76.3805 62.2739L76.1665 62.3764L75.9505 61.9255ZM76.1644 61.823L75.9483 61.3721L76.1623 61.2696L76.3783 61.7205L76.5944 62.1714L76.3805 62.2739L76.1644 61.823ZM76.3783 61.7205L76.1623 61.2696C76.5371 61.09 76.7352 60.8558 76.8244 60.5744L77.301 60.7254L77.7777 60.8764C77.5915 61.4642 77.1745 61.8935 76.5944 62.1714L76.3783 61.7205ZM77.301 60.7254L76.8244 60.5744L76.886 60.3797L77.3627 60.5307L77.8394 60.6816L77.7777 60.8764L77.301 60.7254ZM77.3627 60.5307L76.886 60.3797L76.9477 60.185L77.4244 60.3359L77.901 60.4869L77.8394 60.6816L77.3627 60.5307ZM77.4244 60.3359L76.9477 60.185C77.0412 59.8897 77.0292 59.4945 76.8357 58.9653L77.3053 58.7936L77.7749 58.6219C78.0155 59.2799 78.0829 59.9129 77.901 60.4869L77.4244 60.3359ZM77.3053 58.7936L76.8357 58.9653L76.7385 58.6994L77.2081 58.5277L77.6777 58.356L77.7749 58.6219L77.3053 58.7936ZM77.2081 58.5277L76.7385 58.6994L76.6412 58.4334L77.1108 58.2617L77.5804 58.09L77.6777 58.356L77.2081 58.5277ZM77.1108 58.2617L76.6412 58.4334C76.5061 58.0638 76.4663 57.6648 76.6416 57.2991C76.8163 56.9345 77.1517 56.714 77.5238 56.5842L77.6885 57.0563L77.8531 57.5284C77.6231 57.6086 77.5612 57.6941 77.5434 57.7312C77.5261 57.7673 77.4985 57.866 77.5804 58.09L77.1108 58.2617ZM77.6885 57.0563L77.5238 56.5842L77.7936 56.4901L77.9583 56.9622L78.1229 57.4343L77.8531 57.5284L77.6885 57.0563ZM77.9583 56.9622L77.7936 56.4901L78.0634 56.396L78.228 56.8681L78.3927 57.3402L78.1229 57.4343L77.9583 56.9622ZM78.228 56.8681L78.0634 56.396C78.174 56.3574 78.2345 56.3191 78.2646 56.2933C78.2789 56.2811 78.2854 56.2726 78.288 56.2688C78.2903 56.2653 78.2911 56.2633 78.2916 56.2615C78.2933 56.2559 78.3156 56.1555 78.1624 55.8963L78.5929 55.642L79.0234 55.3876C79.2291 55.7359 79.37 56.1436 79.2501 56.5467C79.124 56.9704 78.7669 57.2097 78.3927 57.3402L78.228 56.8681ZM78.5929 55.642L78.1624 55.8963L78.0016 55.6242L78.4321 55.3698L78.8626 55.1155L79.0234 55.3876L78.5929 55.642ZM78.4321 55.3698L78.0016 55.6242L77.8408 55.352L78.2713 55.0977L78.7018 54.8433L78.8626 55.1155L78.4321 55.3698ZM78.2713 55.0977L77.8408 55.352C77.4508 54.692 77.2718 53.9831 77.6397 53.3718L78.0681 53.6296L78.4965 53.8874C78.4175 54.0187 78.374 54.2886 78.7018 54.8433L78.2713 55.0977ZM78.0681 53.6296L77.6397 53.3718L77.7398 53.2054L78.1682 53.4632L78.5966 53.721L78.4965 53.8874L78.0681 53.6296ZM78.1682 53.4632L77.7398 53.2054L77.8399 53.039L78.2683 53.2968L78.6967 53.5546L78.5966 53.721L78.1682 53.4632ZM78.2683 53.2968L77.8399 53.039C78.1081 52.5934 78.502 52.201 78.998 51.8547L79.2842 52.2647L79.5704 52.6747C79.1588 52.962 78.8754 53.2577 78.6967 53.5546L78.2683 53.2968ZM79.2842 52.2647L78.998 51.8547L79.2013 51.7128L79.4875 52.1228L79.7737 52.5327L79.5704 52.6747L79.2842 52.2647ZM79.4875 52.1228L79.2013 51.7128L79.4046 51.5708L79.6908 51.9808L79.977 52.3908L79.7737 52.5327L79.4875 52.1228ZM79.6908 51.9808L79.4046 51.5708C79.5762 51.4511 79.6602 51.34 79.6997 51.248C79.7371 51.1609 79.7511 51.0532 79.7158 50.9039L80.2025 50.7891L80.6891 50.6742C80.7666 51.0026 80.7517 51.3324 80.6186 51.6425C80.4875 51.9478 80.2593 52.1938 79.977 52.3908L79.6908 51.9808ZM80.2025 50.7891L79.7158 50.9039L79.6654 50.6898L80.152 50.575L80.6386 50.4602L80.6891 50.6742L80.2025 50.7891ZM80.152 50.575L79.6654 50.6898L79.6149 50.4758L80.1015 50.361L80.5881 50.2462L80.6386 50.4602L80.152 50.575ZM80.1015 50.361L79.6149 50.4758C79.488 49.9382 79.468 49.4153 79.5671 48.9134L80.0576 49.0103L80.5482 49.1071C80.4803 49.4507 80.4895 49.8282 80.5881 50.2462L80.1015 50.361ZM80.0576 49.0103L79.5671 48.9134L79.6045 48.724L80.095 48.8209L80.5856 48.9177L80.5482 49.1071L80.0576 49.0103ZM80.095 48.8209L79.6045 48.724L79.6419 48.5346L80.1324 48.6315L80.623 48.7283L80.5856 48.9177L80.095 48.8209ZM80.1324 48.6315L79.6419 48.5346C79.7575 47.9493 80.142 47.4585 80.6861 47.0486L80.987 47.448L81.2878 47.8474C80.8595 48.17 80.6743 48.4681 80.623 48.7283L80.1324 48.6315ZM80.987 47.448L80.6861 47.0486L80.904 46.8846L81.2048 47.2839L81.5056 47.6833L81.2878 47.8474L80.987 47.448ZM81.2048 47.2839L80.904 46.8846L81.1218 46.7205L81.4226 47.1199L81.7235 47.5192L81.5056 47.6833L81.2048 47.2839ZM81.4226 47.1199L81.1218 46.7205C81.5303 46.4128 81.6538 46.1359 81.6548 45.8923L82.1548 45.8944L82.6548 45.8965C82.652 46.5543 82.2874 47.0945 81.7235 47.5192L81.4226 47.1199ZM82.1548 45.8944L81.6548 45.8923L81.6557 45.6903L82.1557 45.6924L82.6557 45.6945L82.6548 45.8965L82.1548 45.8944ZM82.1557 45.6924L81.6557 45.6903L81.6565 45.4883L82.1565 45.4904L82.6565 45.4925L82.6557 45.6945L82.1557 45.6924ZM82.1565 45.4904L81.6565 45.4883C81.6585 45.0179 81.6881 44.5509 81.7455 44.0874L82.2417 44.1488L82.7379 44.2101C82.6855 44.634 82.6583 45.0614 82.6565 45.4925L82.1565 45.4904ZM82.2417 44.1488L81.7455 44.0874L81.77 43.8886L82.2663 43.95L82.7625 44.0113L82.7379 44.2101L82.2417 44.1488ZM82.2663 43.95L81.77 43.8886L81.7946 43.6898L82.2908 43.7512L82.7871 43.8125L82.7625 44.0113L82.2663 43.95ZM82.2908 43.7512L81.7946 43.6898C81.814 43.5331 81.7294 43.2382 81.1307 42.8071L81.4229 42.4013L81.7151 41.9956C82.3834 42.4768 82.8774 43.0818 82.7871 43.8125L82.2908 43.7512ZM81.4229 42.4013L81.1307 42.8071L80.8469 42.6027L81.139 42.197L81.4312 41.7912L81.7151 41.9956L81.4229 42.4013ZM81.139 42.197L80.8469 42.6027L80.563 42.3983L80.8552 41.9926L81.1474 41.5868L81.4312 41.7912L81.139 42.197ZM80.8552 41.9926L80.563 42.3983C80.212 42.1456 79.9077 41.8284 79.8171 41.427C79.7167 40.9821 79.9094 40.5966 80.2006 40.3053L80.5543 40.6588L80.9079 41.0123C80.8351 41.0851 80.8072 41.1363 80.7971 41.1629C80.7892 41.1838 80.7898 41.1944 80.7926 41.2069C80.8024 41.2502 80.8649 41.3834 81.1474 41.5868L80.8552 41.9926ZM80.5543 40.6588L80.2006 40.3053L80.3946 40.1113L80.7482 40.4648L81.1018 40.8183L80.9079 41.0123L80.5543 40.6588ZM80.7482 40.4648L80.3946 40.1113L80.5885 39.9173L80.9421 40.2708L81.2958 40.6243L81.1018 40.8183L80.7482 40.4648ZM80.9421 40.2708L80.5885 39.9173C80.9409 39.5648 80.958 39.3276 80.8935 39.1443L81.3651 38.9783L81.8368 38.8123C82.074 39.4862 81.8091 40.1107 81.2958 40.6243L80.9421 40.2708ZM81.3651 38.9783L80.8935 39.1443L80.8259 38.9522L81.2975 38.7862L81.7692 38.6202L81.8368 38.8123L81.3651 38.9783ZM81.2975 38.7862L80.8259 38.9522L80.7583 38.7602L81.23 38.5942L81.7016 38.4282L81.7692 38.6202L81.2975 38.7862ZM81.23 38.5942L80.7583 38.7602C80.5632 38.2058 80.5921 37.6368 80.8211 37.078L81.2838 37.2676L81.7465 37.4572C81.602 37.8098 81.595 38.1252 81.7016 38.4282L81.23 38.5942ZM81.2838 37.2676L80.8211 37.078L80.9048 36.8738L81.3675 37.0634L81.8301 37.253L81.7465 37.4572L81.2838 37.2676ZM81.3675 37.0634L80.9048 36.8738L80.9885 36.6696L81.4512 36.8592L81.9138 37.0488L81.8301 37.253L81.3675 37.0634ZM81.4512 36.8592L80.9885 36.6696C81.1602 36.2507 81.2722 35.836 81.3271 35.4248L81.8227 35.491L82.3183 35.5571C82.2513 36.0588 82.1157 36.5563 81.9138 37.0488L81.4512 36.8592ZM81.8227 35.491L81.3271 35.4248L81.3544 35.2203L81.85 35.2864L82.3456 35.3526L82.3183 35.5571L81.8227 35.491ZM81.85 35.2864L81.3544 35.2203L81.3817 35.0157L81.8773 35.0819L82.3729 35.1481L82.3456 35.3526L81.85 35.2864ZM81.8773 35.0819L81.3817 35.0157C81.4298 34.6559 81.3763 34.3172 81.2187 33.9877L81.6698 33.772L82.1209 33.5563C82.362 34.0605 82.4468 34.595 82.3729 35.1481L81.8773 35.0819ZM81.6698 33.772L81.2187 33.9877L81.1295 33.8009L81.5805 33.5852L82.0316 33.3696L82.1209 33.5563L81.6698 33.772ZM81.5805 33.5852L81.1295 33.8009L81.0402 33.6141L81.4912 33.3985L81.9423 33.1828L82.0316 33.3696L81.5805 33.5852ZM81.4912 33.3985L81.0402 33.6141C80.8594 33.2361 80.626 32.872 80.3379 32.5218L80.724 32.2041L81.11 31.8864C81.4464 32.2951 81.7245 32.7272 81.9423 33.1828L81.4912 33.3985ZM80.724 32.2041L80.3379 32.5218L80.198 32.3519L80.5841 32.0341L80.9701 31.7164L81.11 31.8864L80.724 32.2041ZM80.5841 32.0341L80.198 32.3519L80.0581 32.1819L80.4442 31.8641L80.8302 31.5464L80.9701 31.7164L80.5841 32.0341ZM80.4442 31.8641L80.0581 32.1819C79.6737 31.7148 79.4807 31.1776 79.5077 30.5879L80.0071 30.6108L80.5066 30.6337C80.4918 30.9563 80.5901 31.2547 80.8302 31.5464L80.4442 31.8641ZM80.0071 30.6108L79.5077 30.5879L79.517 30.3835L80.0165 30.4064L80.516 30.4293L80.5066 30.6337L80.0071 30.6108ZM80.0165 30.4064L79.517 30.3835L79.5264 30.1792L80.0259 30.202L80.5253 30.2249L80.516 30.4293L80.0165 30.4064ZM80.0259 30.202L79.5264 30.1792C79.5478 29.7119 79.5853 29.2335 79.6389 28.7438L80.1359 28.7982L80.6329 28.8525C80.5816 29.3224 80.5457 29.7799 80.5253 30.2249L80.0259 30.202ZM80.1359 28.7982L79.6389 28.7438L79.6624 28.5289L80.1594 28.5832L80.6565 28.6376L80.6329 28.8525L80.1359 28.7982ZM80.1594 28.5832L79.6624 28.5289L79.6859 28.3139L80.1829 28.3683L80.68 28.4226L80.6565 28.6376L80.1594 28.5832ZM80.1829 28.3683L79.6859 28.3139C79.7212 27.9909 79.6287 27.7308 79.3836 27.4927L79.732 27.1341L80.0804 26.7754C80.5415 27.2234 80.7496 27.7861 80.68 28.4226L80.1829 28.3683ZM79.732 27.1341L79.3836 27.4927L79.2254 27.339L79.5738 26.9804L79.9222 26.6218L80.0804 26.7754L79.732 27.1341ZM79.5738 26.9804L79.2254 27.339L79.0672 27.1853L79.4156 26.8267L79.764 26.4681L79.9222 26.6218L79.5738 26.9804ZM79.4156 26.8267L79.0672 27.1853C78.6656 26.7951 78.3703 26.3529 78.196 25.8581L78.6676 25.692L79.1392 25.5259C79.2562 25.8579 79.4595 26.1721 79.764 26.4681L79.4156 26.8267ZM78.6676 25.692L78.196 25.8581L78.1308 25.6728L78.6024 25.5067L79.074 25.3406L79.1392 25.5259L78.6676 25.692ZM78.6024 25.5067L78.1308 25.6728L78.0655 25.4876L78.5371 25.3215L79.0087 25.1554L79.074 25.3406L78.6024 25.5067ZM78.5371 25.3215L78.0655 25.4876C77.9732 25.2254 77.7632 24.9812 77.3545 24.7751L77.5796 24.3286L77.8048 23.8822C78.3815 24.173 78.8099 24.5908 79.0087 25.1554L78.5371 25.3215ZM77.5796 24.3286L77.3545 24.7751L77.1337 24.6637L77.3588 24.2173L77.584 23.7708L77.8048 23.8822L77.5796 24.3286ZM77.3588 24.2173L77.1337 24.6637L76.9129 24.5524L77.1381 24.1059L77.3632 23.6595L77.584 23.7708L77.3588 24.2173ZM77.1381 24.1059L76.9129 24.5524C76.3083 24.2475 75.9 23.7728 75.8173 23.1207L76.3133 23.0578L76.8094 22.9949C76.8409 23.2434 76.9823 23.4674 77.3632 23.6595L77.1381 24.1059ZM76.3133 23.0578L75.8173 23.1207L75.7917 22.919L76.2878 22.8561L76.7838 22.7932L76.8094 22.9949L76.3133 23.0578ZM76.2878 22.8561L75.7917 22.919L75.7661 22.7173L76.2622 22.6544L76.7582 22.5915L76.7838 22.7932L76.2878 22.8561ZM76.2622 22.6544L75.7661 22.7173C75.7156 22.3189 75.6071 21.9536 75.4425 21.6182L75.8914 21.398L76.3402 21.1777C76.5559 21.6171 76.6945 22.0894 76.7582 22.5915L76.2622 22.6544ZM75.8914 21.398L75.4425 21.6182L75.3573 21.4447L75.8062 21.2244L76.255 21.0041L76.3402 21.1777L75.8914 21.398ZM75.8062 21.2244L75.3573 21.4447L75.2721 21.2711L75.721 21.0508L76.1699 20.8305L76.255 21.0041L75.8062 21.2244ZM75.721 21.0508L75.2721 21.2711C75.1326 20.9867 74.9026 20.745 74.5536 20.5507L74.7969 20.1139L75.0402 19.677C75.5431 19.9571 75.9292 20.3401 76.1699 20.8305L75.721 21.0508ZM74.7969 20.1139L74.5536 20.5507L74.3628 20.4444L74.606 20.0076L74.8493 19.5708L75.0402 19.677L74.7969 20.1139ZM74.606 20.0076L74.3628 20.4444L74.1719 20.3381L74.4152 19.9013L74.6585 19.4645L74.8493 19.5708L74.606 20.0076ZM74.4152 19.9013L74.1719 20.3381C73.6157 20.0284 73.2706 19.5452 73.1763 18.9193L73.6707 18.8448L74.1651 18.7702C74.2116 19.0786 74.3628 19.2998 74.6585 19.4645L74.4152 19.9013ZM73.6707 18.8448L73.1763 18.9193L73.1447 18.71L73.6391 18.6355L74.1335 18.5609L74.1651 18.7702L73.6707 18.8448ZM73.6391 18.6355L73.1447 18.71L73.1132 18.5007L73.6076 18.4262L74.102 18.3517L74.1335 18.5609L73.6391 18.6355ZM73.6076 18.4262L73.1132 18.5007C73.0701 18.215 72.9288 18.0271 72.6265 17.9001L72.8201 17.4391L73.0137 16.9781C73.6206 17.233 74.0043 17.7031 74.102 18.3517L73.6076 18.4262ZM72.8201 17.4391L72.6265 17.9001L72.4229 17.8146L72.6165 17.3536L72.8101 16.8926L73.0137 16.9781L72.8201 17.4391ZM72.6165 17.3536L72.4229 17.8146L72.2192 17.729L72.4128 17.268L72.6064 16.8071L72.8101 16.8926L72.6165 17.3536ZM72.4128 17.268L72.2192 17.729C71.6257 17.4798 71.229 17.032 71.0817 16.4102L71.5682 16.2949L72.0547 16.1796C72.1244 16.4735 72.2908 16.6745 72.6064 16.8071L72.4128 17.268ZM71.5682 16.2949L71.0817 16.4102L71.033 16.2051L71.5196 16.0898L72.0061 15.9745L72.0547 16.1796L71.5682 16.2949ZM71.5196 16.0898L71.033 16.2051L70.9844 16L71.4709 15.8847L71.9575 15.7694L72.0061 15.9745L71.5196 16.0898ZM71.4709 15.8847L70.9844 16C70.8601 15.4756 70.8345 14.8737 70.8927 14.2046L71.3908 14.2479L71.8889 14.2913C71.8369 14.8888 71.8647 15.3781 71.9575 15.7694L71.4709 15.8847ZM71.3908 14.2479L70.8927 14.2046L70.9174 13.9209L71.4155 13.9642L71.9136 14.0075L71.8889 14.2913L71.3908 14.2479ZM71.4155 13.9642L70.9174 13.9209L70.942 13.6371L71.4402 13.6804L71.9383 13.7238L71.9136 14.0075L71.4155 13.9642ZM71.4402 13.6804L70.942 13.6371C70.9637 13.3879 70.9128 13.2926 70.889 13.2626C70.8713 13.2402 70.8119 13.1812 70.603 13.1663L70.6385 12.6676L70.674 12.1688C71.0547 12.1959 71.4236 12.3267 71.6731 12.6419C71.9166 12.9495 71.9717 13.3397 71.9383 13.7238L71.4402 13.6804ZM70.6385 12.6676L70.603 13.1663L70.3389 13.1475L70.3744 12.6488L70.4099 12.15L70.674 12.1688L70.6385 12.6676ZM70.3744 12.6488L70.3389 13.1475L70.0748 13.1287L70.1102 12.63L70.1457 12.1313L70.4099 12.15L70.3744 12.6488ZM70.1102 12.63L70.0748 13.1287C69.3852 13.0797 68.798 12.8264 68.4422 12.284L68.8603 12.0097L69.2783 11.7354C69.4101 11.9362 69.6562 12.0964 70.1457 12.1313L70.1102 12.63ZM68.8603 12.0097L68.4422 12.284L68.333 12.1175L68.7511 11.8432L69.1691 11.5689L69.2783 11.7354L68.8603 12.0097ZM68.7511 11.8432L68.333 12.1175L68.2238 11.951L68.6418 11.6767L69.0599 11.4025L69.1691 11.5689L68.7511 11.8432ZM68.6418 11.6767L68.2238 11.951C68.0123 11.6287 67.7558 11.3586 67.4532 11.1377L67.748 10.7338L68.0427 10.33C68.4444 10.6231 68.7838 10.9816 69.0599 11.4025L68.6418 11.6767ZM67.748 10.7338L67.4532 11.1377L67.2954 11.0225L67.5902 10.6187L67.885 10.2148L68.0427 10.33L67.748 10.7338ZM67.5902 10.6187L67.2954 11.0225L67.1377 10.9074L67.4324 10.5035L67.7272 10.0996L67.885 10.2148L67.5902 10.6187ZM67.4324 10.5035L67.1377 10.9074C66.8278 10.6812 66.4804 10.501 66.0929 10.3676L66.2555 9.89483L66.4182 9.42202C66.8956 9.58625 67.3328 9.81176 67.7272 10.0996L67.4324 10.5035ZM66.2555 9.89483L66.0929 10.3676L65.8991 10.301L66.0618 9.82817L66.2244 9.35537L66.4182 9.42202L66.2555 9.89483ZM66.0618 9.82817L65.8991 10.301L65.7053 10.2343L65.868 9.76151L66.0306 9.28871L66.2244 9.35537L66.0618 9.82817ZM65.868 9.76151L65.7053 10.2343C65.0551 10.0106 64.6948 9.46288 64.5577 8.76803L65.0483 8.67126L65.5388 8.5745C65.6298 9.03577 65.816 9.21486 66.0306 9.28871L65.868 9.76151ZM65.0483 8.67126L64.5577 8.76803L64.5066 8.50903L64.9972 8.41226L65.4877 8.3155L65.5388 8.5745L65.0483 8.67126ZM64.9972 8.41226L64.5066 8.50903L64.4555 8.25003L64.9461 8.15326L65.4366 8.0565L65.4877 8.3155L64.9972 8.41226ZM64.9461 8.15326L64.4555 8.25003C64.4098 8.0181 64.337 7.8735 64.2624 7.78451C64.1929 7.70172 64.1038 7.64461 63.9736 7.61462L64.0859 7.12738L64.1981 6.64015C64.5274 6.71601 64.8113 6.88281 65.0286 7.14198C65.2407 7.39495 65.3683 7.71037 65.4366 8.0565L64.9461 8.15326ZM64.0859 7.12738L63.9736 7.61462L63.7677 7.56719L63.88 7.07995L63.9923 6.59272L64.1981 6.64015L64.0859 7.12738ZM63.88 7.07995L63.7677 7.56719L63.5619 7.51976L63.6741 7.03252L63.7864 6.54529L63.9923 6.59272L63.88 7.07995ZM63.6741 7.03252L63.5619 7.51976C63.1373 7.42194 62.6919 7.36704 62.2247 7.35616L62.2363 6.85629L62.248 6.35643C62.779 6.3688 63.2921 6.43139 63.7864 6.54529L63.6741 7.03252ZM62.2363 6.85629L62.2247 7.35616L62.001 7.35095L62.0127 6.85108L62.0243 6.35122L62.248 6.35643L62.2363 6.85629ZM62.0127 6.85108L62.001 7.35095L61.7774 7.34574L61.7891 6.84587L61.8007 6.34601L62.0243 6.35122L62.0127 6.85108ZM61.7891 6.84587L61.7774 7.34574C61.4144 7.33728 61.0832 7.21234 60.8211 6.95505C60.5696 6.70815 60.4176 6.37467 60.3295 6.00676L60.8157 5.89031L61.302 5.77387C61.3637 6.03136 61.4487 6.16986 61.5217 6.24147C61.5841 6.30271 61.6645 6.34284 61.8007 6.34601L61.7891 6.84587ZM60.8157 5.89031L60.3295 6.00676L60.2624 5.72654L60.7486 5.6101L61.2349 5.49365L61.302 5.77387L60.8157 5.89031ZM60.7486 5.6101L60.2624 5.72654L60.1953 5.44632L60.6815 5.32988L61.1678 5.21344L61.2349 5.49365L60.7486 5.6101ZM60.6815 5.32988L60.1953 5.44632C60.1323 5.18336 60.0466 5.02253 59.9641 4.92797C59.8893 4.8423 59.8042 4.79506 59.6898 4.77702L59.7676 4.28312L59.8455 3.78922C60.1906 3.84361 60.4875 4.00705 60.7174 4.27029C60.9395 4.52465 61.081 4.85099 61.1678 5.21344L60.6815 5.32988ZM59.7676 4.28312L59.6898 4.77702L59.4839 4.74457L59.5617 4.25067L59.6396 3.75677L59.8455 3.78922L59.7676 4.28312ZM59.5617 4.25067L59.4839 4.74457L59.278 4.71212L59.3559 4.21822L59.4337 3.72431L59.6396 3.75677L59.5617 4.25067ZM59.3559 4.21822L59.278 4.71212C58.9147 4.65486 58.4885 4.69467 57.9885 4.85936L57.8321 4.38446L57.6757 3.90956C58.2884 3.70773 58.878 3.63672 59.4337 3.72431L59.3559 4.21822ZM57.8321 4.38446L57.9885 4.85936L57.7393 4.94146L57.5828 4.46657L57.4264 3.99167L57.6757 3.90956L57.8321 4.38446ZM57.5828 4.46657L57.7393 4.94146L57.49 5.02357L57.3336 4.54867L57.1771 4.07377L57.4264 3.99167L57.5828 4.46657ZM57.3336 4.54867L57.49 5.02357C57.1529 5.13461 56.8111 5.17494 56.4827 5.10177C56.1466 5.02686 55.8667 4.84219 55.6483 4.577L56.0343 4.25917L56.4203 3.94134C56.5118 4.05241 56.6033 4.10412 56.7002 4.12571C56.805 4.14904 56.9579 4.14599 57.1771 4.07377L57.3336 4.54867ZM56.0343 4.25917L55.6483 4.577L55.5095 4.40842L55.8955 4.09059L56.2815 3.77276L56.4203 3.94134L56.0343 4.25917ZM55.8955 4.09059L55.5095 4.40842L55.3707 4.23983L55.7567 3.922L56.1427 3.60417L56.2815 3.77276L55.8955 4.09059ZM55.7567 3.922L55.3707 4.23983C55.0551 3.85651 54.7373 3.44901 54.4173 3.01747L54.8189 2.71965L55.2205 2.42183C55.5313 2.84092 55.8387 3.23498 56.1427 3.60417L55.7567 3.922ZM54.8189 2.71965L54.4173 3.01747L54.2759 2.82691L54.6776 2.52909L55.0792 2.23127L55.2205 2.42183L54.8189 2.71965ZM54.6776 2.52909L54.2759 2.82691L54.1346 2.63635L54.5363 2.33853L54.9379 2.04071L55.0792 2.23127L54.6776 2.52909ZM54.5363 2.33853L54.1346 2.63635C53.8835 2.29769 53.6144 2.14157 53.3253 2.10029L53.3959 1.60531L53.4666 1.11033C54.0671 1.19605 54.5582 1.52875 54.9379 2.04071L54.5363 2.33853ZM53.3959 1.60531L53.3253 2.10029L53.126 2.07183L53.1966 1.57685L53.2673 1.08187L53.4666 1.11033L53.3959 1.60531ZM53.1966 1.57685L53.126 2.07183L52.9267 2.04338L52.9973 1.5484L53.068 1.05342L53.2673 1.08187L53.1966 1.57685ZM52.9973 1.5484L52.9267 2.04338C52.4828 1.98001 52.0412 1.91829 51.6017 1.85822L51.6694 1.36283L51.7372 0.867437C52.1786 0.92778 52.6222 0.989774 53.068 1.05342L52.9973 1.5484ZM51.6694 1.36283L51.6017 1.85822L51.4044 1.83124L51.4721 1.33585L51.5398 0.84046L51.7372 0.867437L51.6694 1.36283ZM51.4721 1.33585L51.4044 1.83124L51.2071 1.80427L51.2748 1.30888L51.3425 0.813484L51.5398 0.84046L51.4721 1.33585ZM51.2748 1.30888L51.2071 1.80427C50.8796 1.7595 50.5095 1.81695 50.0849 2.0121L49.8761 1.55779L49.6673 1.10348C50.2268 0.846332 50.7892 0.737836 51.3425 0.813484L51.2748 1.30888ZM49.8761 1.55779L50.0849 2.0121L49.8644 2.11343L49.6556 1.65912L49.4468 1.2048L49.6673 1.10348L49.8761 1.55779ZM49.6556 1.65912L49.8644 2.11343L49.6439 2.21476L49.4351 1.76045L49.2263 1.30613L49.4468 1.2048L49.6556 1.65912ZM49.4351 1.76045L49.6439 2.21476C49.0614 2.48252 48.4699 2.54835 47.9078 2.33579L48.0846 1.86811L48.2615 1.40042C48.5159 1.49662 48.8248 1.49068 49.2263 1.30613L49.4351 1.76045ZM48.0846 1.86811L47.9078 2.33579L47.7249 2.26662L47.9017 1.79894L48.0785 1.33126L48.2615 1.40042L48.0846 1.86811ZM47.9017 1.79894L47.7249 2.26662L47.5419 2.19745L47.7188 1.72977L47.8956 1.26209L48.0785 1.33126L47.9017 1.79894ZM47.7188 1.72977L47.5419 2.19745C47.2252 2.0777 46.8964 2.05166 46.5438 2.12397L46.4434 1.63417L46.3429 1.14436C46.8743 1.03539 47.3958 1.07309 47.8956 1.26209L47.7188 1.72977ZM46.4434 1.63417L46.5438 2.12397L46.3458 2.16458L46.2454 1.67478L46.1449 1.18497L46.3429 1.14436L46.4434 1.63417ZM46.2454 1.67478L46.3458 2.16458L46.1478 2.2052L46.0473 1.71539L45.9469 1.22559L46.1449 1.18497L46.2454 1.67478ZM46.0473 1.71539L46.1478 2.2052C45.6024 2.31706 45.068 2.25709 44.5599 2.02763L44.7657 1.57195L44.9715 1.11626C45.2883 1.25935 45.6084 1.29501 45.9469 1.22559L46.0473 1.71539ZM44.7657 1.57195L44.5599 2.02763L44.3751 1.94417L44.5809 1.48849L44.7867 1.0328L44.9715 1.11626L44.7657 1.57195ZM44.5809 1.48849L44.3751 1.94417L44.1903 1.86071L44.3961 1.40503L44.6019 0.949345L44.7867 1.0328L44.5809 1.48849ZM44.3961 1.40503L44.1903 1.86071C43.8324 1.69907 43.4732 1.6121 43.1099 1.59532L43.133 1.09585L43.1561 0.596381C43.6521 0.619297 44.1349 0.73844 44.6019 0.949345L44.3961 1.40503ZM43.133 1.09585L43.1099 1.59532L42.9174 1.58642L42.9405 1.08695L42.9636 0.587487L43.1561 0.596381L43.133 1.09585ZM42.9405 1.08695L42.9174 1.58642L42.7249 1.57753L42.748 1.07806L42.7711 0.578594L42.9636 0.587487L42.9405 1.08695ZM42.748 1.07806L42.7249 1.57753C42.3018 1.55798 41.8777 1.54676 41.4524 1.54385L41.4558 1.04386L41.4592 0.543873C41.8976 0.546869 42.3348 0.558441 42.7711 0.578594L42.748 1.07806ZM41.4558 1.04386L41.4524 1.54385L41.2589 1.54253L41.2623 1.04254L41.2657 0.542551L41.4592 0.543873L41.4558 1.04386ZM41.2623 1.04254L41.2589 1.54253L41.0654 1.54121L41.0688 1.04122L41.0722 0.541229L41.2657 0.542551L41.2623 1.04254ZM41.0688 1.04122L41.0654 1.54121C40.6885 1.53863 40.3144 1.59686 39.9413 1.71765L39.7873 1.24195L39.6333 0.766249C40.1052 0.613498 40.5855 0.537904 41.0722 0.541229L41.0688 1.04122ZM39.7873 1.24195L39.9413 1.71765L39.7519 1.77893L39.598 1.30323L39.444 0.82753L39.6333 0.766249L39.7873 1.24195ZM39.598 1.30323L39.7519 1.77893L39.5626 1.84021L39.4086 1.36451L39.2547 0.888811L39.444 0.82753L39.598 1.30323ZM39.4086 1.36451L39.5626 1.84021C38.9502 2.03845 38.3457 1.87848 37.7947 1.4884L38.0836 1.08032L38.3725 0.672231C38.7432 0.934627 39.022 0.964118 39.2547 0.888811L39.4086 1.36451ZM38.0836 1.08032L37.7947 1.4884L37.5882 1.34224L37.8771 0.934148L38.166 0.526062L38.3725 0.672231L38.0836 1.08032ZM37.8771 0.934148L37.5882 1.34224L37.3818 1.19607L37.6707 0.787979L37.9596 0.379892L38.166 0.526062L37.8771 0.934148ZM37.6707 0.787979L37.3818 1.19607C37.2011 1.06817 37.0555 1.01618 36.9419 1.00341C36.8344 0.991333 36.7257 1.01064 36.6035 1.07832L36.3613 0.640898L36.1191 0.203473C36.4089 0.0429782 36.7246 -0.0272925 37.0535 0.00965846C37.3763 0.0459189 37.6794 0.181555 37.9596 0.379892L37.6707 0.787979ZM36.3613 0.640898L36.6035 1.07832L36.4188 1.18056L36.1766 0.743134L35.9344 0.305709L36.1191 0.203473L36.3613 0.640898ZM36.1766 0.743134L36.4188 1.18056L36.2342 1.28279L35.992 0.84537L35.7498 0.407946L35.9344 0.305709L36.1766 0.743134ZM35.992 0.84537L36.2342 1.28279C35.8349 1.50387 35.4459 1.74221 35.067 1.99783L34.7873 1.58336L34.5077 1.16888C34.9108 0.896884 35.3249 0.643231 35.7498 0.407946L35.992 0.84537ZM34.7873 1.58336L35.067 1.99783L34.8918 2.11604L34.6122 1.70156L34.3325 1.28708L34.5077 1.16888L34.7873 1.58336ZM34.6122 1.70156L34.8918 2.11604L34.7166 2.23424L34.437 1.81976L34.1573 1.40528L34.3325 1.28708L34.6122 1.70156ZM34.437 1.81976L34.7166 2.23424C34.4354 2.42396 34.1184 2.51698 33.7794 2.49887C33.4488 2.4812 33.1287 2.35976 32.8254 2.17399L33.0865 1.7476L33.3477 1.32121C33.5536 1.44735 33.7133 1.49391 33.8328 1.50029C33.944 1.50623 34.0475 1.47937 34.1573 1.40528L34.437 1.81976ZM33.0865 1.7476L32.8254 2.17399L32.5972 2.03423L32.8583 1.60784L33.1195 1.18145L33.3477 1.32121L33.0865 1.7476ZM32.8583 1.60784L32.5972 2.03423L32.369 1.89447L32.6301 1.46809L32.8913 1.0417L33.1195 1.18145L32.8583 1.60784ZM32.6301 1.46809L32.369 1.89447C32.1764 1.77653 32.0671 1.77183 32.0159 1.78048C31.9707 1.78811 31.8858 1.82011 31.7712 1.97665L31.3677 1.68139L30.9642 1.38614C31.182 1.08855 31.4736 0.857933 31.8492 0.794461C32.2188 0.732018 32.5745 0.847725 32.8913 1.0417L32.6301 1.46809ZM31.3677 1.68139L31.7712 1.97665L31.6224 2.18012L31.2188 1.88487L30.8153 1.58961L30.9642 1.38614L31.3677 1.68139ZM31.2188 1.88487L31.6224 2.18012L31.4735 2.3836L31.07 2.08834L30.6664 1.79308L30.8153 1.58961L31.2188 1.88487ZM31.07 2.08834L31.4735 2.3836C31.1242 2.86098 30.7599 3.27011 30.3792 3.60609L30.0484 3.23118L29.7175 2.85628C30.0343 2.57671 30.3512 2.22395 30.6664 1.79308L31.07 2.08834ZM30.0484 3.23118L30.3792 3.60609L30.2229 3.74399L29.8921 3.36908L29.5613 2.99418L29.7175 2.85628L30.0484 3.23118ZM29.8921 3.36908L30.2229 3.74399L30.0666 3.88188L29.7358 3.50698L29.405 3.13208L29.5613 2.99418L29.8921 3.36908ZM29.7358 3.50698L30.0666 3.88188C29.796 4.1207 29.4673 4.23796 29.1064 4.22288C28.7622 4.20851 28.4201 4.07569 28.0905 3.87757L28.348 3.44902L28.6056 3.02046C28.8524 3.16876 29.0298 3.21881 29.1482 3.22375C29.2499 3.228 29.3268 3.20103 29.405 3.13208L29.7358 3.50698ZM28.348 3.44902L28.0905 3.87757L27.8322 3.72236L28.0898 3.2938L28.3474 2.86525L28.6056 3.02046L28.348 3.44902ZM28.0898 3.2938L27.8322 3.72236L27.574 3.56715L27.8315 3.13859L28.0891 2.71003L28.3474 2.86525L28.0898 3.2938ZM27.8315 3.13859L27.574 3.56715C27.3327 3.42217 27.2024 3.41335 27.1518 3.42084C27.1267 3.42457 27.0652 3.43754 26.98 3.58209L26.5492 3.32838L26.1183 3.07468C26.3117 2.74629 26.6032 2.49115 27.0054 2.43161C27.3823 2.37584 27.7539 2.5086 28.0891 2.71003L27.8315 3.13859ZM26.5492 3.32838L26.98 3.58209L26.8553 3.794L26.4244 3.54029L25.9936 3.28658L26.1183 3.07468L26.5492 3.32838ZM26.4244 3.54029L26.8553 3.794L26.7305 4.0059L26.2996 3.75219L25.8688 3.49848L25.9936 3.28658L26.4244 3.54029ZM26.2996 3.75219L26.7305 4.0059C26.5489 4.31433 26.299 4.56219 25.9675 4.69374C25.6374 4.82477 25.2844 4.81733 24.9378 4.7231L25.0689 4.24061L25.2001 3.75812C25.3954 3.81122 25.5186 3.79605 25.5986 3.76427C25.6774 3.73301 25.7719 3.663 25.8688 3.49848L26.2996 3.75219ZM25.0689 4.24061L24.9378 4.7231L24.6949 4.65708L24.8261 4.17459L24.9573 3.69211L25.2001 3.75812L25.0689 4.24061ZM24.8261 4.17459L24.6949 4.65708L24.4521 4.59107L24.5833 4.10858L24.7144 3.62609L24.9573 3.69211L24.8261 4.17459ZM24.5833 4.10858L24.4521 4.59107C24.2718 4.54206 24.2013 4.57445 24.1734 4.59208C24.1338 4.61719 24.0505 4.69742 23.9787 4.93796L23.4996 4.79501L23.0205 4.65207C23.1292 4.28765 23.3167 3.951 23.6383 3.7473C23.9717 3.53612 24.3527 3.52776 24.7144 3.62609L24.5833 4.10858ZM23.4996 4.79501L23.9787 4.93796L23.8979 5.20901L23.4187 5.06606L22.9396 4.92312L23.0205 4.65207L23.4996 4.79501ZM23.4187 5.06606L23.8979 5.20901L23.817 5.48006L23.3379 5.33712L22.8587 5.19417L22.9396 4.92312L23.4187 5.06606ZM23.3379 5.33712L23.817 5.48006C23.7082 5.84459 23.5257 6.17414 23.2259 6.39088C22.9156 6.61524 22.5495 6.6687 22.1815 6.61035L22.2598 6.11652L22.3381 5.62269C22.5084 5.64969 22.591 5.61592 22.64 5.58048C22.6996 5.53743 22.787 5.43459 22.8587 5.19417L23.3379 5.33712ZM22.2598 6.11652L22.1815 6.61035L21.9403 6.5721L22.0186 6.07827L22.0969 5.58444L22.3381 5.62269L22.2598 6.11652ZM22.0186 6.07827L21.9403 6.5721L21.6992 6.53386L21.7775 6.04003L21.8558 5.5462L22.0969 5.58444L22.0186 6.07827ZM21.7775 6.04003L21.6992 6.53386C21.2391 6.46089 20.8849 6.51474 20.6073 6.65451L20.3824 6.20794L20.1575 5.76136C20.6636 5.50655 21.2394 5.44846 21.8558 5.5462L21.7775 6.04003ZM20.3824 6.20794L20.6073 6.65451L20.4318 6.74291L20.2069 6.29634L19.982 5.84976L20.1575 5.76136L20.3824 6.20794ZM20.2069 6.29634L20.4318 6.74291L20.2562 6.83131L20.0313 6.38473L19.8065 5.93816L19.982 5.84976L20.2069 6.29634ZM20.0313 6.38473L20.2562 6.83131C19.8204 7.05076 19.346 7.20959 18.8358 7.3103L18.739 6.81977L18.6421 6.32923C19.0715 6.24448 19.4587 6.11329 19.8065 5.93816L20.0313 6.38473ZM18.739 6.81977L18.8358 7.3103L18.6253 7.35185L18.5285 6.86131L18.4317 6.37078L18.6421 6.32923L18.739 6.81977ZM18.5285 6.86131L18.6253 7.35185L18.4148 7.39339L18.318 6.90286L18.2212 6.41232L18.4317 6.37078L18.5285 6.86131ZM18.318 6.90286L18.4148 7.39339C18.0648 7.46248 17.8052 7.62919 17.6087 7.90009L17.2039 7.60661L16.7991 7.31312C17.1486 6.83115 17.6316 6.52869 18.2212 6.41232L18.318 6.90286ZM17.2039 7.60661L17.6087 7.90009L17.4865 8.06876L17.0817 7.77527L16.6769 7.48179L16.7991 7.31312L17.2039 7.60661ZM17.0817 7.77527L17.4865 8.06876L17.3642 8.23742L16.9594 7.94394L16.5546 7.65045L16.6769 7.48179L17.0817 7.77527ZM16.9594 7.94394L17.3642 8.23742C17.07 8.64323 16.7414 9.00405 16.3781 9.31816L16.0511 8.93992L15.7241 8.56167C16.026 8.30069 16.3029 7.99752 16.5546 7.65045L16.9594 7.94394ZM16.0511 8.93992L16.3781 9.31816L16.229 9.447L15.902 9.06875L15.575 8.69051L15.7241 8.56167L16.0511 8.93992ZM15.902 9.06875L16.229 9.447L16.08 9.57584L15.753 9.19759L15.426 8.81934L15.575 8.69051L15.902 9.06875ZM15.753 9.19759L16.08 9.57584C15.8104 9.80896 15.5922 10.1103 15.4294 10.4912L14.9696 10.2947L14.5098 10.0983C14.7264 9.59143 15.0304 9.16132 15.426 8.81934L15.753 9.19759ZM14.9696 10.2947L15.4294 10.4912L15.3445 10.69L14.8847 10.4936L14.4249 10.2971L14.5098 10.0983L14.9696 10.2947ZM14.8847 10.4936L15.3445 10.69L15.2595 10.8889L14.7997 10.6925L14.3399 10.496L14.4249 10.2971L14.8847 10.4936ZM14.7997 10.6925L15.2595 10.8889C15.0434 11.3947 14.7421 11.8225 14.3501 12.1589L14.0244 11.7795L13.6988 11.4001C13.9612 11.1749 14.1767 10.8779 14.3399 10.496L14.7997 10.6925ZM14.0244 11.7795L14.3501 12.1589L14.2035 12.2848L13.8778 11.9054L13.5522 11.5259L13.6988 11.4001L14.0244 11.7795ZM13.8778 11.9054L14.2035 12.2848L14.0569 12.4106L13.7312 12.0312L13.4056 11.6518L13.5522 11.5259L13.8778 11.9054ZM13.7312 12.0312L14.0569 12.4106C13.6755 12.7379 13.223 12.9869 12.7082 13.163L12.5463 12.69L12.3845 12.2169C12.7952 12.0764 13.1326 11.8861 13.4056 11.6518L13.7312 12.0312ZM12.5463 12.69L12.7082 13.163L12.5009 13.234L12.339 12.7609L12.1771 12.2878L12.3845 12.2169L12.5463 12.69ZM12.339 12.7609L12.5009 13.234L12.2936 13.3049L12.1317 12.8318L11.9698 12.3588L12.1771 12.2878L12.339 12.7609ZM12.1317 12.8318L12.2936 13.3049C11.9004 13.4395 11.5924 13.6379 11.355 13.894L10.9883 13.5542L10.6216 13.2143C10.9833 12.824 11.4376 12.5409 11.9698 12.3588L12.1317 12.8318ZM10.9883 13.5542L11.355 13.894L11.2208 14.0389L10.8541 13.699L10.4874 13.3591L10.6216 13.2143L10.9883 13.5542ZM10.8541 13.699L11.2208 14.0389L11.0866 14.1837L10.7199 13.8438L10.3531 13.5039L10.4874 13.3591L10.8541 13.699ZM10.7199 13.8438L11.0866 14.1837C10.7948 14.4985 10.5141 14.823 10.2444 15.1571L9.85533 14.8431L9.46624 14.529C9.75019 14.1772 10.0458 13.8355 10.3531 13.5039L10.7199 13.8438ZM9.85533 14.8431L10.2444 15.1571L10.1204 15.3107L9.73132 14.9967L9.34222 14.6827L9.46624 14.529L9.85533 14.8431ZM9.73132 14.9967L10.1204 15.3107L9.9964 15.4644L9.6073 15.1504L9.21821 14.8364L9.34222 14.6827L9.73132 14.9967ZM9.6073 15.1504L9.9964 15.4644C9.76641 15.7494 9.5974 16.0844 9.4924 16.4765L9.00941 16.3472L8.52643 16.2179C8.66503 15.7002 8.89462 15.2373 9.21821 14.8364L9.6073 15.1504ZM9.00941 16.3472L9.4924 16.4765L9.43783 16.6804L8.95484 16.5511L8.47186 16.4217L8.52643 16.2179L9.00941 16.3472ZM8.95484 16.5511L9.43783 16.6804L9.38326 16.8842L8.90027 16.7549L8.41728 16.6256L8.47186 16.4217L8.95484 16.5511ZM8.90027 16.7549L9.38326 16.8842C9.2075 17.5406 8.72134 17.9589 8.05517 18.1623L7.90917 17.6841L7.76317 17.2059C8.17486 17.0802 8.34943 16.879 8.41728 16.6256L8.90027 16.7549ZM7.90917 17.6841L8.05517 18.1623L7.81371 18.236L7.6677 17.7578L7.5217 17.2796L7.76317 17.2059L7.90917 17.6841ZM7.6677 17.7578L7.81371 18.236L7.57224 18.3097L7.42623 17.8315L7.28023 17.3533L7.5217 17.2796L7.6677 17.7578ZM7.42623 17.8315L7.57224 18.3097C7.13488 18.4433 6.91092 18.6518 6.80122 18.8998L6.34395 18.6976L5.88668 18.4953C6.14216 17.9177 6.63972 17.5489 7.28023 17.3533L7.42623 17.8315ZM6.34395 18.6976L6.80122 18.8998L6.71941 19.0848L6.26214 18.8825L5.80487 18.6803L5.88668 18.4953L6.34395 18.6976ZM6.26214 18.8825L6.71941 19.0848L6.6376 19.2697L6.18033 19.0675L5.72306 18.8652L5.80487 18.6803L6.26214 18.8825ZM6.18033 19.0675L6.6376 19.2697C6.5438 19.4818 6.54218 19.8587 6.84534 20.4952L6.39393 20.7102L5.94252 20.9252C5.5957 20.197 5.45168 19.4788 5.72306 18.8652L6.18033 19.0675ZM6.39393 20.7102L6.84534 20.4952L6.99095 20.8009L6.53954 21.0159L6.08813 21.2309L5.94252 20.9252L6.39393 20.7102ZM6.53954 21.0159L6.99095 20.8009L7.13657 21.1066L6.68516 21.3216L6.23375 21.5366L6.08813 21.2309L6.53954 21.0159ZM6.68516 21.3216L7.13657 21.1066C7.4777 21.8228 7.62726 22.5638 7.24166 23.1493L6.82407 22.8744L6.40648 22.5994C6.48564 22.4792 6.54259 22.185 6.23375 21.5366L6.68516 21.3216ZM6.82407 22.8744L7.24166 23.1493L7.13754 23.3075L6.71995 23.0325L6.30236 22.7575L6.40648 22.5994L6.82407 22.8744ZM6.71995 23.0325L7.13754 23.3075L7.03342 23.4656L6.61583 23.1906L6.19824 22.9156L6.30236 22.7575L6.71995 23.0325ZM6.61583 23.1906L7.03342 23.4656C6.70903 23.9582 6.1506 24.2762 5.47009 24.4783L5.32773 23.999L5.18536 23.5197C5.75755 23.3497 6.05786 23.1288 6.19824 22.9156L6.61583 23.1906ZM5.32773 23.999L5.47009 24.4783L5.18945 24.5616L5.04709 24.0823L4.90473 23.603L5.18536 23.5197L5.32773 23.999ZM5.04709 24.0823L5.18945 24.5616L4.90881 24.645L4.76646 24.1657L4.62409 23.6864L4.90473 23.603L5.04709 24.0823ZM4.76646 24.1657L4.90881 24.645C4.33755 24.8147 3.95239 25.0449 3.70875 25.3077L3.34207 24.9678L2.9754 24.6278C3.37823 24.1933 3.94265 23.8888 4.62409 23.6864L4.76646 24.1657ZM3.34207 24.9678L3.70875 25.3077L3.56392 25.4639L3.19724 25.124L2.83057 24.7841L2.9754 24.6278L3.34207 24.9678ZM3.19724 25.124L3.56392 25.4639L3.41909 25.6201L3.05241 25.2802L2.68574 24.9403L2.83057 24.7841L3.19724 25.124ZM3.05241 25.2802L3.41909 25.6201C3.36887 25.6743 3.3475 25.7266 3.36467 25.8301C3.38654 25.9618 3.47485 26.1683 3.69567 26.4578L3.29812 26.761L2.90057 27.0642C2.63435 26.7152 2.43819 26.3556 2.37816 25.9938C2.31342 25.6036 2.41272 25.2348 2.68574 24.9403L3.05241 25.2802ZM3.29812 26.761L3.69567 26.4578L3.91389 26.7439L3.51634 27.0471L3.11879 27.3503L2.90057 27.0642L3.29812 26.761ZM3.51634 27.0471L3.91389 26.7439L4.13211 27.03L3.73456 27.3332L3.33701 27.6364L3.11879 27.3503L3.51634 27.0471ZM3.73456 27.3332L4.13211 27.03C4.39758 27.378 4.59383 27.7327 4.66369 28.0871C4.73816 28.4647 4.66521 28.8336 4.41306 29.1386L4.02773 28.82L3.6424 28.5013C3.68183 28.4536 3.70583 28.3984 3.68258 28.2805C3.65472 28.1392 3.55859 27.9269 3.33701 27.6364L3.73456 27.3332ZM4.02773 28.82L4.41306 29.1386L4.2824 29.2966L3.89707 28.978L3.51174 28.6594L3.6424 28.5013L4.02773 28.82ZM3.89707 28.978L4.2824 29.2966L4.15176 29.4546L3.76642 29.136L3.38109 28.8174L3.51174 28.6594L3.89707 28.978ZM3.76642 29.136L4.15176 29.4546C3.93966 29.7111 3.85126 29.9861 3.87218 30.3034L3.37325 30.3363L2.87434 30.3691C2.83627 29.7914 3.00998 29.2662 3.38109 28.8174L3.76642 29.136ZM3.37325 30.3363L3.87218 30.3034L3.88538 30.5039L3.38647 30.5368L2.88755 30.5696L2.87434 30.3691L3.37325 30.3363ZM3.38647 30.5368L3.88538 30.5039L3.8986 30.7044L3.39968 30.7373L2.90076 30.7702L2.88755 30.5696L3.38647 30.5368ZM3.39968 30.7373L3.8986 30.7044C3.9429 31.3768 3.59001 31.9175 3.02138 32.319L2.73296 31.9106L2.44455 31.5022C2.82386 31.2343 2.91544 30.9929 2.90076 30.7702L3.39968 30.7373ZM2.73296 31.9106L3.02138 32.319L2.80902 32.469L2.52061 32.0606L2.23219 31.6521L2.44455 31.5022L2.73296 31.9106ZM2.52061 32.0606L2.80902 32.469L2.59666 32.619L2.30824 32.2105L2.01983 31.8021L2.23219 31.6521L2.52061 32.0606ZM2.30824 32.2105L2.59666 32.619C2.21258 32.8902 2.10715 33.1395 2.11236 33.3685L1.61249 33.3799L1.11262 33.3913C1.09757 32.7305 1.45598 32.2003 2.01983 31.8021L2.30824 32.2105ZM1.61249 33.3799L2.11236 33.3685L2.1169 33.5678L1.61703 33.5792L1.11716 33.5906L1.11262 33.3913L1.61249 33.3799ZM1.61703 33.5792L2.1169 33.5678L2.12144 33.7671L1.62157 33.7785L1.1217 33.7899L1.11716 33.5906L1.61703 33.5792ZM1.62157 33.7785L2.12144 33.7671C2.13255 34.2549 2.08132 34.7334 1.96729 35.2015L1.4815 35.0832L0.995705 34.9648C1.0887 34.5831 1.13085 34.1919 1.1217 33.7899L1.62157 33.7785ZM1.4815 35.0832L1.96729 35.2015L1.92091 35.3919L1.43512 35.2736L0.949326 35.1552L0.995705 34.9648L1.4815 35.0832ZM1.43512 35.2736L1.92091 35.3919L1.87453 35.5823L1.38873 35.4639L0.902946 35.3456L0.949326 35.1552L1.43512 35.2736ZM1.38873 35.4639L1.87453 35.5823C1.78258 35.9597 1.74678 36.3429 1.7672 36.7332L1.26788 36.7593L0.768562 36.7854C0.743088 36.2984 0.787872 35.818 0.902946 35.3456L1.38873 35.4639ZM1.26788 36.7593L1.7672 36.7332L1.77748 36.9297L1.27816 36.9558L0.778847 36.982L0.768562 36.7854L1.26788 36.7593ZM1.27816 36.9558L1.77748 36.9297L1.78776 37.1263L1.28844 37.1524L0.789124 37.1785L0.778847 36.982L1.27816 36.9558ZM1.28844 37.1524L1.78776 37.1263C1.81721 37.6892 1.64693 38.2257 1.31414 38.7252L0.898041 38.448L0.481941 38.1707C0.715576 37.8201 0.805573 37.4929 0.789124 37.1785L1.28844 37.1524ZM0.898041 38.448L1.31414 38.7252L1.18725 38.9157L0.771149 38.6384L0.355049 38.3612L0.481941 38.1707L0.898041 38.448ZM0.771149 38.6384L1.18725 38.9157L1.06035 39.1061L0.644249 38.8289L0.228149 38.5516L0.355049 38.3612L0.771149 38.6384ZM0.644249 38.8289L1.06035 39.1061C1.01765 39.1702 1.00523 39.2108 1.00178 39.2294C0.999084 39.2438 1.00043 39.2499 1.00315 39.2575C1.01249 39.2833 1.0666 39.3801 1.29949 39.5152L1.04849 39.9477L0.797493 40.3801C0.477676 40.1945 0.188057 39.9444 0.0626526 39.5973C-0.0737 39.2199 0.0264816 38.8543 0.228149 38.5516L0.644249 38.8289ZM1.04849 39.9477L1.29949 39.5152L1.54713 39.659L1.29613 40.0914L1.04514 40.5239L0.797493 40.3801L1.04849 39.9477ZM1.29613 40.0914L1.54713 39.659L1.79477 39.8027L1.54377 40.2352L1.29278 40.6676L1.04514 40.5239L1.29613 40.0914ZM1.54377 40.2352L1.79477 39.8027C1.93994 39.887 2.06569 39.9657 2.16756 40.038C2.25964 40.1033 2.36797 40.188 2.44637 40.2885C2.48344 40.336 2.55228 40.4346 2.5734 40.5735C2.60035 40.7507 2.53961 40.9319 2.40147 41.057C2.29346 41.1548 2.17307 41.1864 2.11312 41.1987C2.04337 41.213 1.97549 41.2164 1.9193 41.2164V40.7164V40.2164C1.9387 40.2164 1.93304 40.2148 1.91216 40.2191C1.90108 40.2213 1.8162 40.2379 1.73033 40.3156C1.68188 40.3595 1.63436 40.4221 1.60566 40.5039C1.5771 40.5854 1.57542 40.6624 1.58476 40.7239C1.60132 40.8327 1.65222 40.8963 1.658 40.9037C1.67381 40.9239 1.66611 40.9083 1.58871 40.8534C1.52112 40.8054 1.42396 40.7437 1.29278 40.6676L1.54377 40.2352ZM1.9193 40.7164V41.2164H1.78383V40.7164V40.2164H1.9193V40.7164ZM1.78383 40.7164V41.2164H1.64835V40.7164V40.2164H1.78383V40.7164ZM1.64835 40.7164V41.2164C1.62823 41.2164 1.65587 41.2204 1.70237 41.1949C1.72662 41.1816 1.7515 41.1625 1.77345 41.1376C1.79523 41.1129 1.80916 41.0881 1.81748 41.0679C1.83284 41.0307 1.82626 41.017 1.82814 41.05C1.82994 41.0813 1.83836 41.1363 1.86285 41.2201L1.3829 41.3603L0.902954 41.5005C0.833733 41.2635 0.780373 40.9599 0.892967 40.6868C0.956604 40.5324 1.06784 40.4025 1.22101 40.3184C1.36523 40.2392 1.5173 40.2164 1.64835 40.2164V40.7164ZM1.3829 41.3603L1.86285 41.2201L1.91902 41.4124L1.43908 41.5526L0.959129 41.6928L0.902954 41.5005L1.3829 41.3603Z" fill="#FFB3B3"/>
</svg>
